<svg width="122" height="122" viewBox="0 0 122 122" fill="none" xmlns="http://www.w3.org/2000/svg">
<path d="M33.0625 34.625L40.5625 35.875L46.1875 40.25L44.3125 43.375L45.5625 42.75L46.1875 41.5L48.0625 42.125L46.8125 44H48.0625L48.6875 42.75L51.1875 44L56.1875 50.875L61.8125 55.875L64.3125 57.125V58.375L71.8125 60.875L74.9375 64L81.1875 67.75L85.5625 70.25L88.0625 72.75L85.5625 74V72.75H84.3125L83.0625 70.875L79.9375 71.5L82.4375 72.75L85.5625 77.125L84.9375 79L83.6875 79.625L93.6875 83.375L97.4375 85.25V92.125V93.375L107.438 92.125L111.812 102.125V103.375L114.312 104L115.562 103.375V99H111.812L113.688 97.125L116.812 98.375L118.688 100.25L117.438 105.25L112.438 107.75L118.062 110.875L116.188 111.5L108.688 110.25L101.812 105.25L97.4375 104.625L96.1875 96.5L93.0625 92.75L78.0625 92.125L73.0625 91.5L78.0625 95.875L81.8125 99L83.0625 101.5V105.25L83.6875 108.375L86.8125 109L87.4375 107.75L93.0625 109L100.562 112.125V107.75H99.3125L98.6875 105.875L103.062 106.5L103.688 109.625L106.812 110.25L104.938 112.125L99.3125 113.375H93.6875V114H83.6875L82.4375 113.375H70.5625L68.0625 112.75L66.8125 115.875L64.3125 120.875L62.4375 121.5L61.8125 119.625L59.9375 121.5L44.3125 120.875V119L46.8125 118.375L48.6875 115.25L53.0625 114.625H58.6875L61.8125 115.25L62.4375 111.5L63.0625 109L58.0625 102.75L51.8125 97.125L43.0625 90.25L34.3125 82.75L30.5625 76.5L28.6875 72.125V59L31.1875 35.25L33.0625 34.625Z" fill="#E8E0CE"/>
<path d="M61.1875 56.5L64.3125 57.125V58.375L71.8125 60.875L74.9375 64L81.1875 67.75L85.5625 70.25L88.0625 72.75L85.5625 74V72.75H84.3125L83.0625 70.875L79.9375 71.5L82.4375 72.75L85.5625 77.125L84.9375 79L83.6875 79.625L93.6875 83.375L97.4375 85.25V92.125V93.375L107.438 92.125L111.812 102.125V103.375L114.312 104L115.562 103.375V99H111.812L113.688 97.125L116.812 98.375L118.688 100.25L117.438 105.25L112.438 107.75L118.062 110.875L116.188 111.5L108.688 110.25L101.812 105.25L97.4375 104.625L96.1875 96.5L93.0625 92.75L78.0625 92.125L73.0625 90.875H68.6875L63.6875 92.75L59.3125 92.125L55.5625 90.25L51.8125 84.625V83.375L54.3125 80.875L53.6875 80.25L53.0625 82.125L49.3125 83.375L46.8125 82.75L48.6875 81.5H45.5625L44.9375 80.25L45.5625 79H41.1875V80.25H44.3125V82.125L45.5625 82.75L41.1875 82.125L34.9375 76.5L35.5625 75.25L37.4375 76.5L40.5625 75.875L44.9375 74.625H47.4375V75.875L52.4375 75.25L53.0625 76.5L49.9375 79H47.4375L50.5625 79.625L53.6875 77.125L56.8125 78.375L56.1875 76.5L54.9375 75.875L55.5625 74L52.4375 74.625L53.0625 72.125H51.8125L51.1875 74L48.0625 74.625L49.3125 72.125L51.1875 71.5L51.8125 68.375L54.9375 66.5L58.0625 65.875H56.8125L54.3125 65.25L53.6875 64L52.4375 65.25H48.0625L48.6875 64L52.4375 62.75L53.0625 61.5L51.8125 60.875L52.4375 59L56.8125 58.375L57.4375 59.625L60.5625 57.75L61.1875 56.5Z" fill="#BAB3A7"/>
<path d="M33.0625 34.625L40.5625 35.875L46.1875 40.25L44.3125 43.375L45.5625 42.75L46.1875 41.5L48.0625 42.125L46.8125 44H48.0625L48.6875 42.75L51.1875 44L56.1875 50.875L60.5625 55.25L59.3125 57.75H58.0625L58.6875 55.25H57.4375V56.5L55.5625 57.75L53.6875 57.125L56.1875 55.25L49.9375 58.375H51.1875V60.875L45.5625 62.75L47.4375 64L43.6875 65.25L42.4375 67.125L39.3125 67.75L41.1875 68.375L43.6875 67.75V69L48.0625 67.75L48.6875 66.5H51.8125L49.9375 69.625H48.0625V70.875L49.3125 71.5L47.4375 73.375H44.3125L43.6875 74.625L39.9375 74L39.3125 75.875L36.8125 74.625L37.4375 73.375L36.1875 72.75H43.0625L36.1875 71.5L35.5625 70.25L37.4375 69.625L38.0625 68.375H36.8125V67.125H31.8125L30.5625 67.75L29.3125 67.125L30.5625 69L32.4375 69.625V70.875H29.3125L28.6875 69.625V59L31.1875 35.25L33.0625 34.625Z" fill="#464541"/>
<path d="M21.1875 0.25H26.8125L33.0625 2.125L38.6875 5.875L41.8125 9L44.9375 15.25L46.8125 28.375L48.0625 35.875L43.0625 33.375L30.5625 32.75L27.4375 23.375L24.9375 19L21.8125 17.75L16.1875 16.5V14.625L14.3125 12.125V6.5L17.4375 2.125L21.1875 0.25Z" fill="#182D1D"/>
<path d="M68.6875 90.25H73.0625L74.3125 92.75L81.1875 98.375L83.0625 101.5V105.25L83.6875 108.375L86.8125 109L87.4375 107.75L93.0625 109L100.562 112.125V107.75H99.3125L98.6875 105.875L103.062 106.5L103.688 109.625L106.812 110.25L104.938 112.125L99.3125 113.375H93.6875V114H83.6875L82.4375 113.375H70.5625L68.0625 112.75L66.8125 115.875L64.3125 120.875L62.4375 121.5L61.8125 119.625L59.9375 121.5L44.3125 120.875V119L46.8125 118.375L48.6875 115.25L53.0625 114.625H58.6875L61.8125 115.25L62.4375 112.75L64.3125 109.625L65.5625 106.5L69.3125 105.875L70.5625 106.5L71.1875 104.625L74.9375 104V100.25L73.0625 100.875H63.0625L61.1875 99.625V94.625L57.4375 92.125L59.3125 91.5L63.6875 92.125L68.6875 90.25Z" fill="#B2B0AA"/>
<path d="M72.4375 90.875L78.0625 91.5L93.0625 92.125L96.8125 96.5L97.4375 99V104.625H101.812L108.688 109.625L116.812 110.875L111.812 107.75L115.562 105.875V107.125H119.938L121.812 106.5L121.188 109L121.812 110.875H120.562V112.125H118.062V113.375L108.062 112.75L105.562 110.875L103.062 109.625V107.125L99.3125 106.5V107.75H100.562V112.125L87.4375 107.75L86.8125 109.625L83.6875 108.375V105.875L82.4375 105.25V101.5L79.9375 97.75L73.6875 92.75L72.4375 90.875Z" fill="#EAE4D3"/>
<path d="M83.6875 75.875L85.5625 77.125L84.9375 79L83.6875 79.625L93.6875 83.375L97.4375 85.25V92.125V93.375L107.438 92.125L111.812 102.125V103.375L114.312 104L115.562 103.375V99H111.812L113.688 97.125L116.812 98.375L118.688 100.25L117.438 105.25L112.438 107.75L118.062 110.875L116.188 111.5L108.688 110.25L101.812 105.25L97.4375 104.625L96.1875 96.5L93.0625 92.75L89.3125 91.5L88.6875 88.375L87.4375 86.5L86.8125 87.75H85.5625L83.6875 82.75L76.8125 83.375L76.1875 80.875L80.5625 80.25L81.8125 80.875V79L83.6875 75.875Z" fill="#2E2D2A"/>
<path d="M54.3125 70.25L57.4375 73.375L62.4375 79.625L63.0625 81.5H73.0625L74.3125 84H72.4375L71.8125 82.75L68.6875 83.375L71.1875 84.625L73.0625 85.875V87.125L76.1875 88.375L79.3125 90.25L83.0625 90.875V91.5H75.5625L69.3125 90.875L63.6875 92.75L59.3125 92.125L55.5625 90.25L51.8125 84.625V83.375L54.3125 80.875L53.6875 80.25L53.0625 82.125L49.3125 83.375L46.8125 82.75L48.6875 81.5H45.5625L44.9375 80.25L45.5625 79H41.1875V80.25H44.3125V82.125L45.5625 82.75L41.1875 82.125L34.9375 76.5L35.5625 75.25L37.4375 76.5L40.5625 75.875L44.9375 74.625H47.4375V75.875L52.4375 75.25L53.0625 76.5L49.9375 79H47.4375L50.5625 79.625L53.6875 77.125L56.8125 78.375L56.1875 76.5L54.9375 75.875L55.5625 74L52.4375 74.625L53.6875 72.125L54.3125 70.25Z" fill="#4E3325"/>
<path d="M61.1875 56.5L64.3125 57.125V58.375L68.0625 59.625L69.3125 60.25V62.75H66.8125L68.0625 64.625L67.4375 68.375L64.9375 69.625V70.875L69.9375 69.625L71.1875 68.375L73.6875 69L73.0625 71.5L70.5625 72.125V73.375L73.6875 72.125L75.5625 69.625L76.8125 70.25V71.5H74.9375V72.75L78.6875 71.5V74H77.4375V75.25L80.5625 74L81.8125 75.875L81.1875 76.5H74.9375L64.9375 72.125L61.1875 70.875L57.4375 70.25L54.3125 69L53.0625 72.125H51.8125L51.1875 74L48.0625 74.625L49.3125 72.125L51.1875 71.5L51.8125 68.375L54.9375 66.5L58.0625 65.875H56.8125L54.3125 65.25L53.6875 64L52.4375 65.25H48.0625L48.6875 64L52.4375 62.75L53.0625 61.5L51.8125 60.875L52.4375 59L56.8125 58.375L57.4375 59.625L60.5625 57.75L61.1875 56.5Z" fill="#C4AD93"/>
<path d="M54.9375 54.625L56.8125 55.25L54.3125 57.125L57.4375 56.5V55.25H58.6875L58.0625 57.75L61.1875 55.25L61.8125 56.5L59.3125 59L56.8125 60.875V58.375L52.4375 59L53.0625 62.75L51.8125 64L48.6875 64.625H52.4375L54.3125 63.375L54.9375 65.25H56.8125L58.0625 64L58.6875 65.875L57.4375 67.125L53.0625 67.75L51.8125 70.25L51.1875 72.125H49.3125L48.6875 74L51.1875 73.375L51.8125 72.125H53.0625L53.6875 70.25L54.3125 72.125L53.0625 74L55.5625 73.375L56.1875 74.625H54.9375V75.875L56.8125 76.5V78.375L53.0625 77.75L50.5625 80.25L47.4375 79.625L46.8125 78.375H49.9375L52.4375 75.875H47.4375V74.625L44.3125 75.875L39.9375 77.125L36.1875 76.5L31.8125 74L29.9375 72.125L31.8125 71.5L32.4375 69.625L29.9375 69L29.3125 67.125L31.8125 66.5L36.8125 67.125V68.375H38.0625L37.4375 70.25L36.1875 70.875L43.6875 72.125L43.0625 73.375H37.4375L38.0625 75.25H39.3125L39.9375 74L43.6875 74.625L44.3125 72.75H48.6875L48.0625 69.625L49.9375 69L51.1875 67.125L48.6875 66.5L47.4375 69H43.6875H41.1875L38.6875 68.375L39.3125 67.125L42.4375 66.5L43.6875 64.625L46.8125 64L44.9375 62.75L49.9375 60.875H51.1875V58.375L48.6875 59L50.5625 57.125L54.3125 55.25L54.9375 54.625Z" fill="#B9AA97"/>
<path d="M79.9375 70.25H83.0625L84.3125 72.75H85.5625L86.1875 72.125L89.9375 73.375L95.5625 77.75L101.812 84.625L106.812 90.875L107.438 92.125L99.3125 94L94.9375 93.375L96.8125 92.125L97.4375 85.25L93.6875 84L83.6875 80.25L83.0625 79L84.9375 78.375L83.6875 75.25L81.1875 72.125L79.9375 71.5V70.25Z" fill="#DED7C6"/>
<path d="M68.6875 90.25H73.0625L74.3125 92.75L78.0625 95.875L81.8125 100.875L82.4375 104.625L76.1875 104L75.5625 103.375V99.625L72.4375 100.25H63.6875L61.8125 99V93.375L66.8125 90.875L68.6875 90.25Z" fill="#D6924C"/>
<path d="M67.4375 105.875H69.3125L69.9375 109L67.4375 114.625L64.3125 120.875L62.4375 121.5L61.8125 119.625L59.9375 121.5L44.3125 120.875V119L46.8125 118.375L48.6875 115.25L53.0625 114.625H58.6875L61.8125 115.25L62.4375 112.75L64.3125 109.625L65.5625 106.5L67.4375 105.875Z" fill="#D79550"/>
<path d="M19.9375 6.5L31.1875 7.75L34.3125 10.875L36.8125 15.25L36.1875 19L34.9375 20.25L32.4375 14.625L29.3125 10.875L27.4375 10.25L28.6875 13.375L22.4375 15.25L16.8125 13.375L14.9375 10.875L16.8125 7.75L19.9375 6.5Z" fill="#305047"/>
<path d="M83.6875 75.875L85.5625 77.125L84.9375 79L83.6875 79.625L93.6875 83.375L97.4375 85.25V92.125V94L94.9375 94.625L93.0625 92.75L89.3125 91.5L88.6875 88.375L87.4375 86.5L86.8125 87.75H85.5625L83.6875 82.75L76.8125 83.375L76.1875 80.875L80.5625 80.25L81.8125 80.875V79L83.6875 75.875Z" fill="#30302C"/>
<path d="M69.3125 60.25L71.8125 60.875L74.9375 64L81.1875 67.75L85.5625 70.25L88.0625 72.75L85.5625 74V72.75H84.3125L83.0625 70.875L79.9375 71.5L82.4375 72.75L83.0625 75.25H81.1875H79.3125H77.4375V74L78.6875 73.375L78.0625 72.125L74.9375 72.75V71.5H76.8125V70.25L74.9375 70.875L72.4375 73.375H70.5625V72.125L73.0625 70.875V69L70.5625 69.625L68.0625 70.875H64.9375V69.625L67.4375 67.125L66.8125 62.75H69.3125V60.25Z" fill="#C0A584"/>
<path d="M74.9375 80.25H76.1875L77.4375 82.75L84.3125 82.125L85.5625 87.75H86.8125L87.4375 85.875L89.3125 88.375L89.9375 90.875L91.1875 92.125H78.0625L79.3125 90.875L73.0625 87.125V85.875L70.5625 84.625L68.6875 83.375L69.3125 82.125L72.4375 82.75V84L74.3125 83.375L74.9375 80.25Z" fill="#AEADA8"/>
<path d="M30.5625 32.75H43.0625L46.8125 35.25H48.6875L49.9375 40.25L51.1875 44L48.6875 42.75L48.0625 44.625L46.1875 44L47.4375 42.125L46.1875 42.75L45.5625 44L43.0625 43.375L44.3125 42.75L43.0625 41.5L45.5625 40.25L40.5625 36.5L33.0625 35.25H31.1875V40.875H30.5625V32.75Z" fill="#D8D0C1"/>
<path d="M13.6875 6.5L14.9375 7.125V12.125L16.8125 14.625L16.1875 16.5L7.4375 18.375H0.5625L1.1875 15.875L11.1875 10.25L13.6875 6.5Z" fill="#CEAB79"/>
<path d="M64.9375 64L68.0625 67.125L66.1875 69.625H64.9375V70.875L69.9375 69.625L71.1875 68.375L73.6875 69L73.0625 71.5L70.5625 72.125V73.375L73.6875 72.125L75.5625 69.625L76.8125 70.25V71.5H74.9375V72.75L78.6875 71.5V74H77.4375V75.25L80.5625 74L81.8125 75.875L81.1875 76.5H74.9375L64.9375 72.125L63.0625 70.875V69.625H64.3125L63.6875 65.875L64.9375 64Z" fill="#503425"/>
<path d="M101.812 105.25L104.312 106.5L108.688 109.625L116.812 110.875L111.812 107.75L115.562 105.875V107.125H119.938L121.812 106.5L121.188 109L121.812 110.875H120.562V112.125H118.062V113.375L108.062 112.75L105.562 110.875L103.062 109.625V107.125L101.812 106.5V105.25Z" fill="#D7D3C8"/>
<path d="M44.9375 74.625H47.4375V75.875L52.4375 75.25L53.0625 76.5L49.9375 79L47.4375 79.625L48.0625 81.5L44.9375 80.875L45.5625 79H41.1875V80.25H44.3125V82.125L45.5625 82.75L41.1875 82.125L34.9375 76.5L35.5625 75.25L37.4375 76.5L40.5625 75.875L44.9375 74.625Z" fill="#574D45"/>
<path d="M48.6875 66.5H51.8125L49.9375 69.625H48.0625V70.875L49.3125 71.5L47.4375 73.375H44.3125L43.6875 74.625L39.9375 74L39.3125 75.875L36.8125 74.625L37.4375 73.375L36.1875 72.75H43.0625L36.1875 71.5L35.5625 70.25L43.6875 67.75V69L48.0625 67.75L48.6875 66.5Z" fill="#978776"/>
<path d="M61.1875 56.5L63.0625 57.125L62.4375 60.25H61.1875V61.5H59.9375V60.25L57.4375 62.125H55.5625V63.375L58.0625 64L56.8125 65.875L54.3125 65.25L53.6875 64L52.4375 65.25H48.0625L48.6875 64L52.4375 62.75L53.0625 61.5L51.8125 60.875L52.4375 59L56.8125 58.375L57.4375 59.625L60.5625 57.75L61.1875 56.5Z" fill="#4A3427"/>
<path d="M66.1875 81.5H73.0625L74.3125 84H72.4375L71.8125 82.75L68.6875 83.375L71.1875 84.625L73.0625 85.875V87.125L76.1875 88.375L79.3125 90.25L83.0625 90.875V91.5H75.5625L72.4375 90.25L70.5625 86.5L66.1875 83.375V81.5Z" fill="#303431"/>
<path d="M62.4375 56.5L64.3125 57.125V58.375L68.0625 59.625L69.3125 60.25V62.75H66.8125L68.0625 64.625V66.5L66.1875 65.875L64.9375 64.625L61.8125 64L61.1875 63.375V60.25H62.4375V56.5Z" fill="#A98C6E"/>
<path d="M57.4375 91.5L60.5625 92.125L62.4375 93.375V99L63.6875 99.625H75.5625L76.1875 103.375L82.4375 104.625L80.5625 99.625L78.0625 96.5L80.5625 97.75L83.0625 101.5V105.25V107.125H81.1875L79.9375 106.5V105.25L74.9375 104.625V100.25L73.0625 100.875H63.0625L61.1875 99.625V94.625L57.4375 92.125V91.5Z" fill="#CCB48F"/>
<path d="M30.5625 60.25L36.1875 60.875V62.75L36.8125 61.5L41.1875 60.25V61.5L44.3125 62.75L41.8125 65.25L38.0625 65.875H31.8125V64.625H36.8125L41.1875 63.375L37.4375 62.75V64L31.8125 63.375L30.5625 64V61.5V60.25Z" fill="#BFB09E"/>
<path d="M103.062 105.25L114.312 106.5L112.438 107.75L118.062 110.875L116.188 111.5L108.688 110.25L103.062 105.875V105.25Z" fill="#3C3C3A"/>
<path d="M13.6875 6.5L14.9375 7.125V12.125L16.8125 14.625L16.1875 16.5L13.0625 17.125H8.6875L10.5625 15.25L11.8125 14.625L10.5625 11.5L13.6875 6.5Z" fill="#D0AD81"/>
<path d="M53.0625 49L53.6875 50.25L51.8125 51.5L52.4375 52.75H55.5625V54H53.6875L51.1875 56.5L50.5625 55.25L48.0625 57.75L47.4375 53.375L44.3125 52.75L46.8125 49.625L49.3125 50.25L48.0625 51.5H49.9375V50.25L53.0625 49Z" fill="#B7A591"/>
<path d="M31.1875 66.5L36.8125 67.125V68.375H38.0625L37.4375 70.25H35.5625V72.125L34.9375 72.75L34.3125 75.25L29.9375 72.75L31.8125 71.5L32.4375 69.625L29.9375 69L29.3125 67.125L31.1875 66.5Z" fill="#AA9886"/>
<path d="M54.3125 49.625L58.6875 53.375L60.5625 55.25L59.3125 57.75H58.0625L58.6875 55.25H57.4375V56.5L55.5625 57.75L53.6875 57.125L56.1875 55.25L53.6875 56.5L51.8125 55.875L53.6875 53.375L55.5625 54V52.75H52.4375L50.5625 51.5L54.3125 49.625Z" fill="#403C38"/>
<path d="M74.9375 69.625L76.8125 70.25V71.5H74.9375V72.75L78.6875 71.5V74H77.4375V75.25L80.5625 74L81.8125 75.875L81.1875 76.5H74.9375L71.1875 74.625V73.375L73.6875 72.125L74.9375 69.625Z" fill="#4E3223"/>
<path d="M71.1875 112.75H84.3125V113.375H93.0625V112.75H99.3125L100.562 114L97.4375 114.625H81.1875L70.5625 114L71.1875 112.75Z" fill="#E8E4D8"/>
<path d="M34.9375 75.25L37.4375 76.5L40.5625 75.875L46.1875 75.25L44.3125 77.125H41.1875V78.375L42.4375 79H41.1875V80.25H44.3125V82.125L45.5625 82.75L41.1875 82.125L34.9375 76.5V75.25Z" fill="#46362C"/>
<path d="M71.8125 62.125L80.5625 67.125L83.6875 69.625L87.4375 71.5L88.0625 72.75L85.5625 74V72.75H84.3125L82.4375 70.25L78.0625 69V67.75L74.9375 66.5L71.1875 63.375L71.8125 62.125Z" fill="#817C74"/>
<path d="M75.5625 67.125L78.0625 67.75V69L82.4375 69.625L81.8125 70.875L81.1875 71.5L83.0625 74L82.4375 75.875L79.9375 74.625L77.4375 75.25V74L78.6875 73.375L78.0625 72.125L74.9375 72.75V71.5H76.8125L75.5625 67.125Z" fill="#C9B291"/>
<path d="M48.6875 66.5H51.8125L49.9375 69.625H48.0625V70.875L43.6875 70.25V71.5H39.3125V69L43.6875 67.75V69L48.0625 67.75L48.6875 66.5Z" fill="#423932"/>
<path d="M71.8125 65.25L74.9375 65.875L76.1875 67.125L76.8125 70.25L74.9375 70.875L72.4375 73.375H70.5625V72.125L73.0625 70.875V69L70.5625 68.375V65.875L71.8125 65.25Z" fill="#C9AA81"/>
<path d="M83.0625 74.625L84.3125 75.875L81.8125 79.625L83.6875 81.5L82.4375 82.125L80.5625 80.875H76.1875L76.8125 78.375L77.4375 77.125L82.4375 75.25L83.0625 74.625Z" fill="#BAB5AB"/>
<path d="M114.938 105.875L115.562 107.125H119.938L121.812 106.5L121.188 109L121.812 110.875H120.562V112.125L118.688 111.5L119.312 109.625L117.438 110.25L113.688 109L111.812 107.125L114.938 105.875Z" fill="#DFDCD3"/>
<path d="M49.9375 44.625L52.4375 45.875L54.3125 48.375L53.6875 50.25H51.1875H49.9375V51.5L46.8125 52.125L48.6875 50.25V49L46.8125 48.375L48.6875 47.75L49.9375 48.375V46.5L47.4375 45.875H49.9375V44.625Z" fill="#706961"/>
<path d="M54.3125 73.375L56.1875 74L54.9375 74.625V75.875L56.8125 76.5V78.375L53.0625 77.75L50.5625 80.25L47.4375 79.625L46.8125 78.375H49.9375L52.4375 75.875L51.8125 74.625L54.3125 73.375Z" fill="#8F8477"/>
<path d="M58.6875 65.25H59.9375L59.3125 67.125L56.1875 68.375L54.3125 69L53.0625 72.125H51.8125L51.1875 74L48.0625 74.625L49.3125 72.125L51.1875 71.5L51.8125 68.375L54.9375 66.5L58.0625 65.875L58.6875 65.25Z" fill="#4B3326"/>
<path d="M53.6875 63.375L54.9375 65.25H56.8125L58.0625 64L58.6875 65.875L57.4375 67.125L53.0625 67.75L51.1875 71.5L48.0625 70.875V69.625L49.9375 69L53.6875 63.375Z" fill="#C4AD91"/>
<path d="M113.688 97.125L116.812 98.375L118.688 100.25L117.438 105.25H113.688L115.562 103.375V99H111.812L113.688 97.125Z" fill="#262A27"/>
<path d="M112.438 99H115.562L116.188 103.375L113.688 104.625L111.188 102.125L111.812 99.625L112.438 99Z" fill="#F0F0EE"/>
<path d="M44.9375 65.25H52.4375L51.8125 66.5H48.6875L47.4375 69H43.6875L44.3125 65.875L44.9375 65.25Z" fill="#8D7E6E"/>
<path d="M101.812 105.25L104.312 106.5L108.688 109.625L110.562 110.25L109.938 112.125L108.688 111.5L108.062 112.125L106.188 111.5L103.688 110.25L103.062 107.125L101.812 106.5V105.25Z" fill="#DAD4C4"/>
<path d="M53.0625 77.125L54.3125 77.75V79L55.5625 79.625L53.6875 80.25L53.0625 82.125L49.3125 83.375L46.8125 82.75L48.6875 81.5L46.8125 79.625H50.5625L53.0625 77.125Z" fill="#423831"/>
<path d="M41.8125 64.625L43.0625 65.25L42.4375 67.125L39.3125 67.75L38.6875 69.625L38.0625 68.375H36.8125V67.125H33.0625L33.6875 65.875L41.8125 64.625Z" fill="#423932"/>
<path d="M9.9375 10.875L11.1875 11.5L10.5625 12.75L11.8125 13.375V15.25L7.4375 16.5V14L5.5625 14.625V13.375L9.9375 10.875Z" fill="#EAC498"/>
<path d="M35.5625 70.875L43.6875 72.125L43.0625 73.375H37.4375L38.0625 76.5L35.5625 75.875L34.9375 72.75H33.6875L34.3125 71.5L35.5625 72.125V70.875Z" fill="#CDBEAB"/>
<path d="M51.8125 61.5H53.0625L51.8125 64L44.9375 65.875L43.0625 68.375L39.3125 69V67.125L42.4375 66.5L43.6875 64.625L51.1875 62.75L51.8125 61.5Z" fill="#C3B2A0"/>
<path d="M57.4375 55.25H58.6875L58.0625 57.75L61.1875 55.25L61.8125 56.5L59.3125 59L56.8125 60.875V58.375L51.8125 59L53.6875 57.75L57.4375 56.5V55.25Z" fill="#C5B59E"/>
<path d="M30.5625 60.25L36.1875 60.875V62.75L38.6875 62.125L37.4375 62.75V64L31.8125 63.375L30.5625 64V61.5V60.25Z" fill="#B6AB9F"/>
<path d="M66.1875 81.5H73.0625L74.3125 84H72.4375L71.8125 82.75L68.6875 83.375H69.9375L69.3125 85.25L66.1875 83.375V81.5Z" fill="#292825"/>
<path d="M61.1875 64.625L62.4375 65.25L63.6875 68.375L61.1875 69.625V70.875L57.4375 70.25L56.1875 69L60.5625 67.125L61.1875 64.625Z" fill="#4E3223"/>
<path d="M31.8125 62.75L37.4375 64V62.75H42.4375L40.5625 64.625L33.0625 65.25H31.1875L31.8125 62.75Z" fill="#3F3A36"/>
<path d="M41.1875 79H45.5625V80.875H48.6875V82.75L43.0625 83.375L44.3125 82.125V80.25H41.1875V79Z" fill="#C1AF97"/>
<path d="M38.0625 77.75H39.9375L41.1875 79.625L44.3125 80.25V82.125L45.5625 82.75L41.1875 82.125L37.4375 79L38.0625 77.75Z" fill="#423932"/>
<path d="M61.1875 63.375H63.6875L64.9375 65.25V67.125L64.3125 69.625H63.0625L62.4375 70.875L60.5625 69L63.0625 67.75L61.1875 64.625V63.375Z" fill="#CBAD89"/>
<path d="M48.6875 66.5H51.8125L49.9375 69.625H48.0625V70.875H44.9375L45.5625 69L48.0625 67.75L48.6875 66.5Z" fill="#403A35"/>
<path d="M63.6875 57.75L69.3125 60.25L68.6875 62.75L63.6875 60.875V57.75Z" fill="#4D3223"/>
<path d="M4.3125 14L5.5625 15.25L4.9375 17.75L0.5625 18.375L1.1875 15.875L4.3125 14Z" fill="#E5C196"/>
<path d="M83.6875 75.875L85.5625 77.125L84.9375 79L83.6875 79.625L86.1875 80.875L84.3125 81.5L81.1875 80.25L83.0625 76.5L83.6875 75.875Z" fill="#232320"/>
<path d="M36.1875 72.75H44.3125L43.6875 74.625L39.9375 74L39.3125 75.875L36.8125 74.625L37.4375 73.375L36.1875 72.75Z" fill="#47362B"/>
<path d="M71.8125 62.125L78.6875 66.5L78.0625 67.75L74.9375 66.5L71.1875 63.375L71.8125 62.125Z" fill="#3F3A35"/>
<path d="M32.4375 70.875H35.5625V72.125L34.9375 72.75L34.3125 75.25L29.9375 72.75L32.4375 70.875Z" fill="#625E58"/>
<path d="M52.4375 52.75H55.5625V54H53.6875L51.1875 56.5L50.5625 55.25L48.0625 57.75L47.4375 55.25L52.4375 52.75Z" fill="#B8ACA0"/>
<path d="M36.1875 53.375L38.0625 55.25L40.5625 55.875L41.1875 53.375L43.0625 54L41.1875 57.125L36.8125 56.5L35.5625 54L36.1875 53.375Z" fill="#C4B6AB"/>
<path d="M93.0625 112.75H99.3125L100.562 114L94.3125 114.625L93.0625 112.75Z" fill="#E6E4DB"/>
</svg>
