<svg width="128" height="113" viewBox="0 0 128 113" fill="none" xmlns="http://www.w3.org/2000/svg">
<path d="M22.3125 0.625L28.5625 1.25L31.6875 1.875V3.125L34.8125 3.75L39.1875 6.875L43.5625 13.75L44.8125 17.5L46.6875 39.375L48.5625 43.125L51.0625 44.375H59.8125L61.0625 46.25L69.1875 49.375L77.3125 53.75L84.8125 58.75L91.6875 63.75L104.188 68.75L112.938 71.25V71.875L106.688 73.125L111.062 75.625V76.875H109.812V78.125L116.688 77.5L120.438 79.375L121.062 80.625V85.625L120.438 87.5L123.562 85L124.812 85.625L126.688 86.25L126.062 88.75L125.438 90L127.312 91.875L125.438 92.5H116.062L104.812 98.75L94.8125 103.125L89.8125 104.375H81.0625L69.1875 101.875L66.6875 101.25L64.1875 109.375L61.0625 111.25L52.3125 112.5H46.0625L44.8125 108.125L44.1875 106.25L45.4375 105.625H54.8125L59.1875 106.25L60.4375 103.125L62.3125 97.5L56.6875 95.625L43.5625 88.75L33.5625 81.875L26.6875 73.125L24.1875 68.125L23.5625 66.25V53.125L26.0625 42.5L27.3125 33.75V22.5L25.4375 19.375L21.0625 16.875H11.0625L5.4375 18.125L0.4375 17.5L1.0625 15L6.0625 11.875L11.0625 9.375L14.8125 6.25L15.4375 5H17.3125L18.5625 2.5L22.3125 0.625Z" fill="#E3E2DC"/>
<path d="M62.9375 98.125L65.4375 98.75L66.6875 99.375L66.0625 102.5L64.1875 109.375L61.0625 111.25L52.3125 112.5H46.0625L44.8125 108.125L44.1875 106.25L45.4375 105.625H54.8125L59.1875 106.25L60.4375 103.125L62.9375 98.125Z" fill="#D4985B"/>
<path d="M102.938 73.125L106.062 74.375L109.812 77.5L112.312 81.25L114.812 84.375V86.25H112.938L111.062 82.5L109.188 83.125L109.812 86.25L107.938 87.5L112.312 90L110.438 90.625L107.312 88.75L106.062 89.375L101.688 86.875V86.25L105.438 85L104.812 81.25L99.8125 78.75L94.1875 77.5L92.9375 75.625H97.3125V74.375L102.938 73.125Z" fill="#2E2D2B"/>
<path d="M47.9375 48.125H52.9375L52.3125 50.625L54.1875 52.5H52.3125L51.6875 55L50.4375 56.875H49.1875V59.375H43.5625L41.0625 60L39.8125 56.875L40.4375 55L38.5625 51.875L46.0625 49.375L47.9375 48.125Z" fill="#2E2D2A"/>
<path d="M22.3125 0.625L28.5625 1.25L31.0625 2.5L33.5625 5L36.6875 6.25L35.4375 8.125L31.0625 7.5L31.6875 8.75H25.4375L19.8125 8.125V9.375H17.9375L17.3125 8.125V3.75L20.4375 1.25L22.3125 0.625Z" fill="#C3C2BC"/>
<path d="M16.0625 5.625L16.6875 7.5L16.0625 10L19.1875 13.75L17.3125 15.625L7.3125 17.5L2.3125 18.125L0.4375 17.5L1.0625 15L6.0625 11.875L11.0625 9.375L16.0625 5.625Z" fill="#D49757"/>
<path d="M45.4375 105.625H54.8125V106.875H47.9375L52.9375 107.5V108.75L47.3125 110.625L49.8125 111.25H52.9375L52.3125 112.5H46.0625L44.8125 108.125L44.1875 106.25L45.4375 105.625Z" fill="#C9A88F"/>
<path d="M77.9375 60.625L84.1875 62.5L89.1875 63.75L87.9375 65.625H86.0625L86.6875 66.875L82.3125 66.25L78.5625 63.75L79.8125 62.5L77.9375 60.625Z" fill="#2D2D2A"/>
<path d="M55.4375 50.625H60.4375L64.8125 52.5V54.375L61.6875 53.75L59.1875 51.875L58.5625 52.5L60.4375 54.375V55.625H59.1875L58.5625 56.875L54.8125 52.5L55.4375 50.625Z" fill="#2D2F2D"/>
<path d="M36.6875 7.5L39.8125 8.125L41.6875 10.625L40.4375 13.125L36.6875 13.75L34.8125 10.625V9.375H36.6875V7.5Z" fill="#1D211F"/>
<path d="M69.8125 60.625L74.1875 61.25L78.5625 64.375V65.625L81.0625 66.875L79.1875 67.5L72.9375 64.375L69.8125 60.625Z" fill="#292926"/>
<path d="M70.4375 50.625L74.1875 51.875L84.8125 58.75L85.4375 60L82.3125 58.75L76.0625 55L69.8125 51.875L70.4375 50.625Z" fill="#292A27"/>
<path d="M54.1875 46.875L64.1875 47.5L65.4375 48.75L62.3125 49.375L61.6875 50.625L55.4375 48.75L54.1875 46.875Z" fill="#282A28"/>
<path d="M24.8125 0.625L30.4375 1.875L31.0625 4.375L26.0625 5L24.8125 2.5H23.5625V1.25L24.8125 0.625Z" fill="#1F2320"/>
<path d="M19.8125 6.25H24.8125L26.6875 6.875L27.9375 6.25L31.6875 8.125L29.1875 8.75L19.8125 8.125V6.25Z" fill="#292E2B"/>
<path d="M58.5625 90H64.8125L68.5625 90.625V91.875L67.3125 92.5H62.3125L58.5625 90.625V90Z" fill="#3F2B23"/>
<path d="M56.0625 44.375H59.8125L61.0625 46.25L63.5625 47.5L53.5625 46.875L54.8125 46.25V45L56.0625 44.375Z" fill="#B3B2AE"/>
<path d="M112.938 78.75L116.062 79.375L116.688 80V83.125L114.188 84.375L112.938 82.5L113.562 80.625L112.938 78.75Z" fill="#F6F6F5"/>
<path d="M28.5625 5H33.5625L36.6875 6.25L35.4375 8.125L29.1875 6.25L28.5625 5Z" fill="#202523"/>
<path d="M31.0625 3.75L32.3125 5L29.1875 5.625L30.4375 6.875L29.1875 7.5L27.3125 6.875L26.0625 7.5L24.1875 5.625L24.8125 4.375L31.0625 3.75Z" fill="#D1D0CA"/>
<path d="M109.812 79.375L113.562 82.5L114.812 84.375V86.25H112.938L111.062 82.5L109.188 81.25L109.812 79.375Z" fill="#1E211F"/>
<path d="M87.3125 75H89.8125L89.1875 78.125L82.3125 76.875L84.8125 75.625L87.3125 75Z" fill="#2A2B29"/>
<path d="M59.8125 51.25L64.1875 51.875L64.8125 54.375L61.6875 53.75L59.8125 51.25Z" fill="#272724"/>
</svg>
