<svg width="50" height="143" viewBox="0 0 50 143" fill="none" xmlns="http://www.w3.org/2000/svg">
<path d="M32.0625 0.75H36.4375L41.4375 5.125L42.0625 5.75V10.125L38.3125 15.75L37.6875 16.375L37.0625 21.375V43.875L38.3125 57L38.9375 73.25L42.0625 84.5L46.4375 103.875L49.5625 117.625L48.9375 120.125V118.875H47.6875V120.75L45.1875 120.125L43.9375 124.5L40.1875 128.25L41.4375 129.5L40.8125 133.875L40.1875 137H38.9375L38.3125 138.875L33.3125 140.125L28.3125 142.625H20.1875V140.125L16.4375 139.5V137.625L18.9375 136.375H20.8125V135.125H30.1875L30.8125 134.5V128.875L26.4375 125.125L22.0625 117.625L18.3125 107L14.5625 92L13.3125 84.5V72L15.8125 65.75L23.3125 55.125L26.4375 47L28.3125 38.875V27L25.8125 20.125L22.6875 17L20.8125 16.375L4.5625 15.75L0.8125 14.5L2.6875 12.625L8.9375 10.125L16.4375 6.375L21.4375 4.5H28.9375L30.1875 5.125L30.8125 1.375L32.0625 0.75Z" fill="#EBE4D1"/>
<path d="M35.8125 120.75H37.0625L35.8125 137.625L32.6875 140.75L28.3125 142.625H20.1875V140.125L16.4375 139.5V137.625L18.9375 136.375H20.8125V135.125H30.1875L32.0625 134.5L32.6875 123.875L33.9375 121.375L35.8125 120.75Z" fill="#D6934E"/>
<path d="M16.4375 6.375L18.3125 7L17.6875 12L18.9375 13.25V15.125L10.8125 15.75H4.5625L0.8125 14.5L2.6875 12.625L8.9375 10.125L16.4375 6.375Z" fill="#D6944F"/>
<path d="M37.6875 129.5H38.9375V130.75H40.1875V129.5H41.4375L40.8125 133.875L40.1875 137H38.9375L38.3125 138.875H34.5625L36.4375 138.25V131.375L37.6875 129.5Z" fill="#ECE6D8"/>
</svg>
