<svg width="1441" height="1167" viewBox="0 0 1441 1167" fill="none" xmlns="http://www.w3.org/2000/svg">
<g clip-path="url(#clip0_55_309)">
<path d="M0 209H1440V1167H0V209Z" fill="#5338BA"/>
<path d="M0 209H1144.8L1145.7 540.027L1150.2 562.515L1155.6 576.908V579.607L1116 584.104L1078.2 589.501L1024.2 597.597L975.6 606.592L919.8 618.286L871.2 629.98L821.7 643.473L779.4 656.067L721.8 674.957L688.5 687.55L682.2 688.45L667.8 683.053L628.2 669.56L604.8 662.363L585 656.966L567.9 652.469L544.5 646.172L529.2 642.574L522.9 629.081L516.6 620.985L508.5 614.688L500.4 611.09L491.4 609.291H484.2L475.2 611.09L467.1 614.688L459 620.085L453.6 626.382L431.1 621.885L397.8 616.487L366.3 611.09L342 607.492L320.4 604.793L258.3 597.597L235.8 595.798L237.6 591.3L241.2 583.205L242.1 579.607V564.315L237.6 553.52L229.5 544.525L221.4 540.027L215.1 538.228L198.9 537.329L198 519.338L194.4 504.046L189.9 493.252L183.6 483.357L178.2 477.06L166.5 468.964L157.5 464.467L144.9 460.869L138.6 459.969H126L111.6 463.567L97.2 470.763L85.5 480.658L80.1 486.955L67.5 487.854L60.3 491.453L55.8 495.051L51.3 503.146L50.4 504.946V514.84L53.1 522.936L57.6 528.333L63.9 532.831L68.4 534.63V584.104L0 583.205V209Z" fill="#AD8FDE"/>
<path d="M1206.9 631.779L1212.3 633.578L1227.6 638.976L1233 665.062L1237.5 675.856L1243.8 686.651L1249.2 692.947L1260.9 701.043L1271.7 706.44L1275.3 707.34V643.473L1276.2 642.574H1356.3L1367.1 643.473V665.062L1381.5 660.564L1390.5 655.167L1395.9 648.87L1400.4 641.674L1420.2 637.176H1422.9L1422 643.473L1419.3 650.669L1413.9 661.464L1405.8 670.459L1396.8 677.655L1379.7 684.852L1367.1 686.651V805.389H1440V1167H0V1032.97L0.9 987.993L3.6 986.194L38.7 978.998H40.5L41.4 977.199L45.9 984.395V987.094H47.7L50.4 991.591L55.8 996.089L64.8 998.788L75.6 997.888L84.6 994.29L92.7 987.993L97.2 981.697L99 976.299L99.9 965.505L128.7 960.108H131.4L132.3 957.409H134.1L135.9 968.204L140.4 979.898L148.5 988.893L157.5 995.19L166.5 997.888H180.9L192.6 993.391L200.7 987.094L207 978.998L210.6 971.802L211.5 967.304V951.113L209.7 946.615V943.017L225.9 940.318L287.1 928.624L332.1 919.629L339.3 918.73L340.2 922.328L349.2 924.127L343.8 931.323V934.022H351L350.1 943.916H353.7V942.117L357.3 940.318H360.9V948.414L364.5 947.514L368.1 943.916H369.9L372.6 949.314L376.2 948.414L378 942.117L381.6 943.916L384.3 946.615L387 947.514V938.519L396 939.419L395.1 934.921L393.3 930.423L402.3 929.524L403.2 925.926L399.6 924.127L396.9 921.428L403.2 917.83V914.232L397.8 913.332L396 912.433L397.8 907.935L430.2 902.538L477 894.442L558.9 880.949L616.5 871.954L671.4 863.858L754.2 852.164L828.9 843.169L898.2 835.073L993.6 825.178L1044 820.681L1119.6 814.384L1190.7 809.886L1262.7 807.188H1275.3L1274.4 729.828L1262.7 726.23L1248.3 719.034L1239.3 712.737L1230.3 704.641L1222.2 693.847L1215.9 682.153L1210.5 665.961L1208.7 657.866L1206.9 643.473V631.779Z" fill="#281470"/>
<path d="M1144.8 175.5C1144.8 70.5659 1229.87 -14.5 1334.8 -14.5H1440V805.389H1367.1V686.651L1381.5 683.053L1396.8 676.756L1405.8 669.56L1413 661.464L1419.3 649.77L1422.9 637.177L1404 641.674H1400.4L1398.6 646.172L1392.3 654.268L1385.1 659.665L1374.3 664.162L1367.1 665.062V643.473H1276.2L1275.3 707.34L1269 706.44L1256.4 699.244L1246.5 691.148L1241.1 683.952L1233.9 670.459L1230.3 656.966L1227.6 642.574V638.976L1219.5 637.177L1208.7 632.679L1206.9 631.779L1209.6 657.866L1213.2 671.359L1217.7 683.952L1223.1 693.847L1229.4 701.943L1236.6 710.039L1248.3 718.134L1258.2 723.531L1274.4 728.929L1275.3 729.828V762.211L1259.1 761.312L1200.6 755.015L1118.7 747.819L1055.7 743.321L1014.3 740.623V729.828L1015.2 712.737L1024.2 710.039L1035.9 703.742L1043.1 696.546L1044 694.746H1045.8L1046.7 691.148L1050.3 683.053L1051.2 678.555V663.263L1046.7 651.569L1039.5 641.674L1030.5 635.377L1021.5 631.779L1017 630.88H1002.6L990 635.377L981.9 641.674L975.6 648.87L971.1 658.765L969.3 665.962V674.957L972 687.55L976.5 695.646L981 701.043L982.8 701.943V703.742L987.3 705.541L993.6 709.139L998.1 710.938L1007.1 712.737V739.723H992.7L973.8 738.823L967.5 730.728L957.6 724.431L950.4 722.632H940.5L927.9 725.331L919.8 728.029L916.2 720.833L911.7 717.235H905.4L897.3 720.833H894.6L891 713.637L886.5 710.039L883.8 709.139H873L867.6 712.737L864 717.235L862.2 723.531L850.5 724.431L841.5 728.929L837 734.326H804.6L786.6 733.426L772.2 726.23L745.2 713.637L722.7 703.742L716.4 701.043L710.1 701.943L702.9 703.742L700.2 704.641L649.8 710.039L640.8 710.938L597.6 712.737H586.8L580.5 713.637V711.838L576 712.737L571.5 711.838V713.637H562.5L553.5 714.536L543.6 715.436H532.8L527.4 713.637L519.3 712.737L491.4 711.838V692.947L499.5 690.249L508.5 685.751L516.6 679.454L522 673.158L526.5 663.263L528.3 658.765L529.2 644.373V642.574H534.6L575.1 653.368L599.4 659.665L624.6 667.761L663.3 680.354L680.4 686.651L686.7 687.55L704.7 680.354L729.9 671.359L782.1 654.268L834.3 638.976L889.2 624.583L932.4 614.688L989.1 602.994L1035.9 594.899L1089.9 586.803L1124.1 582.305L1148.4 579.607H1155.6L1149.3 562.516L1146.6 549.922L1144.8 540.027V175.5Z" fill="#422D95"/>
<path d="M864 354.724H876.6L896.4 357.423L916.2 362.82L934.2 370.016L952.2 379.911L961.2 387.107L963.9 388.906V390.705L966.6 391.605V393.404L968.4 394.303L976.5 403.299L980.1 408.696L986.4 417.691L995.4 436.581L1000.8 456.371L1004.4 474.362V480.658L1026.9 477.06H1044L1057.5 481.558L1069.2 488.754L1077.3 497.749L1083.6 508.544L1086.3 514.841V522.037H1088.1V519.338H1089.9L1090.8 514.841L1102.5 490.553L1109.7 479.759L1113.3 475.261L1120.5 468.964L1125 466.266H1134L1136.7 464.467L1140.3 454.572L1143.9 451.873L1144.8 518.439L1145.7 540.027L1150.2 562.516L1155.6 576.908V579.607L1116 584.104L1078.2 589.502L1024.2 597.597L975.6 606.593L919.8 618.287L871.2 629.98L821.7 643.473L779.4 656.067L721.8 674.957L688.5 687.55L682.2 688.45L667.8 683.053L628.2 669.56L604.8 662.364L585 656.966L567.9 652.469L544.5 646.172L529.2 642.574L522.9 629.081L516.6 620.985L508.5 614.688L500.4 611.09L491.4 609.291H484.2L475.2 611.09L467.1 614.688L459 620.086L453.6 626.382L431.1 621.885L397.8 616.488L366.3 611.09L342 607.492L320.4 604.794L258.3 597.597L235.8 595.798L237.6 591.301L241.2 583.205L242.1 579.607V564.315L237.6 553.52L229.5 544.525L221.4 540.027L215.1 538.228L198.9 537.329L198 519.338L194.4 504.046L189.9 493.252L183.6 483.357L178.2 477.06L166.5 468.964L161.1 465.366L162.9 464.467L167.4 463.567L173.7 458.17L189 450.074L216 441.079L231.3 438.38H243.9L258.3 440.18L271.8 443.778L288.9 450.074L297.9 455.472L303.3 458.17V459.969H305.1V461.768L308.7 463.567L316.8 471.663V473.462L319.5 474.362V476.161H321.3L328.5 487.855L333 496.85L338.4 513.941L343.8 535.53L348.3 533.731L358.2 526.534L370.8 519.338L382.5 514.841L392.4 513.041L411.3 512.142L425.7 513.941L439.2 519.338L441.9 520.238V522.037L445.5 523.836L455.4 530.133L463.5 538.228L469.8 546.324L475.2 554.42L477.9 559.817L479.7 576.908L478.8 595.798L490.5 593.999H513.9L525.6 600.296L535.5 609.291L539.1 615.588H541.8L542.7 602.095L549.9 570.611L557.1 556.219L564.3 545.425L576 531.032L582.3 524.735L593.1 516.64L607.5 508.544L620.1 503.147L637.2 497.749L658.8 493.252L675.9 491.453L710.1 490.553H719.1L728.1 459.07L734.4 440.18L741.6 425.787L750.6 413.194L760.5 402.399L769.5 393.404L781.2 384.409L793.8 376.313L808.2 369.117L825.3 362.82L846.9 357.423L864 354.724Z" fill="#B29FDB"/>
<path d="M1155.6 578.707L1158.3 582.305L1165.5 594.899L1173.6 604.793L1184.4 615.588L1197.9 625.483L1206.9 630.88L1208.7 648.87L1210.5 662.363L1215 677.655L1222.2 692.048L1228.5 701.043L1236.6 710.038L1248.3 718.134L1258.2 723.531L1274.4 728.929L1275.3 729.828V762.211L1259.1 761.312L1200.6 755.015L1118.7 747.819L1055.7 743.321L1014.3 740.623V729.828L1015.2 712.737L1024.2 710.038L1035.9 703.742L1043.1 696.546L1044 694.746H1045.8L1046.7 691.148L1050.3 683.053L1051.2 678.555V663.263L1046.7 651.569L1039.5 641.674L1030.5 635.377L1021.5 631.779L1017 630.88H1002.6L990 635.377L981.9 641.674L975.6 648.87L971.1 658.765L969.3 665.961V674.957L972 687.55L976.5 695.646L981 701.043L982.8 701.943V703.742L987.3 705.541L993.6 709.139L998.1 710.938L1007.1 712.737V739.723H992.7L973.8 738.823L967.5 730.728L957.6 724.431L950.4 722.632H940.5L927.9 725.331L919.8 728.029L916.2 720.833L911.7 717.235H905.4L897.3 720.833H894.6L891 713.637L886.5 710.038L883.8 709.139H873L867.6 712.737L864 717.235L862.2 723.531L850.5 724.431L841.5 728.929L837 734.326H804.6L786.6 733.426L772.2 726.23L745.2 713.637L722.7 703.742L716.4 701.043L710.1 701.943L702.9 703.742L700.2 704.641L649.8 710.038L640.8 710.938L597.6 712.737H586.8L580.5 713.637V711.838L576 712.737L571.5 711.838V713.637H562.5L553.5 714.536L543.6 715.436H532.8L527.4 713.637L519.3 712.737L491.4 711.838V692.947L499.5 690.249L508.5 685.751L516.6 679.454L522 673.158L526.5 663.263L528.3 658.765L529.2 644.373V642.574H534.6L575.1 653.368L599.4 659.665L624.6 667.761L663.3 680.354L680.4 686.651L686.7 687.55L704.7 680.354L729.9 671.359L782.1 654.268L834.3 638.976L889.2 624.583L932.4 614.688L989.1 602.994L1035.9 594.899L1089.9 586.803L1124.1 582.305L1155.6 578.707Z" fill="#8E70EE"/>
<path d="M756 515.74H767.7L783 519.338L797.4 526.534L809.1 536.429L815.4 546.324L819 541.826L829.8 530.132L837.9 523.836L851.4 518.439L862.2 515.74H868.5L883.8 520.238L898.2 527.434L906.3 533.731L912.6 540.927L918.9 553.52L919.8 556.219L920.7 569.712L945 558.018L963.9 550.822L990.9 544.525L1010.7 541.826H1025.1L1044.9 545.424L1062 549.922L1076.4 555.319L1091.7 563.415L1103.4 572.41L1113.3 581.406L1110.6 584.104H1103.4V585.903L1041.3 594.899L999 602.095L940.5 613.789L900.9 622.784L857.7 633.578L821.7 643.473L779.4 656.067L721.8 674.957L688.5 687.55L682.2 688.45L667.8 683.053L628.2 669.56L616.5 665.962L615.6 664.163L623.7 639.875L630 628.181L636.3 620.086L644.4 611.09L654.3 603.894L666 598.497L681.3 593.999L685.8 593.1V571.511L689.4 559.817L693.9 551.721L703.8 540.027L713.7 531.032L724.5 524.735L746.1 517.539L756 515.74Z" fill="#BEC1D2"/>
<path d="M126 459.069H138.6L152.1 461.768L163.8 466.266L174.6 473.462L181.8 479.759L189.9 491.452L194.4 501.347L198 514.84L198.9 519.338V537.328H215.1L225 540.927L232.2 546.324L238.5 553.52L243 564.314V579.606L239.4 589.501L233.1 598.497L225 603.894L216.9 607.492L212.4 608.391H200.7L198.9 607.492V668.66L194.4 686.651L188.1 698.344L180.9 707.34L170.1 716.335L155.7 723.531L144.9 727.129H143.1V810.786L142.2 811.685H125.1L124.2 807.188L125.1 727.129L116.1 725.33L101.7 719.034L90 710.938L81.9 702.842L74.7 690.249L72 683.952L69.3 673.158L68.4 659.665L67.5 585.004L68.4 534.63L63 532.831L54.9 526.534L50.4 519.338L49.5 514.84V504.945L53.1 497.749L57.6 492.352L64.8 487.854L67.5 486.955L80.1 486.055L89.1 476.16L99 468.964L111.6 462.667L126 459.069Z" fill="#3D2298"/>
<path d="M834.3 638.975H838.8V640.775L860.4 648.87L892.8 659.665L916.2 666.861L949.5 675.856L959.4 678.555H967.5L969.3 674.957L972 687.55L976.5 695.646L981 701.043L982.8 701.943V703.742L987.3 705.541L993.6 709.139L998.1 710.938L1007.1 712.737V739.723H992.7L973.8 738.823L967.5 730.728L957.6 724.431L950.4 722.632H940.5L927.9 725.33L919.8 728.029L916.2 720.833L911.7 717.235H905.4L897.3 720.833H894.6L891 713.636L886.5 710.038L883.8 709.139H873L867.6 712.737L864 717.235L862.2 723.531L850.5 724.431L841.5 728.929L837 734.326H804.6L786.6 733.426L772.2 726.23L745.2 713.636L722.7 703.742L716.4 701.043L710.1 701.943L702.9 703.742L700.2 704.641L649.8 710.038L640.8 710.938L597.6 712.737H586.8L580.5 713.636V711.837L576 712.737L571.5 711.837V713.636H562.5L553.5 714.536L543.6 715.436H532.8L527.4 713.636L519.3 712.737L491.4 711.837V692.947L499.5 690.249L508.5 685.751L516.6 679.454L522 673.158L526.5 663.263L528.3 658.765L529.2 644.373V642.574H534.6L575.1 653.368L599.4 659.665L624.6 667.76L663.3 680.354L680.4 686.651L686.7 687.55L704.7 680.354L729.9 671.359L782.1 654.267L834.3 638.975Z" fill="#805EE2"/>
<path d="M234.9 594.899L266.4 597.597L320.4 603.894L352.8 608.392L382.5 612.889L415.8 618.286L431.1 620.985L450 624.583L451.8 628.181L447.3 639.875L446.4 644.373V656.067L449.1 665.961L452.7 673.158L457.2 679.454L461.7 682.153V683.952H464.4V685.751L469.8 687.55L482.4 692.048L483.3 692.947V709.139L470.7 708.239L421.2 701.943L411.3 700.144L407.7 703.742L401.4 704.641L403.2 700.144L407.7 689.349L409.5 683.952V670.459L405.9 659.665L397.8 647.971L387.9 641.674L379.8 638.076L370.8 636.277L359.1 637.176L347.4 641.674L338.4 648.87L332.1 657.866L327.6 668.66L326.7 681.253V687.55L293.4 683.053L283.5 682.153H236.7L204.3 684.852L201.6 686.651L195.3 685.751L196.2 676.756L198 668.66L198.9 607.492H212.4L221.4 604.793L229.5 600.296L234 596.698L234.9 594.899Z" fill="#7153DC"/>
<path d="M1439.1 629.081H1440V805.389H1367.1V686.651L1381.5 683.053L1396.8 676.756L1405.8 669.56L1413 661.464L1419.3 649.77L1423.8 636.277L1436.4 629.98L1439.1 629.081Z" fill="#805EE2"/>
<path d="M1042.2 697.445L1064.7 700.144L1106.1 707.34L1136.7 711.837L1160.1 714.536L1211.4 719.034L1247.4 720.833L1251.9 719.933L1258.2 723.531L1274.4 728.929L1275.3 729.828V762.211L1259.1 761.312L1200.6 755.015L1118.7 747.819L1055.7 743.321L1014.3 740.622V729.828L1015.2 712.737L1024.2 710.038L1035.9 703.742L1042.2 697.445Z" fill="#805EE2"/>
<path d="M529.2 642.574H534.6L575.1 653.368L599.4 659.665L624.6 667.761L663.3 680.354L680.4 686.651L687.6 689.349L703.8 695.646L714.6 699.244L712.8 701.043L702.9 703.742L700.2 704.641L649.8 710.039L640.8 710.938L597.6 712.737H586.8L580.5 713.637V711.838L576 712.737L571.5 711.838V713.637H562.5L553.5 714.536L543.6 715.436H532.8L527.4 713.637L519.3 712.737L491.4 711.838V692.948L499.5 690.249L508.5 685.751L516.6 679.455L522 673.158L526.5 663.263L528.3 658.765L529.2 644.373V642.574Z" fill="#7052DB"/>
<path d="M236.7 505.845H259.2L274.5 509.443L285.3 513.941L297 520.237L306 527.434L313.2 534.63L320.4 547.223L324 556.219L325.8 573.31V593.999L324.9 601.195L321.3 603.894H313.2L248.4 596.698L235.8 595.798L237.6 591.3L241.2 583.205L242.1 579.606V564.314L237.6 553.52L229.5 544.525L221.4 540.027L215.1 538.228L198.9 537.329V522.936L210.6 514.84L219.6 510.343L232.2 506.745L236.7 505.845Z" fill="#BEC1D2"/>
<path d="M977.4 238.684H991.8L999.9 242.282L1007.1 248.579L1009.8 253.976L1010.7 258.474V268.369L1008.9 275.565L1025.1 271.067L1030.5 270.168H1049.4L1059.3 273.766L1069.2 280.063L1078.2 289.058L1081.8 295.355L1080.9 296.254H875.7L881.1 289.058L890.1 280.962L900.9 274.666L913.5 271.067H923.4L936 275.565L943.2 262.972L949.5 254.876L957.6 247.68L968.4 241.383L977.4 238.684Z" fill="#BFC2D2"/>
<path d="M484.2 608.391H491.4L503.1 611.09L513.9 617.387L520.2 623.683L525.6 632.679L530.1 644.373L529.2 658.765L524.7 669.56L519.3 677.655L511.2 684.852L502.2 690.249L492.3 692.947L490.5 740.622H483.3L482.4 692.947L469.8 688.45L464.4 685.751V683.952H461.7L454.5 676.756L449.1 668.66L446.4 660.564L445.5 656.067V644.373L449.1 632.679L450.9 627.282L449.1 625.483H453.6L459.9 618.286L469.8 611.99L477.9 609.291L484.2 608.391Z" fill="#3E2399"/>
<path d="M364.5 635.377L376.2 636.277L386.1 639.875L395.1 645.272L399.6 648.87L406.8 659.665L410.4 670.459V683.952L405 698.345L399.6 705.541L392.4 711.838L379.8 718.134L372.6 719.034L371.7 746.919L370.8 747.819H364.5L363.6 719.933L353.7 717.235L342 710.038L335.7 704.641L330.3 695.646L325.8 681.253L326.7 668.66L331.2 657.866L337.5 648.87L344.7 642.574L353.7 638.076L364.5 635.377Z" fill="#3E2399"/>
<path d="M1002.6 629.98H1017L1028.7 633.578L1038.6 639.875L1044.9 647.071L1050.3 657.866L1052.1 663.263V678.555L1048.5 690.249L1045.8 694.746H1044L1042.2 698.345L1035.9 704.641L1024.2 710.938L1019.7 712.737H1015.2V729.828L1014.3 740.622H1007.1V712.737L998.1 711.838L987.3 706.44L982.8 703.742V701.943L979.2 700.144L973.8 692.947L970.2 684.852L968.4 674.957V665.961L972 654.268L977.4 645.272L984.6 638.076L991.8 633.578L1002.6 629.98Z" fill="#3E2399"/>
<path d="M167.4 920.529H180L190.8 924.127L199.8 930.424L207 938.519L212.4 951.113V967.304L209.7 975.4L204.3 984.395L198 990.692L189 996.089L180.9 998.788H166.5L157.5 996.089L148.5 989.793L141.3 982.596L136.8 973.601L134.1 965.505V954.711L137.7 943.017L144 933.122L151.2 926.825L162.9 921.428L167.4 920.529Z" fill="#AA8CDF"/>
<path d="M49.5 501.347L50.4 504.946V514.84L53.1 522.936L57.6 528.333L63.9 532.831L68.4 534.63V584.104L0 583.205V513.941L22.5 509.443L39.6 506.745H48.6L49.5 501.347Z" fill="#B29FDB"/>
<path d="M0 583.205H53.1L68.4 584.104L67.5 642.574L34.2 651.569L1.8 659.665L0 663.263V583.205Z" fill="#7153DC"/>
<path d="M198 519.338H198.9V537.329H215.1L225 540.927L232.2 546.324L238.5 553.52L243 564.315V579.607L239.4 589.502L233.1 598.497L225 603.894L216.9 607.492L212.4 608.392H200.7L198.9 607.492V668.66H198V607.492H196.2V605.693L192.6 604.794L181.8 598.497L174.6 588.602L171.9 582.305V565.214L175.5 555.319L181.8 547.224L189.9 540.927L195.3 538.228H198V519.338Z" fill="#5439BA"/>
<path d="M1439.1 629.081H1440V717.235L1414.8 719.034L1370.7 721.732L1368 720.833V686.651L1381.5 683.053L1396.8 676.756L1405.8 669.56L1413 661.464L1419.3 649.77L1423.8 636.277L1436.4 629.98L1439.1 629.081Z" fill="#8E70EE"/>
<path d="M0.89978 719.933H8.09978L18.8998 722.632L27.8998 727.129L34.1998 734.326L38.6998 742.421L39.5998 747.819L44.0998 746.02H53.9998L61.1998 751.417L67.4998 759.513V762.211H70.1998V760.412L85.4998 755.015H93.5998L101.7 758.613L108.9 764.91L111.6 769.407V772.106L89.0998 774.805L54.8998 779.302L5.39978 786.498H0.89978V719.933Z" fill="#3E2399"/>
<path d="M369 886.346L373.5 889.045L374.4 893.543L377.1 890.844H378.9V889.045L383.4 889.945L384.3 896.241L387.9 894.442H393.3L394.2 898.94L392.4 900.739L396.9 901.638L399.6 902.538V907.935H397.8L396 912.433L403.2 914.232L404.1 917.83L399.6 920.529L397.8 922.328L403.2 925.926L402.3 930.423H393.3L396.9 935.821L396 940.318L390.6 939.419L387 938.519L387.9 944.816L387 947.515L383.4 946.615V944.816L378 942.117L377.1 948.414L372.6 950.213L369.9 945.715V943.916L366.3 945.715L364.5 948.414H360.9L360 942.117L360.9 940.318L356.4 942.117H353.7V943.916H350.1V937.62L351 934.022L343.8 934.921L342.9 931.323L348.3 925.026L340.2 922.328L339.3 918.73L342.9 916.031L345.6 914.232L340.2 910.634L341.1 907.036L350.1 906.136L346.5 899.839L348.3 896.241L354.6 897.141L356.4 898.04L354.6 892.643L356.4 889.945L360.9 890.844L363.6 893.543H366.3L368.1 887.246L369 886.346Z" fill="#6730C4"/>
<path d="M194.4 606.593L198 607.492V671.359L194.4 686.651L188.1 698.345L180.9 707.34L170.1 716.335L155.7 723.531L148.5 725.331L147.6 723.531L152.1 720.833H153.9L154.8 718.134L157.5 715.436L159.3 710.938L155.7 712.737L154.8 705.541L155.7 702.842L159.3 701.043L160.2 699.244L165.6 696.546H167.4V691.148H169.2L170.1 686.651L171 683.053L170.1 682.153V677.655L168.3 671.359L166.5 660.564L167.4 656.966H169.2L171 649.77L172.8 648.87L174.6 638.076L177.3 627.282L181.8 623.684H183.6L184.5 619.186V616.487V615.588L189 614.688L190.8 609.291H192.6V607.492L194.4 606.593Z" fill="#281470"/>
<path d="M235.8 724.431L244.8 726.23L250.2 729.828L255.6 737.924V740.622L268.2 734.326L270.9 733.426H278.1L285.3 737.024L292.5 742.422L297.9 741.522L306.9 737.924L315 736.125H324L332.1 738.823L339.3 745.12L340.2 747.819H333.9L334.8 749.618L300.6 752.316L254.7 756.814L197.1 762.211L195.3 761.312L199.8 754.115L205.2 749.618L207.9 748.718H216.9L218.7 738.823L222.3 731.627L228.6 726.23L235.8 724.431Z" fill="#3E2399"/>
<path d="M1228.5 639.875L1251.9 641.674L1275.3 642.574V707.34L1269 706.44L1256.4 699.244L1246.5 691.148L1241.1 683.952L1233.9 670.459L1230.3 656.966L1228.5 646.172V639.875Z" fill="#8E70EE"/>
<path d="M873 708.24H883.8L889.2 710.938L893.7 716.335L894.6 720.833L905.4 716.335H911.7L917.1 720.833L919.8 727.13L934.2 722.632L940.5 721.732H950.4L959.4 724.431L969.3 731.627L974.7 739.723L966.6 737.924L961.2 738.824L953.1 737.924L945.9 737.024L895.5 736.125L882 735.225H853.2L837.9 734.326L839.7 729.828L847.8 724.431L855.9 722.632L862.2 723.532L863.1 717.235L869.4 710.039L873 708.24Z" fill="#3E239A"/>
<path d="M74.7 949.313L78.3 950.213L85.5 956.51H87.3L90.9 950.213L93.6 951.113L97.2 959.208L99 962.806L99.9 968.204V976.299L96.3 984.395L90 991.591L81 996.989L70.2 999.687L60.3 998.788L53.1 995.19L47.7 989.792V987.094H45.9L41.4 978.098L40.5 971.802L41.4 970.902H46.8L53.1 973.601L54 964.605L55.8 958.309L60.3 960.108L69.3 964.605L72.9 965.505L73.8 951.113L74.7 949.313Z" fill="#662DC3"/>
<path d="M80.1 486.055L81 487.854L86.4 489.653L93.6 495.95L97.2 500.448L99 504.945V514.84L95.4 523.835L90 530.132L83.7 533.73L78.3 535.529H70.2L63 532.831L54.9 526.534L50.4 519.338L49.5 514.84V504.945L53.1 497.749L57.6 492.352L64.8 487.854L67.5 486.955L80.1 486.055Z" fill="#5439BB"/>
<path d="M1367.1 774.805L1413 781.101L1440 785.599V805.389H1367.1V774.805Z" fill="#5338B9"/>
<path d="M124.2 726.23L126.9 727.13H142.2L143.1 810.786L142.2 811.685H125.1L124.2 807.188V726.23Z" fill="#27136F"/>
<path d="M171 939.419L180 940.318L187.2 944.816L191.7 950.213L193.5 955.61V963.706L189 972.702L183.6 977.199L179.1 978.998H168.3L162 976.3L155.7 969.103L153.9 964.606V952.912L158.4 945.716L165.6 940.318L171 939.419Z" fill="#5439BB"/>
<path d="M368.1 903.438H376.2L382.5 907.036L387 914.232V922.328L384.3 927.725L379.8 932.223L377.1 933.122H367.2L361.8 929.524L358.2 925.026L357.3 923.227V914.232L360.9 907.935L365.4 904.337L368.1 903.438Z" fill="#AA8CDF"/>
<path d="M315.9 929.524L324.9 932.223L330.3 936.72L334.8 943.017L335.7 949.314L339.3 946.615L337.5 951.113L332.1 960.108V962.807L338.4 959.208H351.9L352.8 961.007L349.2 968.204L342 974.5L340.2 975.4H326.7L324.9 979.898H324L324.9 972.701L329.4 960.108L332.1 954.711L326.7 952.912L319.5 946.615L316.8 940.318L315.9 929.524Z" fill="#170744"/>
<path d="M75.6 1015.88H84.6L93.6 1019.48H96.3L100.8 1029.37L103.5 1038.37V1041.07L106.2 1038.37L111.6 1032.07L116.1 1029.37L120.6 1028.47H128.7V1033.87L124.2 1041.07H122.4V1042.86L115.2 1046.46H108.9L105.3 1045.56L104.4 1049.16L98.1 1028.47L97.2 1026.67L92.7 1027.57L88.2 1029.37H76.5L71.1 1025.77L67.5 1022.18V1019.48L75.6 1015.88Z" fill="#170744"/>
<path d="M1368 642.574H1399.5L1397.7 647.072L1392.3 654.268L1385.1 659.665L1374.3 664.163L1367.1 665.062V643.473L1368 642.574Z" fill="#8C6EED"/>
<path d="M180.9 1050.96L182.7 1051.86L181.8 1065.35L178.2 1070.75L172.8 1075.25L168.3 1077.05H165.6L170.1 1090.54L180 1113.03L179.1 1114.83L173.7 1105.83L163.8 1079.75L162 1072.55L162.9 1068.95H163.8L166.5 1060.86L173.7 1053.66L176.4 1051.86L180.9 1050.96Z" fill="#170744"/>
<path d="M151.2 462.668L159.3 464.467L168.3 468.964L180 477.96L187.2 486.955L194.4 501.348L198 514.84V538.228H195.3L194.4 520.238L192.6 509.443L189 499.548L185.4 494.151L180.9 489.654L180 486.955H178.2L171 477.96L167.4 475.261V472.563L162.9 471.663L160.2 468.964L157.5 468.065V466.266L153 464.467L151.2 462.668Z" fill="#2A1674"/>
<path d="M157.5 1037.47H158.4L161.1 1059.96V1066.25L160.2 1064.45L155.7 1066.25L150.3 1068.95H140.4L133.2 1065.35L129.6 1060.86L133.2 1057.26L137.7 1055.46H148.5L159.3 1060.86L157.5 1046.46V1037.47Z" fill="#170744"/>
<path d="M108.9 985.295H109.8V1000.59L103.5 1008.68L94.5002 1012.28L92.7002 1014.98L84.6002 1000.59L85.5002 998.788L90.9002 1006.88H91.8002L92.7002 998.788L99.0002 991.591L108.9 985.295Z" fill="#170744"/>
<path d="M301.5 977.199L308.7 978.099L314.1 981.697L318.6 987.094L320.4 990.692L323.1 979.898H324L323.1 988.893L322.2 994.29H308.7L299.7 989.792L295.2 984.395L294.3 979.898L297 978.099L301.5 977.199Z" fill="#170744"/>
<path d="M484.2 692.048H490.5V740.623H484.2V692.048Z" fill="#27136F"/>
<path d="M174.6 1007.78H183.6L182.7 1013.18L177.3 1020.38L172.8 1023.97L168.3 1025.77L157.5 1024.87V1023.07H159.3L160.2 1017.68L166.5 1009.58L174.6 1007.78Z" fill="#170744"/>
<path d="M370.8 719.034H371.7V746.919L370.8 747.819H364.5V720.833L370.8 719.034Z" fill="#27136F"/>
<path d="M158.4 921.428L161.1 922.328L150.3 928.624L144.9 933.122L138.6 943.017L134.1 957.409L131.4 960.108H128.7L129.6 953.811L131.4 944.816L135.9 936.72L139.5 931.323L144.9 926.825L153 924.127L158.4 921.428Z" fill="#3F249B"/>
<path d="M1007.1 712.737L1014.3 713.637V740.623H1007.1V712.737Z" fill="#27136F"/>
<path d="M183.6 533.73H185.4V536.429L189.9 538.228V541.826L181.8 548.123L175.5 557.118L172.8 559.817L171 550.822L173.7 548.123L176.4 541.826L180.9 538.228H183.6V533.73Z" fill="#281471"/>
<path d="M113.4 806.288H122.4L125.1 807.188V810.786H143.1L144 813.484L135.9 817.083V817.982H129.6L128.7 817.083H126L123.3 815.284L119.7 813.484L117.9 814.384L116.1 808.987L113.4 806.288Z" fill="#3E2399"/>
<path d="M999 972.701H1008L1012.5 974.5L1013.4 978.099L1008.9 980.797H997.2L994.5 978.099L995.4 974.5L999 972.701Z" fill="#AE9ADB"/>
<path d="M1130.4 928.624H1141.2L1144.8 931.323L1143.9 934.921L1140.3 936.72H1129.5L1125.9 934.022L1126.8 930.423L1130.4 928.624Z" fill="#A797D8"/>
<path d="M1001.7 946.615L1009.8 947.515L1014.3 950.213L1012.5 953.811L1008.9 954.711H999L993.6 952.012L994.5 949.314L1001.7 946.615Z" fill="#6733C5"/>
<path d="M408.6 673.158H409.5V685.751L405 698.345L399.6 705.541L392.4 711.838L383.4 716.335L381.6 715.436L384.3 714.536L385.2 711.838L393.3 707.34L399.6 701.043L405.9 688.45L408.6 673.158Z" fill="#291472"/>
<path d="M1014.3 996.989H1026L1029.6 998.788L1030.5 1001.49L1026 1004.19H1015.2L1010.7 1002.39L1011.6 998.788L1014.3 996.989Z" fill="#662DC2"/>
<path d="M839.7 1086.04H855L856.8 1087.84L855.9 1091.44L851.4 1093.24H841.5L837.9 1090.54V1087.84H839.7V1086.04Z" fill="#B3ABD6"/>
<path d="M1051.2 951.113H1061.1L1064.7 952.912L1065.6 955.61L1064.7 957.409L1059.3 959.208H1053L1046.7 956.51L1048.5 952.912L1051.2 951.113Z" fill="#672DC3"/>
<path d="M853.2 1050.96H860.4L864.9 1052.76L865.8 1056.36L864 1058.16L859.5 1059.06H853.2L847.8 1057.26L848.7 1052.76L853.2 1050.96Z" fill="#662DC2"/>
<path d="M966.6 906.136H978.3L982.8 907.935V911.533L977.4 913.332H969.3L964.8 911.533L963.9 908.835L966.6 906.136Z" fill="#6936C8"/>
<path d="M917.1 943.017L927 943.916L929.7 945.716L928.8 949.314L927.9 950.213H914.4L910.8 947.515L911.7 944.816L917.1 943.017Z" fill="#6731C4"/>
<path d="M1017 929.524H1030.5L1033.2 931.323L1032.3 934.921L1025.1 936.72L1017 935.821L1014.3 933.122L1015.2 930.423L1017 929.524Z" fill="#5439BB"/>
<path d="M1090.8 966.405L1098.9 969.103V972.701L1093.5 974.501H1086.3L1081.8 971.802L1083.6 968.204L1090.8 966.405Z" fill="#5439BB"/>
<path d="M1122.3 901.638L1131.3 902.538L1133.1 903.437L1132.2 907.935L1123.2 909.734L1116 907.036V903.437L1122.3 901.638Z" fill="#5439BB"/>
<path d="M770.4 1063.55H781.2L785.7 1065.35V1068.95L780.3 1069.85H772.2L767.7 1068.05L768.6 1064.45L770.4 1063.55Z" fill="#662DC2"/>
<path d="M892.8 1029.37H900L903.6 1031.17V1034.77L901.8 1035.67H888.3L886.5 1033.87L887.4 1030.27L892.8 1029.37Z" fill="#5439BB"/>
<path d="M1048.5 683.053L1049.4 686.651L1047.6 691.149L1045.8 694.747H1044L1042.2 698.345L1035.9 704.641L1024.2 710.938L1016.1 711.838L1028.7 705.541L1039.5 698.345L1044 691.149L1044.9 688.45H1046.7L1048.5 683.053Z" fill="#2A1574"/>
<path d="M527.4 652.469H528.3V659.665L524.7 669.56L519.3 677.655L511.2 684.852L506.7 687.55L504 686.651L515.7 677.655L519.3 673.158L525.6 660.564L527.4 652.469Z" fill="#2A1574"/>
<path d="M493.2 495.95L497.7 496.85L502.2 500.448L504.9 504.046L508.5 502.247L514.8 498.649H521.1L518.4 500.448L509.4 504.946L505.8 510.343H504L501.3 504.046L496.8 499.548L493.2 495.95Z" fill="#BFC2D2"/>
<path d="M506.7 614.688L511.2 615.588L520.2 623.684L525.6 632.679L527.4 636.277V642.574L525.6 641.674L522 631.779L515.7 621.885L506.7 615.588V614.688Z" fill="#2E197B"/>
<path d="M347.4 922.328L352.8 923.227V926.825L351 927.725V933.122L347.4 934.921L342.9 934.022L343.8 929.524L349.2 923.227L347.4 922.328Z" fill="#704CD7"/>
<path d="M42.3001 977.199L44.1001 978.099L46.8001 982.596V985.295L50.4001 986.194L52.2001 989.792L56.7001 991.591L57.6001 996.089L53.1001 995.19L47.7001 989.792V987.094H45.9001L42.3001 980.797V977.199Z" fill="#7C57DD"/>
<path d="M170.1 574.209H171L173.7 585.004L179.1 593.999L182.7 599.396L178.2 597.597V595.798H176.4L171.9 587.702V585.903L169.2 586.803V576.009L170.1 574.209Z" fill="#281470"/>
<path d="M999 972.701H1008L1011.6 974.5L1008 975.4L1008.9 977.199H1007.1V978.998L999 978.099L998.1 975.4L995.4 974.5L999 972.701Z" fill="#A385DF"/>
<path d="M1023.3 997.888L1029.6 998.788L1030.5 1001.49L1026 1004.19H1015.2L1010.7 1002.39V999.687L1014.3 1000.59L1018.8 1001.49H1023.3L1025.1 999.687L1023.3 997.888Z" fill="#7851D9"/>
<path d="M839.7 1086.04H849.6L850.5 1087.84L842.4 1089.64L850.5 1091.44L848.7 1093.24H841.5L837.9 1090.54V1087.84H839.7V1086.04Z" fill="#B5AFD4"/>
<path d="M858.6 1052.76H864.9L865.8 1056.36L864 1058.16L859.5 1059.06H853.2L847.8 1057.26V1054.56L854.1 1056.36H859.5L858.6 1052.76Z" fill="#7751D9"/>
<path d="M1061.1 952.912H1064.7L1065.6 955.61L1064.7 957.41L1059.3 959.209H1053L1046.7 956.51L1047.6 953.811L1051.2 954.711V956.51H1058.4L1061.1 952.912Z" fill="#7850D8"/>
<path d="M376.2 940.318H377.1V948.414L372.6 950.213L370.8 948.414V943.916L376.2 940.318Z" fill="#7A56DD"/>
<path d="M156.6 807.188H159.3L158.4 808.987L157.5 809.886L161.1 810.786H159.3V813.484H157.5L158.4 816.183L153.9 815.284L151.2 812.585V810.786H153V808.987L156.6 807.188Z" fill="#3F249A"/>
<path d="M352.8 934.921L356.4 937.62V939.419L358.2 940.318L356.4 942.118H353.7V943.917H350.1V937.62H351.9L352.8 934.921Z" fill="#704ED6"/>
<path d="M780.3 1065.35H785.7V1068.95L780.3 1069.85H772.2L767.7 1068.05V1066.25L779.4 1068.05L780.3 1065.35Z" fill="#7C59DE"/>
<path d="M92.6999 711.838L97.1999 713.637L112.5 721.732L117 723.531L114.3 724.431L103.5 719.933L93.5999 713.637L92.6999 711.838Z" fill="#281470"/>
<path d="M361.8 941.218L366.3 942.117V945.715L364.5 948.414H360.9L360 942.117L361.8 941.218Z" fill="#7B55DD"/>
<path d="M1050.3 665.961H1052.1V678.555L1050.3 681.253L1049.4 680.354V667.76L1050.3 665.961Z" fill="#2D1879"/>
<path d="M140.4 780.202H141.3V808.987H143.1V810.786H139.5V798.193L140.4 780.202Z" fill="#170745"/>
<path d="M459.9 680.354L464.4 682.153L477.9 689.349L475.2 690.249L466.2 686.651L464.4 685.751V683.952H461.7L459.9 680.354Z" fill="#311B81"/>
<path d="M1035.9 639.875L1039.5 640.775L1046.7 649.77L1048.5 653.368L1047.6 656.966L1041.3 646.172L1037.7 642.574V640.775L1035.9 639.875Z" fill="#351F87"/>
<path d="M90.8998 950.213L93.5998 951.113L97.1998 959.208L98.0998 967.304L96.2998 966.405L94.4998 961.907V958.309V956.51L91.7998 955.61L92.6998 952.012H90.8998V950.213Z" fill="#7455DD"/>
<path d="M392.4 934.022L396.9 935.821L396 940.318L390.6 939.419L389.7 936.72L392.4 934.022Z" fill="#7953DA"/>
<path d="M497.7 455.471L501.3 458.17V459.969L507.6 459.069L508.5 460.868L504 462.667L499.5 463.567L498.6 459.069L497.7 455.471Z" fill="#BFC2D2"/>
<path d="M981.9 701.043L986.4 702.842L993.6 707.34L999.9 710.039L997.2 710.938L988.2 707.34L982.8 703.742L981.9 701.043Z" fill="#321C82"/>
<path d="M1023.3 997.888L1029.6 998.788L1030.5 1001.49L1026 1004.19L1022.4 1003.29L1025.1 999.687L1023.3 997.888Z" fill="#764FD7"/>
<path d="M241.2 577.807H242.1L241.2 585.903L236.7 593.999H234.9L236.7 589.501L238.5 586.803L240.3 579.607L241.2 577.807Z" fill="#40269B"/>
<path d="M977.4 907.935H982.8V911.533L980.1 912.433H972.9L976.5 910.634L977.4 907.935Z" fill="#7A55DB"/>
<path d="M76.5 692.048L79.2 693.847V695.646H81L85.5 703.742L84.6 705.541L78.3 697.445L76.5 692.048Z" fill="#2A1574"/>
<path d="M346.5 928.624L347.4 931.323L349.2 930.423V932.223L351 933.122L347.4 934.921L342.9 934.022V931.323L346.5 928.624Z" fill="#7B54DC"/>
<path d="M338.4 705.541L345.6 709.139L350.1 712.737L352.8 715.436L347.4 713.637L338.4 707.34V705.541Z" fill="#281470"/>
<path d="M845.1 1087.84H850.5L852.3 1090.54L848.7 1091.44L842.4 1090.54L841.5 1088.74L845.1 1087.84Z" fill="#B29DDB"/>
<path d="M922.5 944.816H928.8L929.7 948.414L923.4 949.314L922.5 944.816Z" fill="#7A58DD"/>
<path d="M1426.5 784.699H1436.4L1440 785.599V788.298L1429.2 786.499L1426.5 784.699Z" fill="#4328A2"/>
<path d="M1367.1 774.805L1375.2 775.704V777.503L1368.9 779.302L1367.1 778.403V774.805Z" fill="#4328A1"/>
<path d="M353.7 890.844H355.5L356.4 898.04L351 896.241L353.7 890.844Z" fill="#3E2399"/>
<path d="M575.1 448.275L578.7 449.175L572.4 453.672L569.7 452.773L573.3 449.175L575.1 448.275Z" fill="#BFC2D2"/>
</g>
<rect width="1440" height="209" fill="#AD8FDE"/>
<path d="M1145 210C1145 164.713 1181.71 128 1227 128H1359C1404.29 128 1441 164.713 1441 210V210H1145V210Z" fill="#422D95"/>
<path d="M1072.03 778L1093.81 778.871L1092.94 780.613L1085.97 783.226L1112.1 785.839L1128.65 790.194L1152.16 798.032L1163.48 800.645L1161.74 794.548L1174.81 797.161L1182.65 800.645L1184.39 803.258V808.484L1187.87 809.355L1190.48 801.516H1191.35V807.613L1195.71 805.871L1193.97 810.226L1188.74 812.839H1183.52L1178.29 811.968L1161.74 814.581L1159.13 815.452L1164.35 816.323L1183.52 817.194L1180.03 819.806L1163.48 826.774H1161.74L1153.9 816.323L1147.81 809.355V807.613H1141.71L1145.19 810.226L1144.32 812.839L1132.13 822.419L1129.52 825.903H1123.42L1116.45 821.548L1109.48 815.452L1097.29 810.226L1086.84 805.871L1082.48 806.742L1079 811.097L1072.03 814.581H1066.81L1062.45 810.226L1060.71 805L1059.84 794.548L1063.32 787.581L1070.29 778.871L1072.03 778Z" fill="#4D3122"/>
<path d="M1083.35 805L1088.58 805.871L1107.74 813.71L1112.97 817.194L1119.94 823.29L1123.42 825.032L1129.52 825.903L1131.26 822.419L1142.58 812.839L1144.32 811.968V810.226L1139.97 806.742H1154.77V807.613H1147.81L1153.03 814.581L1159.13 821.548L1161.74 825.032V827.645L1147.81 834.613L1139.1 840.71L1134.74 842.452H1125.16L1119.06 840.71L1119.94 848.548L1122.55 852.903V856.387L1118.19 855.516L1117.32 856.387L1099.03 859L1091.19 858.129L1092.06 854.645H1093.81V852.903L1111.23 852.032L1110.35 836.355L1103.39 832.871L1085.1 827.645L1074.65 822.419L1065.94 815.452L1063.32 812.839L1064.19 811.097L1066.81 813.71H1072.03L1079.87 809.355L1083.35 805Z" fill="#CFBD9D"/>
<path d="M1072.03 778L1093.81 778.871L1092.94 780.613L1088.58 782.355H1084.23V784.097L1080.74 784.968V786.71L1085.1 787.581L1087.71 789.323L1103.39 790.194L1112.97 791.935L1117.32 794.548L1120.81 798.032L1131.26 803.258L1133 808.484V813.71L1123.42 811.968L1110.35 812.839L1112.97 816.323L1107.74 814.581L1088.58 806.742L1083.35 805.871L1079 811.097L1072.03 814.581H1066.81L1062.45 810.226L1060.71 805L1059.84 794.548L1063.32 787.581L1070.29 778.871L1072.03 778Z" fill="#3C2319"/>
<path d="M1074.65 751H1082.48L1089.45 753.613L1096.42 761.452L1099.9 771.032V777.129H1076.39L1078.13 776.258V774.516H1065.94L1056.35 778.871H1052L1052.87 775.387L1059.84 769.29L1063.32 764.065L1066.81 756.226L1072.03 751.871L1074.65 751Z" fill="#181B19"/>
<path d="M1072.9 819.806H1080.74L1096.42 823.29L1112.97 829.387H1118.19L1119.94 832L1126.9 834.613H1139.97L1149.55 832L1145.19 836.355L1137.35 841.581L1134.74 842.452H1125.16L1119.06 840.71L1119.94 848.548L1122.55 852.903V856.387L1118.19 855.516L1117.32 856.387L1099.03 859L1091.19 858.129L1092.06 854.645H1093.81V852.903L1111.23 852.032L1110.35 836.355L1103.39 832.871L1085.1 827.645L1074.65 822.419L1072.9 819.806Z" fill="#C6A694"/>
<path d="M1161.74 794.548L1174.81 797.161L1182.65 800.645L1184.39 803.258V808.484L1187.87 809.355L1190.48 801.516H1191.35V807.613L1195.71 805.871L1193.97 810.226L1188.74 812.839H1183.52L1178.29 811.968L1161.74 814.581L1159.13 815.452L1164.35 816.323L1183.52 817.194L1180.03 819.806L1163.48 826.774H1161.74L1153.9 816.323L1147.81 809.355V807.613L1161.74 806.742L1171.32 804.129L1173.94 802.387V800.645L1165.23 798.903L1161.74 795.419V794.548Z" fill="#1A1D1A"/>
<path d="M1075.52 776.258L1099.9 777.129L1102.52 778.871L1119.06 780.613L1152.16 791.935L1161.74 794.548L1164.35 798.903L1163.48 801.516L1143.45 796.29L1119.94 788.452L1105.13 785.839L1085.1 784.097L1085.97 782.355L1092.94 779.742L1072.9 778L1075.52 776.258Z" fill="#C7A87E"/>
<path d="M1072.9 819.806H1080.74L1096.42 823.29L1115.58 830.258L1112.97 833.742L1111.23 837.226L1106 833.742L1085.1 827.645L1074.65 822.419L1072.9 819.806Z" fill="#CAA775"/>
<path d="M1119.06 832L1126.9 834.613H1139.97L1149.55 832L1145.19 836.355L1137.35 841.581L1134.74 842.452H1125.16L1118.19 839.839L1119.06 832Z" fill="#CBA774"/>
<path d="M1192.23 810.226H1193.97L1194.84 813.71L1184.39 816.323L1183.52 818.065L1164.35 817.194L1158.26 815.452L1161.74 813.71L1178.29 811.097L1188.74 811.968L1192.23 810.226Z" fill="#C9B9A0"/>
<path d="M1077.26 755.355L1088.58 756.226V757.968L1092.06 759.71L1095.55 764.065V769.29L1092.06 770.161L1089.45 764.936V763.194L1076.39 761.452L1075.52 757.097L1077.26 755.355Z" fill="#172D1D"/>
<path d="M1064.19 761.452L1065.94 763.194L1067.68 769.29L1070.29 771.903V773.645L1062.45 776.258L1056.35 778.871H1052L1052.87 775.387L1059.84 769.29L1063.32 764.065L1064.19 761.452Z" fill="#513526"/>
<path d="M1075.52 776.258L1099.9 777.129L1102.52 779.742L1079.87 778.871L1072.9 778L1075.52 776.258Z" fill="#C4B59F"/>
<path d="M1058.1 770.161L1059.84 771.032L1056.35 774.516V776.258L1058.1 778L1052 778.871L1052.87 775.387L1058.1 770.161Z" fill="#4E3223"/>
<path d="M1059.84 770.161L1062.45 771.903V774.516L1058.1 777.129L1055.48 776.258L1056.35 773.645L1059.84 770.161Z" fill="#C4A59B"/>
<path d="M287.077 734.589L282.426 735.105L274.675 736.655L271.574 738.206V749.057L268.474 752.675L260.722 756.809L250.388 760.943L242.636 763.526L233.335 765.077V766.627L231.268 766.11V762.493L229.201 763.01V764.56L227.134 763.01L226.617 764.56L228.167 766.11L230.751 772.828L228.684 773.344L231.268 776.962L233.335 782.129L236.435 788.33L240.569 790.914L250.904 795.048L258.139 797.115L260.206 802.282L262.273 804.866L268.474 807.966L273.124 809L274.158 808.483L274.675 806.416L278.809 804.349L278.292 802.799L271.057 799.182L264.856 799.699L263.306 796.598L267.957 795.565L271.057 792.981L273.124 789.88L275.708 787.813L282.943 784.196L286.56 782.646L287.593 782.129V781.096L289.66 780.579V779.545L293.278 778.512L295.344 775.928L298.445 766.627V758.359L294.311 750.091L289.144 740.273L287.077 734.589Z" fill="#EBE4D0"/>
<path d="M287.077 734.589L282.426 735.105L274.675 736.655L271.574 738.206V749.057L268.99 752.158L269.507 754.225L262.273 758.359L258.139 760.426L253.488 765.593L250.388 768.177L249.354 770.761L251.938 770.244L255.038 769.211L260.206 768.177L263.823 765.077L265.89 764.043H270.024L270.541 767.66L273.641 772.828L275.708 774.895L284.493 776.962H291.211L294.828 775.411L297.411 770.244L298.445 766.627V758.359L294.311 750.091L289.144 740.273L287.077 734.589Z" fill="#573B2B"/>
<path d="M291.211 701H285.01L279.842 703.584L275.708 708.234L272.608 714.435L271.574 722.703V733.555L274.675 732.522H280.359L286.043 733.038V723.737L288.11 718.569L292.244 714.952L294.311 713.919L302.062 716.502L305.679 718.053H308.78L307.23 714.952H305.679V713.919L301.029 710.301L298.962 707.718L297.928 705.651H296.895L295.861 703.584L292.761 701.517L291.211 701Z" fill="#3D3B38"/>
<path d="M295.345 774.895L291.211 776.445H281.909L281.392 778.512L278.809 781.096V782.129L275.708 783.163L273.124 785.23L267.44 788.33L262.273 790.397L258.656 791.431V781.612L257.105 776.962L254.522 777.479L252.455 779.029V780.062H251.421L250.388 781.612L249.871 790.397L245.737 790.914V791.947L247.804 792.464L250.388 794.014L255.038 795.565H257.622L259.172 800.215L261.239 803.833L265.89 806.933L271.574 809L274.158 808.483L274.675 806.416L278.809 804.349L278.292 802.799L271.057 799.182L264.856 799.699L263.306 796.598L267.957 795.565L271.057 792.981L273.124 789.88L275.708 787.813L282.943 784.196L286.56 782.646L287.593 782.129V781.096L289.66 780.579V779.545L293.278 778.512L295.345 775.928V774.895Z" fill="#D1BE9E"/>
<path d="M268.99 752.675L259.172 757.325L251.938 760.426L242.636 763.526L233.335 765.077V766.627L231.268 766.11V762.493L229.201 763.01V764.56L227.134 763.01L226.617 764.56L228.167 766.11L230.751 772.828L228.684 773.345L231.785 777.995L233.335 776.445L234.885 775.928L235.402 777.479L242.12 776.445L243.67 775.412L247.287 775.928L251.938 777.995L255.038 776.962H258.656L260.722 774.895L258.139 772.828L265.89 768.694L270.024 765.593L270.541 763.526H265.89L261.239 766.627L259.172 768.177L253.488 769.211L249.871 770.244L251.938 767.144L257.105 762.493L259.689 759.909L267.957 755.775L270.024 753.708L268.99 752.675Z" fill="#B2AFA7"/>
<path d="M246.254 774.895H243.67L240.053 776.445L235.402 776.962L234.885 775.928L232.818 776.445L231.785 779.029L233.852 782.646L235.919 787.813L238.502 789.88L245.737 792.981L254.005 796.081L258.656 797.115L258.139 794.531L257.622 795.565L248.837 792.981L246.77 791.431L245.737 791.947V790.914H248.837L250.388 789.364L250.904 781.612L251.421 780.062H252.455V779.029L254.522 777.995L257.105 776.962L255.038 776.445L251.938 777.479L247.287 775.412L246.254 774.895Z" fill="#EBE4D1"/>
<path d="M262.273 793.498L259.689 794.014L259.172 800.215L261.239 803.832L265.89 806.933L271.574 809L274.158 808.483L274.675 806.416L278.809 804.349L278.292 802.799L271.057 799.182L264.856 799.699L263.823 798.148L262.273 793.498Z" fill="#D69453"/>
<path d="M288.627 746.474H286.043L285.01 748.024L288.11 747.507V748.541L283.459 749.057V749.574L288.11 750.091V751.124L285.01 750.608V751.641L283.976 751.124L280.876 751.641L281.909 753.191L280.359 752.675V754.225L285.526 754.742L279.842 755.258L279.325 753.708L278.292 755.258L278.809 755.775H282.426V756.809L279.842 756.292L280.359 757.325L279.325 756.809H277.258L278.292 758.876H280.876V759.909L277.258 759.392L276.742 758.359V759.909L281.392 761.459H288.627V759.909L283.976 758.876L282.943 759.392L283.459 758.359H286.56L286.043 757.325L283.459 756.809H286.56L289.144 758.359L293.278 757.842V756.809L289.66 756.292L287.593 756.809L288.11 754.742L289.66 755.775L293.278 756.292L293.794 754.225L292.244 753.708V752.675H293.278L292.244 750.091L291.727 749.057L289.144 748.541L290.177 747.507L288.627 746.474Z" fill="#44291F"/>
<path d="M273.641 761.459L272.091 761.976L271.574 765.077L274.675 772.311L275.708 773.345L280.359 772.828L283.459 771.278L286.043 769.211V768.177L280.359 765.077L278.292 763.526H274.675V762.493H273.641V761.459Z" fill="#3F251A"/>
<path d="M297.928 705.651L295.861 706.684L294.828 709.268L293.794 710.818V713.402L297.411 714.952L304.646 717.536L305.679 718.053H308.78L307.23 714.952H305.679V713.919L301.029 710.301L298.962 707.718L297.928 705.651Z" fill="#D4914E"/>
<path d="M231.268 762.493L229.201 763.01V764.56L227.134 763.01L226.617 764.56L228.167 766.11L230.751 772.828L228.684 773.344L231.785 777.995L233.335 776.445L234.885 775.928L235.402 777.478L241.603 776.445V775.928L236.952 774.895L237.469 772.828L237.986 770.244L237.469 769.211L231.268 769.727L232.301 766.627L231.268 766.11V762.493Z" fill="#3E3D3A"/>
<path d="M272.608 714.952L271.574 715.986L271.057 720.12V734.072L271.574 738.206L276.742 736.655L285.01 735.105L286.56 734.589V731.488L286.043 733.038L280.359 732.005H274.675L272.091 733.038V722.703L272.608 714.952Z" fill="#DDD9D0"/>
<path d="M279.842 753.708L278.292 755.258L278.809 755.775H282.426V756.809L279.842 756.292L280.359 757.325L279.325 756.809H277.258L278.292 758.876H280.876V759.909L277.258 759.392L276.742 758.359V759.909L281.392 761.459H288.627V759.909L283.976 758.876L282.943 759.392L283.459 758.359H286.56L286.043 757.325L283.459 756.809H286.56L289.144 758.359L293.278 757.842V756.809L289.66 756.292L287.593 756.809L288.11 755.258H279.842V753.708Z" fill="#43281D"/>
<path d="M227.134 762.493L224.55 765.077L223 765.593L223.517 767.66H224.55L225.584 769.727L228.167 773.344L230.751 772.828L230.234 769.727L227.651 764.56L227.134 762.493Z" fill="#CAB99D"/>
<path d="M270.541 803.833H265.89L266.923 805.9L267.44 807.45L271.574 809L274.158 808.483L274.675 806.416L276.225 805.383V804.349H272.608L270.541 803.833Z" fill="#C8A48F"/>
<path d="M292.761 778.512L290.694 779.029L289.66 779.545V780.579L287.593 781.096V782.129L282.943 783.679L275.191 787.813L272.091 790.397L268.99 794.531L263.306 796.598L263.823 798.148V797.115L267.957 796.598L272.091 792.981L275.708 788.847L287.593 783.163L292.761 779.545V778.512Z" fill="#ECE5D2"/>
<path d="M279.842 753.708L278.292 755.258L278.809 755.775H282.426L281.909 758.359H286.56L286.043 757.325L283.459 756.809H286.56L289.144 758.359L293.278 757.842V756.809L289.66 756.292L287.593 756.809L288.11 755.258H279.842V753.708Z" fill="#3D2319"/>
<path d="M259.172 773.344L256.589 773.861V774.895L252.971 775.928V776.962H251.938V775.928H248.837V776.962L252.971 777.995L255.038 776.962H258.655L260.722 774.895L259.172 773.344Z" fill="#C6AB82"/>
<path d="M271.574 763.526L270.024 764.043L270.541 767.66L273.641 772.828L274.675 771.278L271.574 763.526Z" fill="#4C3022"/>
<path d="M289.66 703.067L286.56 704.617V706.167L286.043 705.134L283.976 706.167L285.01 706.684H289.144L292.244 705.651L291.211 704.101L289.66 703.067Z" fill="#422E23"/>
<path d="M234.885 775.928L232.818 776.445L231.785 778.512H232.818L234.368 781.612L235.919 781.096V777.478L234.885 775.928Z" fill="#D2C0A3"/>
<path d="M272.091 799.699L269.507 802.282L270.541 802.799L277.258 803.316V802.282L272.091 799.699Z" fill="#C8A695"/>
<path d="M286.56 756.292H283.459L282.943 757.325L284.493 757.842L282.943 758.359V759.392L288.627 759.909L290.177 758.876L287.593 757.842L286.56 756.292Z" fill="#624636"/>
<path d="M248.837 792.981L248.321 794.014L255.555 796.598L258.656 797.115L258.139 794.531L257.622 795.565L248.837 792.981Z" fill="#ECE5D2"/>
<path d="M286.56 731.488L286.043 733.038L280.876 732.522L282.943 734.072L281.392 734.589V735.622L286.56 734.589V731.488Z" fill="#D3CBBC"/>
<path d="M284.493 751.641H280.876L281.909 753.191L280.359 752.675V754.225H285.526L284.493 751.641Z" fill="#3A2218"/>
<path d="M237.986 784.713H236.435L236.952 787.813L239.019 789.364L241.086 788.847L239.536 788.33L238.502 785.23L237.986 784.713Z" fill="#D1BE9E"/>
<path d="M257.622 775.928H252.971V776.962H251.938V775.928H248.837V776.962L252.971 777.995L257.622 776.445V775.928Z" fill="#C7AE88"/>
<path d="M287.077 749.574H283.976V750.608L281.392 751.124V751.641H284.493H286.043L285.526 751.124H288.11V750.091L287.077 749.574Z" fill="#624537"/>
<path d="M285.526 758.876L283.459 759.392L285.01 760.943L288.627 761.459V759.909L285.526 758.876Z" fill="#40261B"/>
<path d="M293.278 753.708L289.144 754.225L289.66 755.775L293.278 756.292L293.794 754.225L293.278 753.708Z" fill="#3E241A"/>
<defs>
<clipPath id="clip0_55_309">
<rect width="1440" height="958" fill="white" transform="translate(0 209)"/>
</clipPath>
</defs>
</svg>
