<svg width="113" height="128" viewBox="0 0 113 128" fill="none" xmlns="http://www.w3.org/2000/svg">
<path d="M19.5625 0.375H25.8125L32.0625 2.875L37.0625 7.25L42.0625 13.5L45.8125 21.625L47.6875 29.125L49.5625 45.375L51.4375 51.625L53.9375 55.375L57.6875 57.875L63.3125 59.75L72.6875 66.625L83.3125 72.875L90.1875 77.875L97.0625 81.625L102.688 86L103.312 84.125L99.5625 81L102.062 80.375L105.188 82.25V87.25L110.188 88.5L109.562 90.375L112.062 91V93.5L110.188 95.375L110.812 98.5L107.688 99.125V100.375H99.5625L94.5625 99.75L87.0625 106L80.1875 108.5L64.5625 111L63.3125 115.375L60.8125 121L58.3125 123.5L48.9375 127.25H47.6875L47.0625 122.25L41.4375 121.625L42.0625 119.75L45.8125 117.875L46.4375 115.375L50.1875 116L51.4375 116.625L57.0625 116L58.9375 113.5V110.375L51.4375 104.125L44.5625 100.375L38.9375 96L33.3125 90.375L28.3125 83.5L25.1875 77.25L24.5625 72.875L25.8125 61L27.6875 59.125L36.4375 55.375L38.3125 52.875L38.9375 51V36L37.6875 32.875L33.9375 30.375L28.3125 24.75L23.9375 19.75L20.8125 17.25L15.1875 15.375L13.3125 10.375L13.9375 4.75L16.4375 1.625L19.5625 0.375Z" fill="#3B3C3A"/>
<path d="M19.5625 0.375H25.8125L32.0625 2.875L37.0625 7.25L42.0625 13.5L45.8125 21.625L47.6875 29.125L49.5625 45.375V48.5L45.8125 46L40.1875 41.625L38.3125 34.125L36.4375 32.25L31.4375 27.875L22.0625 17.875L15.8125 16L13.9375 12.875L13.3125 9.125L13.9375 4.75L16.4375 1.625L19.5625 0.375Z" fill="#181C1A"/>
<path d="M30.8125 27.25L35.1875 31L38.3125 32.875L39.5625 36V51L37.6875 54.75L32.6875 57.875L26.4375 59.75L25.8125 61L26.4375 54.75L30.1875 37.25L30.8125 27.25Z" fill="#E7E1CF"/>
<path d="M27.0625 1L28.3125 1.625L33.9375 5.375L38.3125 9.75L43.3125 17.875L43.9375 21L41.4375 17.875L40.8125 17.25L41.4375 20.375V24.75L39.5625 26.625L37.0625 26L32.6875 19.125L27.6875 14.125L24.5625 11.625V9.75L23.3125 10.375H19.5625L17.6875 8.5L18.3125 6.625H22.6875L24.5625 6L23.3125 4.125L23.9375 1.625L27.0625 1Z" fill="#3B3B39"/>
<path d="M64.5625 104.125L66.4375 105.375L63.9375 111.625L62.0625 119.125L59.5625 122.875L48.9375 127.25H47.6875L47.0625 122.25L41.4375 121.625L42.0625 119.75L45.8125 117.875L46.4375 115.375L50.1875 116L51.4375 116.625L57.0625 116L58.9375 113.5V109.75L60.8125 107.875L63.3125 104.75L64.5625 104.125Z" fill="#D7914A"/>
<path d="M80.1875 92.875L85.1875 93.5L91.4375 96.625L96.4375 98.5L87.0625 106L80.1875 108.5L63.9375 111L64.5625 108.5L66.4375 107.25L72.6875 106.625L74.5625 105.375L80.8125 104.125V99.125L78.9375 93.5L80.1875 92.875Z" fill="#2E2D2A"/>
<path d="M27.0625 1L28.3125 1.625L33.9375 5.375L38.3125 9.75L43.3125 17.875L43.9375 21L41.4375 17.875L40.8125 17.25L39.5625 18.5L36.4375 12.25L33.3125 9.75L29.5625 7.875L25.1875 8.5V9.75L19.5625 10.375L17.6875 8.5L18.3125 6.625H22.6875L24.5625 6L23.3125 4.125L23.9375 1.625L27.0625 1Z" fill="#302E2B"/>
<path d="M13.3125 5.375H13.9375V10.375L15.8125 15.375L18.3125 16.625L10.8125 17.25L5.1875 19.125H0.8125V17.25L7.6875 12.25L12.6875 6.625L13.3125 5.375Z" fill="#C8AE8C"/>
<path d="M47.0625 101L57.0625 101.625L59.5625 104.75L61.4375 105.375L60.8125 109.125L58.3125 109.75L51.4375 104.125L47.0625 101.625V101Z" fill="#2E2C29"/>
<path d="M64.5625 104.125L66.4375 105.375L63.9375 111.625L62.6875 117.25L60.8125 114.75L58.3125 116.625L57.0625 116L58.9375 113.5V109.75L60.8125 107.875L63.3125 104.75L64.5625 104.125Z" fill="#C8A97D"/>
<path d="M87.0625 84.125H91.4375L95.8125 85.375L96.4375 87.875L93.9375 89.75H90.8125L87.0625 85.375V84.125Z" fill="#DCD8CB"/>
<path d="M10.8125 10.375L12.6875 11L13.9375 14.75L10.8125 17.25H5.8125L4.5625 16H6.4375L7.6875 13.5L10.8125 10.375Z" fill="#C58443"/>
<path d="M44.5625 118.5H49.5625L53.3125 119.75V121L47.6875 121.625L47.0625 123.5V122.25L41.4375 121.625L42.0625 119.75L44.5625 118.5Z" fill="#CE985C"/>
<path d="M60.1875 119.125H61.4375L60.1875 122.25L55.1875 124.75L48.9375 127.25H47.6875V123.5L48.9375 124.75L58.3125 121L60.1875 119.125Z" fill="#CBA573"/>
<path d="M64.5625 104.125L66.4375 105.375L65.1875 108.5L63.3125 109.75L62.0625 112.25L60.8125 111.625L61.4375 106.625L64.5625 104.125Z" fill="#D19A5D"/>
<path d="M6.4375 13.5L7.6875 14.125L5.8125 16.625L10.1875 17.25L8.3125 18.5L5.1875 19.125H0.8125V17.25L6.4375 13.5Z" fill="#C4A481"/>
<path d="M50.8125 121H57.6875L56.4375 122.25L48.3125 125.375L47.6875 121.625L50.8125 121Z" fill="#503425"/>
<path d="M46.4375 115.375L50.1875 116L51.4375 116.625H56.4375L55.1875 118.5L46.4375 119.125L45.8125 117.875L46.4375 115.375Z" fill="#533524"/>
<path d="M44.5625 118.5H46.4375V122.25L41.4375 121.625L42.0625 119.75L44.5625 118.5Z" fill="#C29C73"/>
<path d="M46.4375 114.125L50.1875 114.75L55.1875 116V117.25H51.4375L48.3125 116H45.8125L46.4375 114.125Z" fill="#C3AB91"/>
<path d="M99.5625 80.375L103.938 81L105.188 82.875L103.938 85.375L101.438 82.25L99.5625 80.375Z" fill="#3B3B38"/>
<path d="M47.6875 123.5L48.9375 124.75L52.0625 123.5V124.75L53.3125 125.375L47.6875 127.25V123.5Z" fill="#C8A882"/>
</svg>
