<svg width="130" height="115" viewBox="0 0 130 115" fill="none" xmlns="http://www.w3.org/2000/svg">
<path d="M19.9375 0.5H24.9375L31.1875 2.375L34.9375 4.875L39.3125 10.5L42.4375 18L44.3125 29.875L46.8125 43L49.3125 46.125L51.8125 47.375L63.6875 48.625L69.9375 50.5L89.3125 59.25L95.5625 62.375L110.562 65.5V66.125H103.062V67.375L109.312 68L114.312 69.25V69.875L109.938 70.5L114.312 71.125L117.438 69.25H121.812L124.938 72.375L125.562 76.125L124.938 77.375H129.938L126.812 80.5L121.188 84.25L113.688 87.375L109.938 89.875L105.562 94.875L103.062 96.75L99.9375 97.375H76.8125L69.3125 96.75L66.8125 103.625V109.25L64.9375 111.125L58.6875 114.875H53.6875L49.3125 113.625L47.4375 113V111.75L57.4375 109.875L61.8125 108.625L63.6875 100.5L64.3125 94.875L60.5625 93.625L40.5625 84.25L33.0625 79.25L28.6875 74.25L26.8125 68.625L26.1875 64.25V51.125L28.6875 34.875V25.5L25.5625 20.5L21.8125 18.625L18.6875 18H8.6875L0.5625 19.25L2.4375 16.125L7.4375 12.375L11.1875 9.25L14.9375 3L19.9375 0.5Z" fill="#172C1D"/>
<path d="M19.9375 0.5H24.9375L31.1875 2.375L34.9375 4.875L39.3125 10.5L42.4375 18L44.3125 29.875L46.8125 43L49.3125 46.125L51.8125 47.375L59.3125 48V48.625L54.3125 49.25L41.8125 56.75L37.4375 58V63.625L39.3125 67.375L42.4375 69.25L41.8125 64.875L46.1875 66.125L51.1875 71.125L57.4375 75.5L61.1875 81.75L62.4375 83.625V87.375L41.8125 76.125L31.8125 73.625L27.4375 71.125L26.1875 64.25V51.125L28.6875 34.875V25.5L25.5625 20.5L21.8125 18.625L18.6875 18H8.6875L0.5625 19.25L2.4375 16.125L7.4375 12.375L11.1875 9.25L14.9375 3L19.9375 0.5Z" fill="#302E2B"/>
<path d="M19.9375 0.5H24.9375L31.1875 2.375L34.9375 4.875L39.3125 10.5L42.4375 18L44.3125 29.875L46.8125 43L47.4375 44.875H43.6875L40.5625 41.75L39.3125 38.625L39.9375 33L40.5625 32.375L39.3125 29.875L36.8125 30.5V29.25L32.4375 28L31.1875 31.75L30.5625 36.125L29.3125 35.5L28.6875 25.5L25.5625 20.5L21.8125 18.625L18.6875 18H8.6875L0.5625 19.25L2.4375 16.125L7.4375 12.375L11.1875 9.25L14.9375 3L19.9375 0.5Z" fill="#172D1D"/>
<path d="M28.0625 71.125L33.0625 73.625L43.0625 76.125L55.5625 83L64.3125 88L71.1875 91.125L75.5625 90.5L74.3125 86.75V81.125L77.4375 82.375L82.4375 87.375L89.3125 91.75H99.9375L104.938 89.25L106.188 87.375L106.812 84.25H115.562L119.938 83.625L119.312 84.875L110.562 89.25L104.938 95.5L103.062 96.75L99.9375 97.375H76.8125L69.3125 96.75L66.8125 103.625V109.25L64.9375 111.125L58.6875 114.875H53.6875L49.3125 113.625L47.4375 113V111.75L57.4375 109.875L61.8125 108.625L63.6875 100.5L64.3125 94.875L60.5625 93.625L40.5625 84.25L33.0625 79.25L28.6875 74.25L28.0625 71.125Z" fill="#171B19"/>
<path d="M58.6875 50.5L64.3125 52.375L70.5625 55.5L71.1875 53.625L76.1875 56.75L81.1875 60.5V61.75L83.6875 62.375L84.9375 64.875L78.6875 66.75L77.4375 68.625L83.0625 72.375L82.4375 74.875L81.8125 75.5L76.1875 74.875L70.5625 73.625L66.8125 71.125L63.6875 68L55.5625 64.875L52.4375 61.75L51.8125 56.75L55.5625 53L56.1875 51.75L58.6875 50.5Z" fill="#304F46"/>
<path d="M32.4375 28L35.5625 28.625L37.4375 29.875H39.3125L40.5625 31.125L41.1875 33H39.9375V38.625L42.4375 43.625L48.0625 44.875L51.8125 47.375L59.3125 48V48.625L54.3125 49.25L41.8125 56.75L38.6875 58L34.3125 57.375L32.4375 54.875L30.5625 46.125V31.75L32.4375 28Z" fill="#304F46"/>
<path d="M59.3125 48.625H63.6875L69.9375 50.5L89.3125 59.25L93.6875 61.75V63L97.4375 64.25L101.188 66.75L101.812 71.125L100.562 73.625L98.0625 70.5V74.25L96.8125 72.375L96.1875 71.75L95.5625 73.625L93.6875 69.875L93.0625 69.25L92.4375 73L91.1875 70.5L89.3125 68.625L88.0625 69.25L86.8125 67.375V68.625H85.5625V73.625H83.6875V71.75L80.5625 71.125L76.8125 68.625L79.9375 65.5L84.9375 64.875L83.0625 62.375L81.1875 61.75L78.0625 58.625L72.4375 54.875L71.1875 54.25L70.5625 55.5L66.8125 54.25L59.9375 51.125L59.3125 48.625Z" fill="#2F2E2B"/>
<path d="M93.6875 62.375L101.812 63.625L110.562 65.5V66.125H103.062V67.375L109.312 68L114.312 69.25V69.875L109.938 70.5L112.438 71.75L111.188 72.375L108.062 71.75L109.312 74.875H105.562L104.938 76.75L101.812 77.375H95.5625L89.3125 76.125L77.4375 77.375L71.1875 76.75L67.4375 73V71.75L73.0625 73.625L78.0625 74.875H81.8125L83.0625 72.375L81.8125 71.75H83.6875V73.625H85.5625L84.9375 71.75V66.125L85.5625 68.625H86.8125L86.1875 66.75L88.0625 67.375L88.6875 68.625L89.9375 67.375L90.5625 69.875L91.8125 70.5L93.0625 68L95.5625 71.75L96.1875 69.875L97.4375 71.75L98.0625 69.875L100.562 72.375L101.188 69.875L100.562 66.75L95.5625 64.25L94.9375 63L93.6875 62.375Z" fill="#171B19"/>
<path d="M54.3125 48.625H59.3125V51.125V51.75H56.1875L54.9375 54.875L52.4375 55.5L51.8125 62.375L47.4375 61.75L46.8125 66.125L43.0625 65.5L41.8125 64.875L42.4375 69.25L39.3125 68L36.8125 63.625L37.4375 58L46.1875 53.625L54.3125 48.625Z" fill="#161A18"/>
<path d="M117.438 69.25H121.812L124.938 72.375L125.562 76.125L124.938 77.375H129.938L126.812 80.5L121.188 84.25L115.562 84.875H108.062L106.812 84.25L106.188 85.5L106.812 82.375L111.188 79.875L118.062 77.375L120.562 76.75L121.188 73L120.562 72.375L118.688 74.875L114.312 73.625L115.562 69.875L117.438 69.25Z" fill="#3A3A38"/>
<path d="M64.3125 95.5L67.4375 96.125L68.6875 98L66.8125 103.625V109.25L64.9375 111.125L58.6875 114.875H53.6875L49.3125 113.625L47.4375 113V111.75L57.4375 109.875L61.8125 108.625L63.6875 100.5L64.3125 95.5Z" fill="#403934"/>
<path d="M13.0625 5.5H14.3125L13.0625 11.75L16.1875 14.25V17.375L5.5625 18.625L0.5625 19.25L2.4375 16.125L7.4375 12.375L11.1875 9.25L13.0625 5.5Z" fill="#393D3A"/>
<path d="M59.3125 48.625H63.6875L69.9375 50.5L77.4375 54.25L78.0625 58L75.5625 56.75L71.1875 54.25L70.5625 55.5L66.8125 54.25L59.9375 51.125L59.3125 48.625Z" fill="#292D27"/>
<path d="M64.3125 95.5L67.4375 96.125L68.6875 98L66.8125 103.625V109.25L63.0625 110.5L61.8125 109.875L62.4375 105.5L64.3125 95.5Z" fill="#45362D"/>
<path d="M81.8125 64.875H85.5625V73.625H83.6875V71.75L80.5625 71.125L76.8125 68.625L79.9375 65.5L81.8125 64.875Z" fill="#2A2E28"/>
<path d="M117.438 69.25H121.812L124.938 72.375L125.562 76.125L123.062 77.375V72.375L120.562 71.125L119.312 74.25L117.438 74.875L114.312 73.625L115.562 69.875L117.438 69.25Z" fill="#262E28"/>
<path d="M67.4375 71.75L73.0625 73.625L81.8125 75.5L81.1875 76.75L77.4375 77.375L71.1875 76.75L67.4375 73V71.75ZM81.8125 71.75H83.6875L83.0625 74.25V72.375L81.8125 71.75Z" fill="#161C18"/>
<path d="M93.6875 62.375L101.812 63.625L110.562 65.5V66.125H103.062V67.375L100.562 66.75L95.5625 64.25L94.9375 63L93.6875 62.375Z" fill="#1E211E"/>
<path d="M53.6875 58L63.6875 58.625L65.5625 60.5H59.9375L56.8125 61.75L54.3125 61.125L53.0625 58.625L53.6875 58Z" fill="#161F19"/>
<path d="M64.3125 95.5L67.4375 96.125L66.8125 101.125L66.1875 103L64.3125 104.875L63.6875 104.25L64.3125 95.5Z" fill="#4C3224"/>
<path d="M77.4375 82.375H80.5625L81.8125 85.5L84.9375 87.375L85.5625 89.25L88.6875 89.875L89.9375 91.75L86.1875 90.5L80.5625 86.125L77.4375 82.375Z" fill="#312F2C"/>
<path d="M116.188 70.5L118.688 71.125L119.312 74.25L117.438 74.875L114.312 73.625L114.938 71.125L116.188 70.5Z" fill="#E8E7E5"/>
<path d="M72.4375 52.375L76.8125 53.625L78.0625 58L75.5625 56.75L71.8125 54.25L72.4375 52.375Z" fill="#222C24"/>
<path d="M121.188 71.125L123.688 72.375V76.125L121.188 77.375L120.562 76.125L121.188 73V71.125Z" fill="#E2E1DF"/>
<path d="M60.5625 108.625H61.8125V109.875L66.1875 109.25V110.5L61.8125 113L60.5625 112.375L59.3125 109.25L60.5625 108.625Z" fill="#3D3C39"/>
<path d="M121.188 69.875L123.688 70.5L125.562 74.25L124.938 76.75L123.062 77.375V72.375L122.438 70.5L121.188 69.875Z" fill="#222925"/>
<path d="M64.3125 95.5L67.4375 96.125L64.9375 99.25L66.1875 99.875H64.9375L64.3125 103L63.6875 100.5L64.3125 95.5Z" fill="#3F3934"/>
</svg>
