<svg width="361" height="323" viewBox="0 0 361 323" fill="none" xmlns="http://www.w3.org/2000/svg">
<path d="M50.0909 0H62.1818L84.6364 6.90909L88.0909 8.63636L93.2727 19L107.091 29.3636L120.909 57L126.091 65.6364L138.182 100.182L141.636 114L146.818 124.364L179.636 138.182L219.364 160.636L253.909 177.909L269.455 190L272.909 196.909L264.273 193.455L257.364 188.273L248.727 183.091L233.182 172.727L205.545 158.909L193.455 152L196.909 158.909L188.273 165.818L183.091 167.545L190 172.727L188.273 177.909H179.636L174.455 174.455L155.455 171L160.636 179.636L162.364 190H158.909V193.455H169.273V196.909L186.545 195.182L183.091 200.364H167.545L165.818 205.545L157.182 203.818V209L150.273 207.273L143.364 200.364L134.727 202.091L126.091 210.727L117.455 238.364L110.545 234.909L105.364 231.455V228H101.909L86.3636 207.273L79.4545 190L77.7273 181.364V146.818L81.1818 141.636L89.8182 139.909L84.6364 141.636L79.4545 139.909V101.909H84.6364V98.4545H79.4545L77.7273 95L76 77.7273L67.3636 63.9091L57 55.2727L48.3636 51.8182H24.1818L12.0909 57H1.72727L0 50.0909L10.3636 41.4545L19 38L25.9091 31.0909H29.3636V27.6364L36.2727 24.1818L43.1818 34.5455L60.4545 24.1818H63.9091L58.7273 19L44.9091 22.4545L39.7273 27.6364V22.4545H32.8182L36.2727 12.0909L44.9091 1.72727L50.0909 0Z" fill="#5E402D"/>
<path d="M234.909 188.273L243.545 190L247 196.909L264.273 202.091L272.909 205.545H281.545L272.909 196.909L281.545 200.364L295.364 209H329.909L333.364 214.182L331.636 221.091L328.182 226.273L340.273 222.818L350.636 210.727H354.091L355.818 221.091L359.273 222.818V228L355.818 229.727L361 234.909L354.091 240.091L348.909 247L355.818 252.182L354.091 253.909H329.909L331.636 264.273L319.545 269.455L305.727 271.182L300.545 279.818L293.636 290.182L279.818 298.818L259.091 300.545L243.545 298.818L233.182 291.909L228 276.364L226.273 259.091L219.364 257.364V253.909L198.636 247V243.545L188.273 240.091L183.091 234.909V231.455L167.545 229.727L164.091 226.273L165.818 219.364L164.091 215.909L181.364 214.182L177.909 207.273L184.818 205.545L186.545 198.636L191.727 196.909L193.455 191.727L205.545 195.182L200.364 198.636H195.182L203.818 200.364L221.091 198.636L229.727 196.909H234.909L229.727 193.455L240.091 195.182L234.909 188.273Z" fill="#D0BD9E"/>
<path d="M190 150.273L200.364 153.727L210.727 160.637L240.091 174.455L252.182 184.818L262.545 190L285 205.546V207.273H272.909L247 196.909L241.818 190L240.091 191.727V195.182H234.909L236.636 198.637H222.818L215.909 200.364L195.182 202.091V198.637L202.091 195.182L193.455 193.455L191.727 200.364H186.545L184.818 205.546L179.636 209L183.091 215.909L165.818 217.637L167.545 221.091H164.091L167.545 228L183.091 231.455L191.727 240.091L198.636 243.546V247L209 248.727L219.364 253.909V257.364L226.273 259.091L231.455 285L236.636 293.637L248.727 298.818H279.818V300.546L271.182 302.273L224.545 304L209 309.182L198.636 307.455L190 302.273L191.727 312.637L184.818 314.364L179.636 316.091V319.546L176.182 321.273L126.091 323V319.546H129.545V316.091H124.364V312.637L146.818 309.182L169.273 304L171 300.546V285L165.818 278.091L157.182 272.909L133 255.637L117.455 243.546V240.091L114 238.364H117.455L120.909 221.091L126.091 209L136.455 198.637L145.091 200.364L152 207.273L157.182 209V203.818H165.818L167.545 200.364L183.091 198.637V196.909H169.273V193.455H158.909V190H162.364L158.909 184.818L157.182 176.182L155.455 171L174.455 172.727L179.636 176.182H188.273L190 172.727L183.091 169.273L181.364 165.818L190 162.364L196.909 155.455L190 152V150.273Z" fill="#EAE2CE"/>
<path d="M50.0909 0H62.1818L84.6364 6.90909L88.0909 8.63636L93.2727 19L107.091 29.3636L120.909 57L126.091 65.6364L138.182 100.182L136.455 105.364L129.545 95L122.636 91.5454H89.8182L79.4545 96.7273L77.7273 95L76 77.7273L67.3636 63.9091L57 55.2727L48.3636 51.8182H24.1818L12.0909 57H1.72727L0 50.0909L10.3636 41.4545L19 38L25.9091 31.0909H29.3636V27.6364L36.2727 24.1818L43.1818 34.5455L60.4545 24.1818H63.9091L58.7273 19L44.9091 22.4545L39.7273 27.6364V22.4545H32.8182L36.2727 12.0909L44.9091 1.72727L50.0909 0Z" fill="#D1BE9F"/>
<path d="M234.909 188.273L243.545 190L247 196.909L264.273 202.091L272.909 205.545H281.545L272.909 196.909L281.545 200.364L295.364 209H329.909L333.364 214.182L331.636 221.091L328.182 226.273L340.273 222.818L352.364 212.455L350.636 221.091L342 228L329.909 229.727V234.909L324.727 236.636L323 241.818H312.636L309.182 243.545L316.091 247H307.455V250.455L286.727 253.909L279.818 252.182L272.909 245.273L267.727 236.636L252.182 233.182L241.818 228V226.273L274.636 224.545H291.909L321.273 229.727L316.091 224.545L307.455 219.364L252.182 217.636L250.455 221.091L241.818 222.818L228 229.727L209 228L210.727 222.818H226.273L221.091 217.636L219.364 221.091L205.545 214.182L210.727 210.727L221.091 209L234.909 215.909L229.727 217.636L236.636 219.364L240.091 212.455L231.455 209L229.727 203.818L207.273 205.545L200.364 207.273H193.455L190 205.545L191.727 215.909L190 222.818L188.273 214.182V207.273H183.091L184.818 212.455L177.909 209L184.818 205.545L186.545 198.636L191.727 196.909L193.455 191.727L205.545 195.182L200.364 198.636H195.182L203.818 200.364L221.091 198.636L229.727 196.909H234.909L229.727 193.455L240.091 195.182L234.909 188.273Z" fill="#3A312A"/>
<path d="M200.364 203.818H205.545H229.727L241.818 215.909L236.636 219.364L229.727 221.091L228 215.909H233.182L219.364 210.727L214.182 212.454L210.727 210.727L209 214.182L219.364 219.364L226.273 217.636L228 224.545H210.727L209 228H228L245.273 219.364L252.182 217.636H307.455L321.273 226.273V229.727L305.727 228L278.091 226.273H260.818L245.273 228L257.364 233.182L269.455 236.636L276.364 248.727L281.545 252.182L300.545 250.454L304 248.727L307.455 250.454L309.182 241.818L317.818 240.091H323L326.455 233.182L324.727 229.727L345.455 224.545L350.636 219.364V210.727H354.091L355.818 221.091L359.273 222.818V228L355.818 229.727L361 234.909L354.091 240.091L348.909 247L355.818 252.182L354.091 253.909H329.909L331.636 264.273L319.545 269.454L305.727 271.182L304 267.727L297.091 264.273L288.455 260.818L281.545 259.091V255.636L272.909 252.182L269.455 243.545L262.545 240.091L243.545 233.182L231.455 234.909L222.818 238.364L224.545 248.727L222.818 252.182L217.636 250.454L215.909 247V234.909L202.091 233.182L195.182 228V222.818H191.727L190 215.909V205.545L198.636 207.273L200.364 203.818Z" fill="#E4DCCC"/>
<path d="M190 150.273L200.364 153.727L210.727 160.637L240.091 174.455L252.182 184.818L262.545 190L285 205.546V207.273H272.909L247 196.909L241.818 190L240.091 191.727V195.182H234.909L236.636 198.637H222.818L215.909 200.364L195.182 202.091V198.637L202.091 195.182L193.455 193.455L191.727 200.364H183.091V196.909H169.273V193.455H158.909V190H162.364L158.909 184.818L157.182 176.182L155.455 171L174.455 172.727L179.636 176.182H188.273L190 172.727L183.091 169.273L181.364 165.818L190 162.364L196.909 155.455L190 152V150.273Z" fill="#E1D9C7"/>
<path d="M50.0909 0H62.1818L84.6364 6.90909L88.0909 8.63636L93.2727 19L107.091 29.3636L124.364 63.9091V72.5454L114 81.1818L105.364 79.4545V67.3636H108.818L101.909 58.7273L96.7273 46.6364L84.6364 29.3636L76 27.6364H62.1818L53.5454 36.2727L46.6364 39.7273V32.8182L60.4545 24.1818H63.9091L58.7273 19L44.9091 22.4545L39.7273 27.6364V22.4545H32.8182L36.2727 12.0909L44.9091 1.72727L50.0909 0Z" fill="#192C1F"/>
<path d="M317.818 209H329.909L333.364 214.182L331.636 221.091L328.182 226.273L340.273 222.818L352.364 212.455L350.636 221.091L342 228L329.909 229.727V234.909L324.727 236.636L323 241.818H312.636L309.182 243.545L316.091 247H307.455V250.455L286.727 253.909L279.818 252.182L272.909 245.273L267.727 236.636L252.182 233.182L241.818 228V226.273L274.636 224.545H291.909L321.273 229.727L317.818 221.091L324.727 219.364V214.182L316.091 212.455L317.818 209Z" fill="#1B1E1B"/>
<path d="M350.636 210.727H354.091L355.818 221.091L359.273 222.818V228L355.818 229.727L361 234.909L354.091 240.091L348.909 247L355.818 252.182L354.091 253.909H329.909L331.636 264.273L319.545 269.455L305.727 271.182L304 266L307.455 264.273H314.364L307.455 257.364V253.909L304 250.455H307.455L309.182 241.818L317.818 240.091H323L326.455 233.182L324.727 229.727L345.455 224.545L350.636 219.364V210.727Z" fill="#CDBCA1"/>
<path d="M160.636 267.727L167.545 269.454L176.182 278.091L188.273 281.545V304L190 312.636L179.636 316.091V319.545L176.182 321.273L126.091 323V319.545H129.545V316.091H124.364V312.636L146.818 309.182L169.273 304L171 300.545V285L162.364 274.636L160.636 267.727Z" fill="#CEA771"/>
<path d="M76 25.9092L84.6364 27.6365L95 41.4546L101.909 51.8183L105.364 60.4546L108.818 67.3637H105.364L107.091 79.4546L117.455 77.7274L122.636 72.5455L126.091 65.6365L138.182 100.182L136.455 105.364L129.545 95.0001L122.636 91.5455H89.8182L79.4545 96.7274L77.7273 95.0001L76 77.7274L67.3636 63.9092L57 55.2728L48.3636 51.8183L34.5455 50.091V48.3637L53.5455 44.9092L58.7273 50.091V53.5455L67.3636 57.0001L76 65.6365L82.9091 84.6365L103.636 82.9092L100.182 70.8183V63.9092L98.4545 51.8183H95L89.8182 43.1819L81.1818 31.091L76 29.3637V25.9092Z" fill="#E5DBC6"/>
<path d="M245.273 193.455L247 196.909L264.273 202.091L272.909 205.545H281.545L272.909 196.909L281.545 200.364L295.364 209H317.818L324.727 212.455L326.455 219.364L317.818 221.091L316.091 224.545L307.455 219.364L262.545 217.636L250.455 212.455L238.364 205.545L241.818 196.909L245.273 193.455Z" fill="#493123"/>
<path d="M183.091 207.273H188.273L190 214.182V221.091L195.182 222.818V228L202.091 231.455L215.909 234.909L219.364 250.455V255.636L205.545 248.727L198.636 247V243.545L188.273 240.091L183.091 234.909V231.455L167.545 229.727L164.091 226.273L165.818 219.364L164.091 215.909L181.364 214.182L183.091 207.273Z" fill="#AE9080"/>
<path d="M34.5455 24.1819L41.4545 32.8182L50.0909 41.4546L39.7273 48.3637L13.8182 55.2728L12.0909 57.0001H1.72727L0 50.091L10.3636 41.4546L19 38.0001L25.9091 31.091H29.3636V27.6364L34.5455 24.1819Z" fill="#D0A670"/>
<path d="M350.636 210.727H354.091L355.818 221.091L359.273 222.818V228L355.818 229.727L361 234.909L354.091 240.091L348.909 247L355.818 252.182L354.091 253.909H338.545L343.727 250.455V245.273L324.727 243.545L329.909 234.909L326.455 233.182L324.727 229.727L345.455 224.545L350.636 219.364V210.727Z" fill="#E2DCCD"/>
<path d="M252.182 217.636H307.455L321.273 226.273V229.727L305.727 228L278.091 226.273H247L245.273 219.364L252.182 217.636Z" fill="#DED7C6"/>
<path d="M245.273 229.727L267.727 234.909L276.364 248.727L281.545 252.182L300.545 250.455L304 248.727V252.182L309.182 253.909L312.636 260.818L316.091 266H298.818L293.636 264.273L288.455 260.818L281.545 259.091V255.636L272.909 252.182L269.455 243.545L262.545 240.091L245.273 233.182V229.727Z" fill="#E2DBCA"/>
<path d="M164.091 152H172.727L181.364 162.364L184.818 165.818V169.273L190 172.727L188.273 177.909H179.636L174.455 174.455L164.091 171L160.636 155.455L164.091 152Z" fill="#D7C6AD"/>
<path d="M215.909 209L226.273 210.727L234.909 215.909L229.727 217.636L236.636 219.364L238.364 215.909L248.727 217.636L241.818 222.818L228 229.727L209 228L210.727 222.818H226.273L221.091 217.636L219.364 221.091L205.545 214.182L210.727 210.727L215.909 209Z" fill="#232723"/>
<path d="M196.909 228L202.091 231.455L215.909 234.909L219.364 250.455V255.636L205.545 248.727L198.636 247V243.545L188.273 240.091L186.545 236.636L195.182 233.182L196.909 228Z" fill="#BC9C89"/>
<path d="M186.545 145.091L195.182 146.818L226.273 164.091L255.636 179.637L269.455 190L272.909 196.909L264.273 193.455L257.364 188.273L248.727 183.091L233.182 172.727L205.545 158.909L186.545 146.818V145.091Z" fill="#3E2E26"/>
<path d="M234.909 188.273L243.545 190V196.909L240.091 203.818L255.636 214.182L262.545 217.636H252.182L250.455 221.091L240.091 215.909V212.455L231.455 209L229.727 202.091L234.909 196.909L229.727 193.455L240.091 195.182L234.909 188.273Z" fill="#44362D"/>
<path d="M195.182 174.454L207.273 176.182L222.818 191.727V195.182L205.545 198.636L209 193.454L207.273 191.727L198.636 186.545L195.182 179.636V174.454Z" fill="#452E22"/>
<path d="M57 17.2727L63.9091 20.7273V24.1818L48.3636 32.8182L41.4545 36.2727L34.5455 25.9091L29.3636 27.6363V31.0909H25.9091L27.6364 24.1818L32.8182 20.7273L39.7273 22.4545L41.4545 25.9091L44.9091 20.7273L57 17.2727Z" fill="#E2DED1"/>
<path d="M288.455 207.273L295.364 209H317.818L324.727 212.455L326.455 219.364L317.818 221.091L316.091 224.545L298.818 214.182L288.455 209V207.273Z" fill="#212422"/>
<path d="M76 25.9092L84.6364 27.6365L95 41.4546L101.909 51.8183L105.364 60.4546L108.818 67.3637H105.364L107.091 79.4546L110.545 82.9092L103.636 81.1819L100.182 70.8183V63.9092L98.4545 51.8183H95L89.8182 43.1819L81.1818 31.091L76 29.3637V25.9092Z" fill="#D8D1C2"/>
<path d="M55.2727 5.18188H67.3636V10.3637L65.6364 15.5455H62.1818V12.091H57V15.5455L44.9091 17.2728L36.2727 20.7273L38 13.8182L48.3636 6.90916L55.2727 5.18188Z" fill="#D8D4C9"/>
<path d="M153.727 191.727L169.273 193.455V196.909L186.545 195.182L183.091 200.364H167.545L165.818 205.545H155.455L153.727 198.636L150.273 193.455L153.727 191.727Z" fill="#D0C0A8"/>
<path d="M329.909 236.636H350.636V240.091L354.091 241.818L348.909 247L355.818 252.182L354.091 253.909H338.545L343.727 250.455V245.273L324.727 243.546L329.909 236.636Z" fill="#EAE4D2"/>
<path d="M171 158.909H174.455L181.364 169.273L190 172.727L188.273 177.909H179.636L167.545 172.727L169.273 160.636L171 158.909Z" fill="#4E3223"/>
<path d="M226.273 203.818H229.727L241.818 215.909L236.636 219.364L229.727 221.091L228 215.909H233.182L219.364 210.727L214.182 212.454L210.727 210.727L209 214.182L205.545 210.727L226.273 203.818Z" fill="#B1B0AB"/>
<path d="M215.909 209L226.273 210.727L234.909 215.909L229.727 217.636L228 222.818L221.091 217.636L219.364 221.091L205.545 214.182L210.727 210.727L215.909 209Z" fill="#415C54"/>
<path d="M50.0909 0H62.1818L70.8182 1.72727L67.3636 6.90909H55.2727L41.4546 12.0909L36.2727 15.5455L39.7273 6.90909L44.9091 1.72727L50.0909 0Z" fill="#1E3629"/>
<path d="M160.636 267.727L167.545 269.454L176.182 278.091L188.273 281.545L184.818 283.273H177.909L174.455 297.091H172.727L169.273 281.545L162.364 274.636L160.636 267.727Z" fill="#D6C09D"/>
<path d="M57 12.0908H62.1818L63.9091 17.2726L44.9091 22.4545L39.7273 27.6363V22.4545H32.8182L36.2727 15.5454V20.7272L50.0909 13.8181L57 15.5454V12.0908Z" fill="#2E3F32"/>
<path d="M136.455 317.818H179.636L176.182 321.273L126.091 323V319.545L136.455 317.818Z" fill="#DDC19B"/>
<path d="M200.364 212.455L207.273 214.182L219.364 219.364L226.273 217.636L228 224.545L210.727 222.818L203.818 217.636L198.636 214.182L200.364 212.455Z" fill="#B1B0AB"/>
<path d="M222.818 196.909L231.455 198.636L234.909 202.091L214.182 205.545L209 200.363L215.909 198.636L222.818 196.909Z" fill="#242421"/>
<path d="M88.0909 10.3638L96.7273 13.8183L107.091 27.6365H101.909L89.8182 17.2729L88.0909 10.3638Z" fill="#DBD9D2"/>
<path d="M234.909 188.273L243.545 190V196.909L238.364 205.545L233.182 203.818L231.455 198.636L234.909 196.909L229.727 193.455L240.091 195.182L234.909 188.273Z" fill="#38342F"/>
<path d="M350.636 212.455L352.364 219.364L342 228L324.727 229.727L328.182 226.273L340.273 222.818L350.636 212.455Z" fill="#272724"/>
<path d="M76 25.9092L84.6364 27.6365L95 41.4546L96.7273 46.6365L89.8182 43.1819L81.1818 31.091L76 29.3637V25.9092Z" fill="#DDD8C8"/>
<path d="M241.818 221.091L248.727 222.818L243.545 233.182L233.182 229.727L234.909 224.545L241.818 221.091Z" fill="#EAE6DA"/>
<path d="M160.636 195.182H186.545L183.091 200.364L164.091 202.091L160.636 195.182Z" fill="#634D3D"/>
<path d="M186.545 145.091L195.182 146.818L215.909 158.909V160.637H207.273L198.636 153.727L186.545 146.818V145.091Z" fill="#412B20"/>
<path d="M302.273 272.909L304 278.091L295.364 291.909L285 298.818L279.818 297.091L290.182 290.182H293.636L297.091 283.273L302.273 272.909Z" fill="#E9E4D5"/>
<path d="M196.909 231.455L209 234.909L202.091 238.364L198.636 241.818L195.182 243.545L186.545 238.364L193.455 234.909L196.909 231.455Z" fill="#513526"/>
<path d="M129.545 310.909H145.091L143.364 316.091L129.545 317.818L124.364 316.091V312.636L129.545 310.909Z" fill="#D1AF81"/>
<path d="M316.091 212.455H324.727L326.455 219.364L317.818 221.091L312.636 217.636V214.182L316.091 212.455Z" fill="#E5E4E2"/>
<path d="M328.182 231.455L331.636 233.182H352.364V236.636L348.909 238.364H333.364L326.455 233.182L328.182 231.455Z" fill="#A39A8B"/>
<path d="M60.4545 24.1819L62.1818 27.6364L53.5455 36.2728L46.6364 39.7273V32.8182L60.4545 24.1819Z" fill="#272723"/>
<path d="M31.0909 20.7273L39.7273 22.4546L43.1818 31.0909L41.4545 36.2727L34.5455 25.9091L29.3636 27.6364V31.0909H25.9091L27.6364 24.1818L31.0909 20.7273Z" fill="#E6C49B"/>
<path d="M272.909 196.909L281.545 200.363L293.636 210.727L297.091 214.182L288.455 212.454L278.091 209L281.545 205.545L272.909 196.909Z" fill="#80786A"/>
<path d="M324.727 236.636L329.909 238.364L319.545 247L307.455 245.273L312.636 240.091H323L324.727 236.636Z" fill="#D2CDC0"/>
<path d="M214.182 238.364H215.909L219.364 250.455V255.636L205.545 248.727L212.455 243.546L214.182 238.364Z" fill="#4E3223"/>
<path d="M229.727 202.091L241.818 205.545V212.454L234.909 210.727L229.727 207.273V202.091Z" fill="#45372E"/>
<path d="M252.182 217.636L255.636 219.364L260.818 226.273H247L245.273 219.364L252.182 217.636Z" fill="#CDC6BB"/>
<path d="M51.8182 44.9092L58.7273 50.091L57 55.2728L48.3636 51.8183L34.5455 50.091V48.3637L51.8182 44.9092Z" fill="#EAE4D3"/>
</svg>
