<svg width="1440" height="93" viewBox="0 0 1440 93" fill="none" xmlns="http://www.w3.org/2000/svg">
<path d="M-0.0699994 86C-0.759333 86 -1.32333 85.7807 -1.762 85.342C-2.20067 84.9033 -2.42 84.3393 -2.42 83.65V22.55C-2.42 21.8607 -2.20067 21.2967 -1.762 20.858C-1.32333 20.4193 -0.759333 20.2 -0.0699994 20.2H26.25C31.4513 20.2 35.9633 21.0147 39.786 22.644C43.6713 24.2107 46.6793 26.592 48.81 29.788C51.0033 32.984 52.1 37.026 52.1 41.914C52.1 46.7393 51.0033 50.7187 48.81 53.852C46.6793 56.9853 43.6713 59.304 39.786 60.808C35.9633 62.312 31.4513 63.064 26.25 63.064H15.064V83.65C15.064 84.3393 14.8133 84.9033 14.312 85.342C13.8733 85.7807 13.3093 86 12.62 86H-0.0699994ZM14.782 50.092H25.78C28.4747 50.092 30.6053 49.4027 32.172 48.024C33.8013 46.6453 34.616 44.546 34.616 41.726C34.616 39.3447 33.9267 37.3393 32.548 35.71C31.1693 34.0807 28.9133 33.266 25.78 33.266H14.782V50.092ZM87.9874 86.94C82.2221 86.94 77.2088 86 72.9474 84.12C68.6861 82.24 65.3648 79.42 62.9834 75.66C60.6021 71.8373 59.2861 67.0747 59.0354 61.372C58.9728 58.6773 58.9414 55.9827 58.9414 53.288C58.9414 50.5933 58.9728 47.8673 59.0354 45.11C59.2861 39.47 60.6021 34.7387 62.9834 30.916C65.4274 27.0307 68.7801 24.1167 73.0414 22.174C77.3028 20.2313 82.2848 19.26 87.9874 19.26C93.6274 19.26 98.5781 20.2313 102.839 22.174C107.163 24.1167 110.547 27.0307 112.991 30.916C115.435 34.7387 116.751 39.47 116.939 45.11C117.065 47.8673 117.127 50.5933 117.127 53.288C117.127 55.9827 117.065 58.6773 116.939 61.372C116.689 67.0747 115.373 71.8373 112.991 75.66C110.61 79.42 107.289 82.24 103.027 84.12C98.7661 86 93.7528 86.94 87.9874 86.94ZM87.9874 73.404C91.3088 73.404 94.0034 72.4013 96.0714 70.396C98.2021 68.3907 99.3301 65.1947 99.4554 60.808C99.5808 58.0507 99.6434 55.45 99.6434 53.006C99.6434 50.562 99.5808 48.024 99.4554 45.392C99.3301 42.4467 98.7661 40.0653 97.7634 38.248C96.8234 36.368 95.5074 34.9893 93.8154 34.112C92.1234 33.2347 90.1808 32.796 87.9874 32.796C85.8568 32.796 83.9454 33.2347 82.2534 34.112C80.5614 34.9893 79.2141 36.368 78.2114 38.248C77.2088 40.0653 76.6448 42.4467 76.5194 45.392C76.4568 48.024 76.4254 50.562 76.4254 53.006C76.4254 55.45 76.4568 58.0507 76.5194 60.808C76.7074 65.1947 77.8354 68.3907 79.9034 70.396C81.9714 72.4013 84.6661 73.404 87.9874 73.404ZM130.373 86C129.684 86 129.12 85.7807 128.681 85.342C128.243 84.9033 128.023 84.3393 128.023 83.65V22.55C128.023 21.8607 128.243 21.2967 128.681 20.858C129.12 20.4193 129.684 20.2 130.373 20.2H155.941C164.025 20.2 170.386 22.08 175.023 25.84C179.723 29.5373 182.073 34.8013 182.073 41.632C182.073 46.0813 180.977 49.8413 178.783 52.912C176.653 55.9827 173.833 58.3013 170.323 59.868L183.295 82.992C183.483 83.368 183.577 83.7127 183.577 84.026C183.577 84.5273 183.358 84.9973 182.919 85.436C182.543 85.812 182.073 86 181.509 86H169.101C167.911 86 167.033 85.718 166.469 85.154C165.905 84.5273 165.498 83.9633 165.247 83.462L154.531 62.782H144.849V83.65C144.849 84.3393 144.63 84.9033 144.191 85.342C143.753 85.7807 143.189 86 142.499 86H130.373ZM144.849 49.528H155.753C158.699 49.528 160.892 48.8073 162.333 47.366C163.837 45.9247 164.589 43.9507 164.589 41.444C164.589 39 163.869 37.026 162.427 35.522C161.049 34.018 158.824 33.266 155.753 33.266H144.849V49.528ZM254.951 92.11C253.949 92.11 253.165 91.828 252.601 91.264C252.1 90.7627 251.693 90.324 251.379 89.948L248.183 85.718C245.739 86.5327 242.951 86.94 239.817 86.94C234.052 86.94 229.039 86 224.777 84.12C220.579 82.24 217.257 79.42 214.813 75.66C212.432 71.8373 211.147 67.0747 210.959 61.372C210.897 58.6773 210.865 55.9827 210.865 53.288C210.865 50.5933 210.897 47.8673 210.959 45.11C211.147 39.47 212.463 34.7387 214.907 30.916C217.351 27.0307 220.704 24.1167 224.965 22.174C229.227 20.2313 234.177 19.26 239.817 19.26C245.52 19.26 250.502 20.2313 254.763 22.174C259.025 24.1167 262.377 27.0307 264.821 30.916C267.265 34.7387 268.581 39.47 268.769 45.11C268.895 47.8673 268.957 50.5933 268.957 53.288C268.957 55.9827 268.895 58.6773 268.769 61.372C268.393 69.1427 266.137 75.1587 262.001 79.42L268.863 89.196C268.926 89.2587 268.989 89.384 269.051 89.572C269.114 89.76 269.145 89.948 269.145 90.136C269.208 90.6373 269.051 91.076 268.675 91.452C268.299 91.8907 267.829 92.11 267.265 92.11H254.951ZM239.817 73.404C243.139 73.404 245.833 72.4013 247.901 70.396C250.032 68.3907 251.16 65.1947 251.285 60.808C251.411 58.0507 251.473 55.45 251.473 53.006C251.473 50.562 251.411 48.024 251.285 45.392C251.223 42.4467 250.69 40.0653 249.687 38.248C248.685 36.368 247.337 34.9893 245.645 34.112C243.953 33.2347 242.011 32.796 239.817 32.796C237.687 32.796 235.775 33.2347 234.083 34.112C232.391 34.9893 231.044 36.368 230.041 38.248C229.039 40.0653 228.506 42.4467 228.443 45.392C228.381 48.024 228.349 50.562 228.349 53.006C228.349 55.45 228.381 58.0507 228.443 60.808C228.569 65.1947 229.665 68.3907 231.733 70.396C233.864 72.4013 236.559 73.404 239.817 73.404ZM307.489 86.94C301.849 86.94 296.899 86.0313 292.637 84.214C288.439 82.334 285.18 79.4827 282.861 75.66C280.543 71.7747 279.383 66.8553 279.383 60.902V22.55C279.383 21.8607 279.603 21.2967 280.041 20.858C280.48 20.4193 281.044 20.2 281.733 20.2H293.859C294.549 20.2 295.113 20.4193 295.551 20.858C295.99 21.2967 296.209 21.8607 296.209 22.55V60.808C296.209 64.8813 297.181 67.952 299.123 70.02C301.129 72.0253 303.917 73.028 307.489 73.028C310.999 73.028 313.725 72.0253 315.667 70.02C317.673 67.952 318.675 64.8813 318.675 60.808V22.55C318.675 21.8607 318.895 21.2967 319.333 20.858C319.835 20.4193 320.399 20.2 321.025 20.2H333.245C333.872 20.2 334.405 20.4193 334.843 20.858C335.345 21.2967 335.595 21.8607 335.595 22.55V60.902C335.595 66.8553 334.436 71.7747 332.117 75.66C329.799 79.4827 326.54 82.334 322.341 84.214C318.143 86.0313 313.192 86.94 307.489 86.94ZM350.41 86C349.721 86 349.157 85.7807 348.718 85.342C348.28 84.9033 348.06 84.3393 348.06 83.65V22.55C348.06 21.8607 348.28 21.2967 348.718 20.858C349.157 20.4193 349.721 20.2 350.41 20.2H394.308C394.998 20.2 395.562 20.4193 396 20.858C396.439 21.2967 396.658 21.8607 396.658 22.55V31.386C396.658 32.0753 396.439 32.6393 396 33.078C395.562 33.5167 394.998 33.736 394.308 33.736H364.322V46.426H392.24C392.93 46.426 393.494 46.6767 393.932 47.178C394.371 47.6167 394.59 48.1807 394.59 48.87V57.048C394.59 57.6747 394.371 58.2387 393.932 58.74C393.494 59.1787 392.93 59.398 392.24 59.398H364.322V72.464H395.06C395.75 72.464 396.314 72.6833 396.752 73.122C397.191 73.5607 397.41 74.1247 397.41 74.814V83.65C397.41 84.3393 397.191 84.9033 396.752 85.342C396.314 85.7807 395.75 86 395.06 86H350.41ZM454.991 86.94C449.226 86.94 444.213 86 439.951 84.12C435.69 82.24 432.369 79.42 429.987 75.66C427.606 71.8373 426.29 67.0747 426.039 61.372C425.977 58.6773 425.945 55.9827 425.945 53.288C425.945 50.5933 425.977 47.8673 426.039 45.11C426.29 39.47 427.606 34.7387 429.987 30.916C432.431 27.0307 435.784 24.1167 440.045 22.174C444.307 20.2313 449.289 19.26 454.991 19.26C460.631 19.26 465.582 20.2313 469.843 22.174C474.167 24.1167 477.551 27.0307 479.995 30.916C482.439 34.7387 483.755 39.47 483.943 45.11C484.069 47.8673 484.131 50.5933 484.131 53.288C484.131 55.9827 484.069 58.6773 483.943 61.372C483.693 67.0747 482.377 71.8373 479.995 75.66C477.614 79.42 474.293 82.24 470.031 84.12C465.77 86 460.757 86.94 454.991 86.94ZM454.991 73.404C458.313 73.404 461.007 72.4013 463.075 70.396C465.206 68.3907 466.334 65.1947 466.459 60.808C466.585 58.0507 466.647 55.45 466.647 53.006C466.647 50.562 466.585 48.024 466.459 45.392C466.334 42.4467 465.77 40.0653 464.767 38.248C463.827 36.368 462.511 34.9893 460.819 34.112C459.127 33.2347 457.185 32.796 454.991 32.796C452.861 32.796 450.949 33.2347 449.257 34.112C447.565 34.9893 446.218 36.368 445.215 38.248C444.213 40.0653 443.649 42.4467 443.523 45.392C443.461 48.024 443.429 50.562 443.429 53.006C443.429 55.45 443.461 58.0507 443.523 60.808C443.711 65.1947 444.839 68.3907 446.907 70.396C448.975 72.4013 451.67 73.404 454.991 73.404ZM517.389 86C516.7 86 516.136 85.7807 515.697 85.342C515.258 84.9033 515.039 84.3393 515.039 83.65V22.55C515.039 21.8607 515.258 21.2967 515.697 20.858C516.136 20.4193 516.7 20.2 517.389 20.2H543.709C548.91 20.2 553.422 21.0147 557.245 22.644C561.13 24.2107 564.138 26.592 566.269 29.788C568.462 32.984 569.559 37.026 569.559 41.914C569.559 46.7393 568.462 50.7187 566.269 53.852C564.138 56.9853 561.13 59.304 557.245 60.808C553.422 62.312 548.91 63.064 543.709 63.064H532.523V83.65C532.523 84.3393 532.272 84.9033 531.771 85.342C531.332 85.7807 530.768 86 530.079 86H517.389ZM532.241 50.092H543.239C545.934 50.092 548.064 49.4027 549.631 48.024C551.26 46.6453 552.075 44.546 552.075 41.726C552.075 39.3447 551.386 37.3393 550.007 35.71C548.628 34.0807 546.372 33.266 543.239 33.266H532.241V50.092ZM570.213 86C569.711 86 569.241 85.812 568.803 85.436C568.427 84.9973 568.239 84.5273 568.239 84.026C568.239 83.7127 568.27 83.4307 568.333 83.18L590.423 22.832C590.611 22.1427 590.987 21.5473 591.551 21.046C592.177 20.482 593.023 20.2 594.089 20.2H608.001C609.066 20.2 609.881 20.482 610.445 21.046C611.071 21.5473 611.479 22.1427 611.667 22.832L633.663 83.18C633.788 83.4307 633.851 83.7127 633.851 84.026C633.851 84.5273 633.631 84.9973 633.193 85.436C632.817 85.812 632.347 86 631.783 86H620.221C619.281 86 618.56 85.7807 618.059 85.342C617.62 84.8407 617.338 84.402 617.213 84.026L613.547 74.438H588.449L584.877 84.026C584.751 84.402 584.469 84.8407 584.031 85.342C583.592 85.7807 582.84 86 581.775 86H570.213ZM592.303 60.902H609.787L600.951 36.086L592.303 60.902ZM651.385 86C650.695 86 650.131 85.7807 649.693 85.342C649.254 84.9033 649.035 84.3393 649.035 83.65V34.958H632.303C631.613 34.958 631.049 34.7387 630.611 34.3C630.172 33.7987 629.953 33.2347 629.953 32.608V22.55C629.953 21.8607 630.172 21.2967 630.611 20.858C631.049 20.4193 631.613 20.2 632.303 20.2H682.875C683.564 20.2 684.128 20.4193 684.567 20.858C685.005 21.2967 685.225 21.8607 685.225 22.55V32.608C685.225 33.2347 685.005 33.7987 684.567 34.3C684.128 34.7387 683.564 34.958 682.875 34.958H666.143V83.65C666.143 84.3393 665.923 84.9033 665.485 85.342C665.046 85.7807 664.482 86 663.793 86H651.385ZM719.642 86.94C713.876 86.94 708.863 86 704.602 84.12C700.34 82.24 697.019 79.42 694.638 75.66C692.256 71.8373 690.94 67.0747 690.69 61.372C690.627 58.6773 690.596 55.9827 690.596 53.288C690.596 50.5933 690.627 47.8673 690.69 45.11C690.94 39.47 692.256 34.7387 694.638 30.916C697.082 27.0307 700.434 24.1167 704.696 22.174C708.957 20.2313 713.939 19.26 719.642 19.26C725.282 19.26 730.232 20.2313 734.494 22.174C738.818 24.1167 742.202 27.0307 744.646 30.916C747.09 34.7387 748.406 39.47 748.594 45.11C748.719 47.8673 748.782 50.5933 748.782 53.288C748.782 55.9827 748.719 58.6773 748.594 61.372C748.343 67.0747 747.027 71.8373 744.646 75.66C742.264 79.42 738.943 82.24 734.682 84.12C730.42 86 725.407 86.94 719.642 86.94ZM719.642 73.404C722.963 73.404 725.658 72.4013 727.726 70.396C729.856 68.3907 730.984 65.1947 731.11 60.808C731.235 58.0507 731.298 55.45 731.298 53.006C731.298 50.562 731.235 48.024 731.11 45.392C730.984 42.4467 730.42 40.0653 729.418 38.248C728.478 36.368 727.162 34.9893 725.47 34.112C723.778 33.2347 721.835 32.796 719.642 32.796C717.511 32.796 715.6 33.2347 713.908 34.112C712.216 34.9893 710.868 36.368 709.866 38.248C708.863 40.0653 708.299 42.4467 708.174 45.392C708.111 48.024 708.08 50.562 708.08 53.006C708.08 55.45 708.111 58.0507 708.174 60.808C708.362 65.1947 709.49 68.3907 711.558 70.396C713.626 72.4013 716.32 73.404 719.642 73.404ZM782.039 86C781.35 86 780.786 85.7807 780.347 85.342C779.909 84.9033 779.689 84.3393 779.689 83.65V22.55C779.689 21.8607 779.909 21.2967 780.347 20.858C780.786 20.4193 781.35 20.2 782.039 20.2H825.185C825.875 20.2 826.439 20.4193 826.877 20.858C827.379 21.2967 827.629 21.8607 827.629 22.55V32.044C827.629 32.7333 827.379 33.2973 826.877 33.736C826.439 34.1747 825.875 34.394 825.185 34.394H796.233V48.212H823.305C823.995 48.212 824.559 48.4627 824.997 48.964C825.499 49.4027 825.749 49.9667 825.749 50.656V60.056C825.749 60.6827 825.499 61.2467 824.997 61.748C824.559 62.1867 823.995 62.406 823.305 62.406H796.233V83.65C796.233 84.3393 796.014 84.9033 795.575 85.342C795.137 85.7807 794.573 86 793.883 86H782.039ZM830.273 86C829.772 86 829.302 85.812 828.863 85.436C828.487 84.9973 828.299 84.5273 828.299 84.026C828.299 83.7127 828.33 83.4307 828.393 83.18L850.483 22.832C850.671 22.1427 851.047 21.5473 851.611 21.046C852.238 20.482 853.084 20.2 854.149 20.2H868.061C869.126 20.2 869.941 20.482 870.505 21.046C871.132 21.5473 871.539 22.1427 871.727 22.832L893.723 83.18C893.848 83.4307 893.911 83.7127 893.911 84.026C893.911 84.5273 893.692 84.9973 893.253 85.436C892.877 85.812 892.407 86 891.843 86H880.281C879.341 86 878.62 85.7807 878.119 85.342C877.68 84.8407 877.398 84.402 877.273 84.026L873.607 74.438H848.509L844.937 84.026C844.812 84.402 844.53 84.8407 844.091 85.342C843.652 85.7807 842.9 86 841.835 86H830.273ZM852.363 60.902H869.847L861.011 36.086L852.363 60.902ZM900.662 86C899.973 86 899.409 85.7807 898.97 85.342C898.532 84.8407 898.312 84.2767 898.312 83.65V74.438C898.312 73.5607 898.469 72.84 898.782 72.276C899.158 71.712 899.472 71.3047 899.722 71.054L929.99 34.206H901.508C900.882 34.206 900.318 33.9867 899.816 33.548C899.378 33.1093 899.158 32.5453 899.158 31.856V22.55C899.158 21.8607 899.378 21.2967 899.816 20.858C900.318 20.4193 900.882 20.2 901.508 20.2H948.884C949.574 20.2 950.138 20.4193 950.576 20.858C951.078 21.2967 951.328 21.8607 951.328 22.55V31.668C951.328 32.3573 951.203 32.9527 950.952 33.454C950.764 33.9553 950.482 34.4253 950.106 34.864L920.684 71.806H950.012C950.702 71.806 951.266 72.0567 951.704 72.558C952.206 72.9967 952.456 73.5607 952.456 74.25V83.65C952.456 84.3393 952.206 84.9033 951.704 85.342C951.266 85.7807 950.702 86 950.012 86H900.662ZM1024.39 92.11C1023.39 92.11 1022.61 91.828 1022.04 91.264C1021.54 90.7627 1021.13 90.324 1020.82 89.948L1017.62 85.718C1015.18 86.5327 1012.39 86.94 1009.26 86.94C1003.49 86.94 998.48 86 994.219 84.12C990.02 82.24 986.699 79.42 984.255 75.66C981.873 71.8373 980.589 67.0747 980.401 61.372C980.338 58.6773 980.307 55.9827 980.307 53.288C980.307 50.5933 980.338 47.8673 980.401 45.11C980.589 39.47 981.905 34.7387 984.349 30.916C986.793 27.0307 990.145 24.1167 994.407 22.174C998.668 20.2313 1003.62 19.26 1009.26 19.26C1014.96 19.26 1019.94 20.2313 1024.2 22.174C1028.47 24.1167 1031.82 27.0307 1034.26 30.916C1036.71 34.7387 1038.02 39.47 1038.21 45.11C1038.34 47.8673 1038.4 50.5933 1038.4 53.288C1038.4 55.9827 1038.34 58.6773 1038.21 61.372C1037.83 69.1427 1035.58 75.1587 1031.44 79.42L1038.3 89.196C1038.37 89.2587 1038.43 89.384 1038.49 89.572C1038.56 89.76 1038.59 89.948 1038.59 90.136C1038.65 90.6373 1038.49 91.076 1038.12 91.452C1037.74 91.8907 1037.27 92.11 1036.71 92.11H1024.39ZM1009.26 73.404C1012.58 73.404 1015.27 72.4013 1017.34 70.396C1019.47 68.3907 1020.6 65.1947 1020.73 60.808C1020.85 58.0507 1020.91 55.45 1020.91 53.006C1020.91 50.562 1020.85 48.024 1020.73 45.392C1020.66 42.4467 1020.13 40.0653 1019.13 38.248C1018.13 36.368 1016.78 34.9893 1015.09 34.112C1013.39 33.2347 1011.45 32.796 1009.26 32.796C1007.13 32.796 1005.22 33.2347 1003.52 34.112C1001.83 34.9893 1000.49 36.368 999.483 38.248C998.48 40.0653 997.947 42.4467 997.885 45.392C997.822 48.024 997.791 50.562 997.791 53.006C997.791 55.45 997.822 58.0507 997.885 60.808C998.01 65.1947 999.107 68.3907 1001.17 70.396C1003.31 72.4013 1006 73.404 1009.26 73.404ZM1076.93 86.94C1071.29 86.94 1066.34 86.0313 1062.08 84.214C1057.88 82.334 1054.62 79.4827 1052.3 75.66C1049.98 71.7747 1048.82 66.8553 1048.82 60.902V22.55C1048.82 21.8607 1049.04 21.2967 1049.48 20.858C1049.92 20.4193 1050.49 20.2 1051.17 20.2H1063.3C1063.99 20.2 1064.55 20.4193 1064.99 20.858C1065.43 21.2967 1065.65 21.8607 1065.65 22.55V60.808C1065.65 64.8813 1066.62 67.952 1068.56 70.02C1070.57 72.0253 1073.36 73.028 1076.93 73.028C1080.44 73.028 1083.17 72.0253 1085.11 70.02C1087.11 67.952 1088.12 64.8813 1088.12 60.808V22.55C1088.12 21.8607 1088.34 21.2967 1088.77 20.858C1089.28 20.4193 1089.84 20.2 1090.47 20.2H1102.69C1103.31 20.2 1103.85 20.4193 1104.28 20.858C1104.79 21.2967 1105.04 21.8607 1105.04 22.55V60.902C1105.04 66.8553 1103.88 71.7747 1101.56 75.66C1099.24 79.4827 1095.98 82.334 1091.78 84.214C1087.58 86.0313 1082.63 86.94 1076.93 86.94ZM1112.27 86C1111.77 86 1111.3 85.812 1110.86 85.436C1110.49 84.9973 1110.3 84.5273 1110.3 84.026C1110.3 83.7127 1110.33 83.4307 1110.39 83.18L1132.48 22.832C1132.67 22.1427 1133.05 21.5473 1133.61 21.046C1134.24 20.482 1135.08 20.2 1136.15 20.2H1150.06C1151.13 20.2 1151.94 20.482 1152.51 21.046C1153.13 21.5473 1153.54 22.1427 1153.73 22.832L1175.72 83.18C1175.85 83.4307 1175.91 83.7127 1175.91 84.026C1175.91 84.5273 1175.69 84.9973 1175.25 85.436C1174.88 85.812 1174.41 86 1173.84 86H1162.28C1161.34 86 1160.62 85.7807 1160.12 85.342C1159.68 84.8407 1159.4 84.402 1159.27 84.026L1155.61 74.438H1130.51L1126.94 84.026C1126.81 84.402 1126.53 84.8407 1126.09 85.342C1125.65 85.7807 1124.9 86 1123.84 86H1112.27ZM1134.36 60.902H1151.85L1143.01 36.086L1134.36 60.902ZM1137.28 15.5C1136.27 15.5 1135.77 14.9987 1135.77 13.996C1135.77 13.4947 1135.93 13.0873 1136.24 12.774L1144.52 2.716C1145.14 1.96399 1145.67 1.494 1146.11 1.306C1146.55 1.05533 1147.18 0.929997 1147.99 0.929997H1161.15C1162.34 0.929997 1162.94 1.55666 1162.94 2.81C1162.94 3.24866 1162.78 3.62466 1162.47 3.938L1149.97 14.184C1149.47 14.6227 1148.96 14.9673 1148.46 15.218C1147.96 15.406 1147.27 15.5 1146.4 15.5H1137.28ZM1242.87 92.11C1241.87 92.11 1241.08 91.828 1240.52 91.264C1240.02 90.7627 1239.61 90.324 1239.3 89.948L1236.1 85.718C1233.66 86.5327 1230.87 86.94 1227.74 86.94C1221.97 86.94 1216.96 86 1212.7 84.12C1208.5 82.24 1205.18 79.42 1202.73 75.66C1200.35 71.8373 1199.07 67.0747 1198.88 61.372C1198.81 58.6773 1198.78 55.9827 1198.78 53.288C1198.78 50.5933 1198.81 47.8673 1198.88 45.11C1199.07 39.47 1200.38 34.7387 1202.83 30.916C1205.27 27.0307 1208.62 24.1167 1212.88 22.174C1217.14 20.2313 1222.1 19.26 1227.74 19.26C1233.44 19.26 1238.42 20.2313 1242.68 22.174C1246.94 24.1167 1250.3 27.0307 1252.74 30.916C1255.18 34.7387 1256.5 39.47 1256.69 45.11C1256.81 47.8673 1256.88 50.5933 1256.88 53.288C1256.88 55.9827 1256.81 58.6773 1256.69 61.372C1256.31 69.1427 1254.06 75.1587 1249.92 79.42L1256.78 89.196C1256.84 89.2587 1256.91 89.384 1256.97 89.572C1257.03 89.76 1257.06 89.948 1257.06 90.136C1257.13 90.6373 1256.97 91.076 1256.59 91.452C1256.22 91.8907 1255.75 92.11 1255.18 92.11H1242.87ZM1227.74 73.404C1231.06 73.404 1233.75 72.4013 1235.82 70.396C1237.95 68.3907 1239.08 65.1947 1239.2 60.808C1239.33 58.0507 1239.39 55.45 1239.39 53.006C1239.39 50.562 1239.33 48.024 1239.2 45.392C1239.14 42.4467 1238.61 40.0653 1237.61 38.248C1236.6 36.368 1235.26 34.9893 1233.56 34.112C1231.87 33.2347 1229.93 32.796 1227.74 32.796C1225.6 32.796 1223.69 33.2347 1222 34.112C1220.31 34.9893 1218.96 36.368 1217.96 38.248C1216.96 40.0653 1216.42 42.4467 1216.36 45.392C1216.3 48.024 1216.27 50.562 1216.27 53.006C1216.27 55.45 1216.3 58.0507 1216.36 60.808C1216.49 65.1947 1217.58 68.3907 1219.65 70.396C1221.78 72.4013 1224.48 73.404 1227.74 73.404ZM1295.41 86.94C1289.77 86.94 1284.82 86.0313 1280.56 84.214C1276.36 82.334 1273.1 79.4827 1270.78 75.66C1268.46 71.7747 1267.3 66.8553 1267.3 60.902V22.55C1267.3 21.8607 1267.52 21.2967 1267.96 20.858C1268.4 20.4193 1268.96 20.2 1269.65 20.2H1281.78C1282.47 20.2 1283.03 20.4193 1283.47 20.858C1283.91 21.2967 1284.13 21.8607 1284.13 22.55V60.808C1284.13 64.8813 1285.1 67.952 1287.04 70.02C1289.05 72.0253 1291.84 73.028 1295.41 73.028C1298.92 73.028 1301.64 72.0253 1303.59 70.02C1305.59 67.952 1306.59 64.8813 1306.59 60.808V22.55C1306.59 21.8607 1306.81 21.2967 1307.25 20.858C1307.75 20.4193 1308.32 20.2 1308.94 20.2H1321.16C1321.79 20.2 1322.32 20.4193 1322.76 20.858C1323.26 21.2967 1323.51 21.8607 1323.51 22.55V60.902C1323.51 66.8553 1322.35 71.7747 1320.04 75.66C1317.72 79.4827 1314.46 82.334 1310.26 84.214C1306.06 86.0313 1301.11 86.94 1295.41 86.94ZM1330.75 86C1330.25 86 1329.78 85.812 1329.34 85.436C1328.96 84.9973 1328.78 84.5273 1328.78 84.026C1328.78 83.7127 1328.81 83.4307 1328.87 83.18L1350.96 22.832C1351.15 22.1427 1351.52 21.5473 1352.09 21.046C1352.71 20.482 1353.56 20.2 1354.63 20.2H1368.54C1369.6 20.2 1370.42 20.482 1370.98 21.046C1371.61 21.5473 1372.02 22.1427 1372.2 22.832L1394.2 83.18C1394.33 83.4307 1394.39 83.7127 1394.39 84.026C1394.39 84.5273 1394.17 84.9973 1393.73 85.436C1393.35 85.812 1392.88 86 1392.32 86H1380.76C1379.82 86 1379.1 85.7807 1378.6 85.342C1378.16 84.8407 1377.88 84.402 1377.75 84.026L1374.08 74.438H1348.99L1345.41 84.026C1345.29 84.402 1345.01 84.8407 1344.57 85.342C1344.13 85.7807 1343.38 86 1342.31 86H1330.75ZM1352.84 60.902H1370.32L1361.49 36.086L1352.84 60.902ZM1355.75 15.5C1354.75 15.5 1354.25 14.9987 1354.25 13.996C1354.25 13.4947 1354.41 13.0873 1354.72 12.774L1362.99 2.716C1363.62 1.96399 1364.15 1.494 1364.59 1.306C1365.03 1.05533 1365.66 0.929997 1366.47 0.929997H1379.63C1380.82 0.929997 1381.42 1.55666 1381.42 2.81C1381.42 3.24866 1381.26 3.62466 1380.95 3.938L1368.44 14.184C1367.94 14.6227 1367.44 14.9673 1366.94 15.218C1366.44 15.406 1365.75 15.5 1364.87 15.5H1355.75ZM1413.27 66.072C1412.76 66.072 1412.33 65.9153 1411.95 65.602C1411.57 65.226 1411.39 64.7873 1411.39 64.286C1411.39 63.91 1411.39 63.5653 1411.39 63.252C1411.39 62.876 1411.39 62.5 1411.39 62.124C1411.76 59.9307 1412.48 57.9567 1413.55 56.202C1414.68 54.3847 1415.96 52.724 1417.4 51.22C1418.91 49.716 1420.35 48.306 1421.73 46.99C1423.1 45.674 1424.26 44.3893 1425.2 43.136C1426.21 41.82 1426.74 40.504 1426.8 39.188C1426.93 37.8093 1426.64 36.65 1425.96 35.71C1425.33 34.77 1424.42 34.0493 1423.23 33.548C1422.1 33.0467 1420.88 32.796 1419.56 32.796C1417.06 32.796 1415.08 33.3913 1413.64 34.582C1412.2 35.7727 1411.17 37.5273 1410.54 39.846C1410.29 40.5353 1409.94 41.0993 1409.51 41.538C1409.07 41.914 1408.44 42.102 1407.63 42.102H1396.16C1395.53 42.102 1395 41.8827 1394.56 41.444C1394.12 40.9427 1393.9 40.316 1393.9 39.564C1393.96 37.0573 1394.56 34.6133 1395.69 32.232C1396.88 29.8507 1398.57 27.6887 1400.76 25.746C1403.02 23.7407 1405.81 22.174 1409.13 21.046C1412.45 19.8553 1416.27 19.26 1420.6 19.26C1425.3 19.26 1429.21 19.824 1432.35 20.952C1435.48 22.08 1437.92 23.5527 1439.68 25.37C1441.5 27.1873 1442.78 29.13 1443.53 31.198C1444.29 33.2033 1444.6 35.0833 1444.47 36.838C1444.41 39.094 1443.97 41.1307 1443.16 42.948C1442.34 44.7653 1441.31 46.4573 1440.06 48.024C1438.86 49.528 1437.58 51.0007 1436.2 52.442C1434.89 53.8207 1433.66 55.2307 1432.54 56.672C1431.41 58.0507 1430.56 59.5233 1430 61.09C1429.87 61.5287 1429.75 61.9673 1429.62 62.406C1429.5 62.782 1429.4 63.1893 1429.34 63.628C1428.9 64.4427 1428.49 65.0693 1428.12 65.508C1427.74 65.884 1427.18 66.072 1426.43 66.072H1413.27ZM1413.45 86C1412.76 86 1412.2 85.7807 1411.76 85.342C1411.32 84.9033 1411.1 84.3393 1411.1 83.65V72.934C1411.1 72.3073 1411.32 71.7747 1411.76 71.336C1412.2 70.8347 1412.76 70.584 1413.45 70.584H1425.49C1426.17 70.584 1426.74 70.8347 1427.18 71.336C1427.68 71.7747 1427.93 72.3073 1427.93 72.934V83.65C1427.93 84.3393 1427.68 84.9033 1427.18 85.342C1426.74 85.7807 1426.17 86 1425.49 86H1413.45Z" fill="#281470"/>
</svg>
