<svg width="1440" height="1039" viewBox="0 0 1440 1039" fill="none" xmlns="http://www.w3.org/2000/svg">
<g clip-path="url(#clip0_62_2)">
<path d="M0 81H1440V1039H0V81Z" fill="#5338BA"/>
<path d="M0 81H1144.8L1145.7 412.027L1150.2 434.516L1155.6 448.908V451.607L1116 456.104L1078.2 461.501L1024.2 469.597L975.6 478.592L919.8 490.286L871.2 501.98L821.7 515.473L779.4 528.067L721.8 546.957L688.5 559.55L682.2 560.45L667.8 555.053L628.2 541.56L604.8 534.363L585 528.966L567.9 524.469L544.5 518.172L529.2 514.574L522.9 501.081L516.6 492.985L508.5 486.688L500.4 483.09L491.4 481.291H484.2L475.2 483.09L467.1 486.688L459 492.085L453.6 498.382L431.1 493.885L397.8 488.487L366.3 483.09L342 479.492L320.4 476.793L258.3 469.597L235.8 467.798L237.6 463.3L241.2 455.205L242.1 451.607V436.315L237.6 425.52L229.5 416.525L221.4 412.027L215.1 410.228L198.9 409.329L198 391.338L194.4 376.046L189.9 365.252L183.6 355.357L178.2 349.06L166.5 340.964L157.5 336.467L144.9 332.869L138.6 331.969H126L111.6 335.567L97.2 342.763L85.5 352.658L80.1 358.955L67.5 359.854L60.3 363.453L55.8 367.051L51.3 375.146L50.4 376.946V386.84L53.1 394.936L57.6 400.333L63.9 404.831L68.4 406.63V456.104L0 455.205V81Z" fill="#AD8FDE"/>
<path d="M1206.9 503.779L1212.3 505.578L1227.6 510.976L1233 537.062L1237.5 547.856L1243.8 558.651L1249.2 564.947L1260.9 573.043L1271.7 578.44L1275.3 579.34V515.473L1276.2 514.574H1356.3L1367.1 515.473V537.062L1381.5 532.564L1390.5 527.167L1395.9 520.87L1400.4 513.674L1420.2 509.177H1422.9L1422 515.473L1419.3 522.669L1413.9 533.464L1405.8 542.459L1396.8 549.655L1379.7 556.852L1367.1 558.651V677.389H1440V1039H0V904.97L0.9 859.993L3.6 858.194L38.7 850.998H40.5L41.4 849.199L45.9 856.395V859.094H47.7L50.4 863.592L55.8 868.089L64.8 870.788L75.6 869.888L84.6 866.29L92.7 859.993L97.2 853.697L99 848.3L99.9 837.505L128.7 832.108H131.4L132.3 829.409H134.1L135.9 840.204L140.4 851.898L148.5 860.893L157.5 867.19L166.5 869.888H180.9L192.6 865.391L200.7 859.094L207 850.998L210.6 843.802L211.5 839.304V823.113L209.7 818.615V815.017L225.9 812.318L287.1 800.624L332.1 791.629L339.3 790.73L340.2 794.328L349.2 796.127L343.8 803.323V806.022H351L350.1 815.916H353.7V814.117L357.3 812.318H360.9V820.414L364.5 819.515L368.1 815.916H369.9L372.6 821.314L376.2 820.414L378 814.117L381.6 815.916L384.3 818.615L387 819.515V810.519L396 811.419L395.1 806.921L393.3 802.423L402.3 801.524L403.2 797.926L399.6 796.127L396.9 793.428L403.2 789.83V786.232L397.8 785.332L396 784.433L397.8 779.935L430.2 774.538L477 766.442L558.9 752.949L616.5 743.954L671.4 735.858L754.2 724.164L828.9 715.169L898.2 707.073L993.6 697.178L1044 692.681L1119.6 686.384L1190.7 681.886L1262.7 679.188H1275.3L1274.4 601.828L1262.7 598.23L1248.3 591.034L1239.3 584.737L1230.3 576.641L1222.2 565.847L1215.9 554.153L1210.5 537.962L1208.7 529.866L1206.9 515.473V503.779Z" fill="#281470"/>
<path d="M1144.8 47.5C1144.8 -57.4341 1229.87 -142.5 1334.8 -142.5H1440V677.389H1367.1V558.651L1381.5 555.053L1396.8 548.756L1405.8 541.56L1413 533.464L1419.3 521.77L1422.9 509.177L1404 513.674H1400.4L1398.6 518.172L1392.3 526.268L1385.1 531.665L1374.3 536.162L1367.1 537.062V515.473H1276.2L1275.3 579.34L1269 578.44L1256.4 571.244L1246.5 563.148L1241.1 555.952L1233.9 542.459L1230.3 528.966L1227.6 514.574V510.976L1219.5 509.177L1208.7 504.679L1206.9 503.779L1209.6 529.866L1213.2 543.359L1217.7 555.952L1223.1 565.847L1229.4 573.943L1236.6 582.039L1248.3 590.134L1258.2 595.531L1274.4 600.929L1275.3 601.828V634.211L1259.1 633.312L1200.6 627.015L1118.7 619.819L1055.7 615.321L1014.3 612.623V601.828L1015.2 584.737L1024.2 582.039L1035.9 575.742L1043.1 568.546L1044 566.746H1045.8L1046.7 563.148L1050.3 555.053L1051.2 550.555V535.263L1046.7 523.569L1039.5 513.674L1030.5 507.377L1021.5 503.779L1017 502.88H1002.6L990 507.377L981.9 513.674L975.6 520.87L971.1 530.765L969.3 537.962V546.957L972 559.55L976.5 567.646L981 573.043L982.8 573.943V575.742L987.3 577.541L993.6 581.139L998.1 582.938L1007.1 584.737V611.723H992.7L973.8 610.823L967.5 602.728L957.6 596.431L950.4 594.632H940.5L927.9 597.331L919.8 600.029L916.2 592.833L911.7 589.235H905.4L897.3 592.833H894.6L891 585.637L886.5 582.039L883.8 581.139H873L867.6 584.737L864 589.235L862.2 595.531L850.5 596.431L841.5 600.929L837 606.326H804.6L786.6 605.426L772.2 598.23L745.2 585.637L722.7 575.742L716.4 573.043L710.1 573.943L702.9 575.742L700.2 576.641L649.8 582.039L640.8 582.938L597.6 584.737H586.8L580.5 585.637V583.838L576 584.737L571.5 583.838V585.637H562.5L553.5 586.536L543.6 587.436H532.8L527.4 585.637L519.3 584.737L491.4 583.838V564.947L499.5 562.249L508.5 557.751L516.6 551.454L522 545.158L526.5 535.263L528.3 530.765L529.2 516.373V514.574H534.6L575.1 525.368L599.4 531.665L624.6 539.761L663.3 552.354L680.4 558.651L686.7 559.55L704.7 552.354L729.9 543.359L782.1 526.268L834.3 510.976L889.2 496.583L932.4 486.688L989.1 474.994L1035.9 466.899L1089.9 458.803L1124.1 454.305L1148.4 451.607H1155.6L1149.3 434.516L1146.6 421.922L1144.8 412.027V47.5Z" fill="#422D95"/>
<path d="M864 226.724H876.6L896.4 229.423L916.2 234.82L934.2 242.016L952.2 251.911L961.2 259.107L963.9 260.906V262.705L966.6 263.605V265.404L968.4 266.303L976.5 275.299L980.1 280.696L986.4 289.691L995.4 308.581L1000.8 328.371L1004.4 346.362V352.658L1026.9 349.06H1044L1057.5 353.558L1069.2 360.754L1077.3 369.749L1083.6 380.544L1086.3 386.84V394.037H1088.1V391.338H1089.9L1090.8 386.84L1102.5 362.553L1109.7 351.759L1113.3 347.261L1120.5 340.964L1125 338.266H1134L1136.7 336.467L1140.3 326.572L1143.9 323.873L1144.8 390.439L1145.7 412.027L1150.2 434.516L1155.6 448.908V451.607L1116 456.104L1078.2 461.502L1024.2 469.597L975.6 478.593L919.8 490.286L871.2 501.98L821.7 515.473L779.4 528.067L721.8 546.957L688.5 559.55L682.2 560.45L667.8 555.053L628.2 541.56L604.8 534.363L585 528.966L567.9 524.469L544.5 518.172L529.2 514.574L522.9 501.081L516.6 492.985L508.5 486.688L500.4 483.09L491.4 481.291H484.2L475.2 483.09L467.1 486.688L459 492.086L453.6 498.382L431.1 493.885L397.8 488.487L366.3 483.09L342 479.492L320.4 476.794L258.3 469.597L235.8 467.798L237.6 463.301L241.2 455.205L242.1 451.607V436.315L237.6 425.52L229.5 416.525L221.4 412.027L215.1 410.228L198.9 409.329L198 391.338L194.4 376.046L189.9 365.252L183.6 355.357L178.2 349.06L166.5 340.964L161.1 337.366L162.9 336.467L167.4 335.567L173.7 330.17L189 322.074L216 313.079L231.3 310.38H243.9L258.3 312.179L271.8 315.778L288.9 322.074L297.9 327.471L303.3 330.17V331.969H305.1V333.768L308.7 335.567L316.8 343.663V345.462L319.5 346.362V348.161H321.3L328.5 359.855L333 368.85L338.4 385.941L343.8 407.53L348.3 405.731L358.2 398.534L370.8 391.338L382.5 386.84L392.4 385.041L411.3 384.142L425.7 385.941L439.2 391.338L441.9 392.238V394.037L445.5 395.836L455.4 402.133L463.5 410.228L469.8 418.324L475.2 426.42L477.9 431.817L479.7 448.908L478.8 467.798L490.5 465.999H513.9L525.6 472.296L535.5 481.291L539.1 487.588H541.8L542.7 474.095L549.9 442.611L557.1 428.219L564.3 417.425L576 403.032L582.3 396.735L593.1 388.64L607.5 380.544L620.1 375.147L637.2 369.749L658.8 365.252L675.9 363.453L710.1 362.553H719.1L728.1 331.07L734.4 312.179L741.6 297.787L750.6 285.194L760.5 274.399L769.5 265.404L781.2 256.409L793.8 248.313L808.2 241.117L825.3 234.82L846.9 229.423L864 226.724Z" fill="#B29FDB"/>
<path d="M1155.6 450.707L1158.3 454.305L1165.5 466.899L1173.6 476.793L1184.4 487.588L1197.9 497.483L1206.9 502.88L1208.7 520.87L1210.5 534.363L1215 549.655L1222.2 564.048L1228.5 573.043L1236.6 582.039L1248.3 590.134L1258.2 595.532L1274.4 600.929L1275.3 601.828V634.211L1259.1 633.312L1200.6 627.015L1118.7 619.819L1055.7 615.321L1014.3 612.623V601.828L1015.2 584.737L1024.2 582.039L1035.9 575.742L1043.1 568.546L1044 566.747H1045.8L1046.7 563.148L1050.3 555.053L1051.2 550.555V535.263L1046.7 523.569L1039.5 513.674L1030.5 507.378L1021.5 503.779L1017 502.88H1002.6L990 507.378L981.9 513.674L975.6 520.87L971.1 530.765L969.3 537.962V546.957L972 559.55L976.5 567.646L981 573.043L982.8 573.943V575.742L987.3 577.541L993.6 581.139L998.1 582.938L1007.1 584.737V611.723H992.7L973.8 610.824L967.5 602.728L957.6 596.431L950.4 594.632H940.5L927.9 597.331L919.8 600.029L916.2 592.833L911.7 589.235H905.4L897.3 592.833H894.6L891 585.637L886.5 582.039L883.8 581.139H873L867.6 584.737L864 589.235L862.2 595.532L850.5 596.431L841.5 600.929L837 606.326H804.6L786.6 605.426L772.2 598.23L745.2 585.637L722.7 575.742L716.4 573.043L710.1 573.943L702.9 575.742L700.2 576.641L649.8 582.039L640.8 582.938L597.6 584.737H586.8L580.5 585.637V583.838L576 584.737L571.5 583.838V585.637H562.5L553.5 586.536L543.6 587.436H532.8L527.4 585.637L519.3 584.737L491.4 583.838V564.947L499.5 562.249L508.5 557.751L516.6 551.455L522 545.158L526.5 535.263L528.3 530.765L529.2 516.373V514.574H534.6L575.1 525.368L599.4 531.665L624.6 539.761L663.3 552.354L680.4 558.651L686.7 559.55L704.7 552.354L729.9 543.359L782.1 526.268L834.3 510.976L889.2 496.583L932.4 486.688L989.1 474.994L1035.9 466.899L1089.9 458.803L1124.1 454.305L1155.6 450.707Z" fill="#8E70EE"/>
<path d="M756 387.74H767.7L783 391.338L797.4 398.534L809.1 408.429L815.4 418.324L819 413.826L829.8 402.132L837.9 395.836L851.4 390.439L862.2 387.74H868.5L883.8 392.238L898.2 399.434L906.3 405.731L912.6 412.927L918.9 425.52L919.8 428.219L920.7 441.712L945 430.018L963.9 422.822L990.9 416.525L1010.7 413.826H1025.1L1044.9 417.424L1062 421.922L1076.4 427.319L1091.7 435.415L1103.4 444.41L1113.3 453.406L1110.6 456.104H1103.4V457.903L1041.3 466.899L999 474.095L940.5 485.789L900.9 494.784L857.7 505.578L821.7 515.473L779.4 528.067L721.8 546.957L688.5 559.55L682.2 560.45L667.8 555.053L628.2 541.56L616.5 537.962L615.6 536.163L623.7 511.875L630 500.181L636.3 492.086L644.4 483.09L654.3 475.894L666 470.497L681.3 465.999L685.8 465.1V443.511L689.4 431.817L693.9 423.721L703.8 412.027L713.7 403.032L724.5 396.735L746.1 389.539L756 387.74Z" fill="#BEC1D2"/>
<path d="M126 331.069H138.6L152.1 333.768L163.8 338.266L174.6 345.462L181.8 351.759L189.9 363.452L194.4 373.347L198 386.84L198.9 391.338V409.329H215.1L225 412.927L232.2 418.324L238.5 425.52L243 436.314V451.606L239.4 461.501L233.1 470.497L225 475.894L216.9 479.492L212.4 480.391H200.7L198.9 479.492V540.66L194.4 558.651L188.1 570.344L180.9 579.34L170.1 588.335L155.7 595.531L144.9 599.129H143.1V682.786L142.2 683.685H125.1L124.2 679.188L125.1 599.129L116.1 597.33L101.7 591.034L90 582.938L81.9 574.842L74.7 562.249L72 555.952L69.3 545.158L68.4 531.665L67.5 457.004L68.4 406.63L63 404.831L54.9 398.534L50.4 391.338L49.5 386.84V376.945L53.1 369.749L57.6 364.352L64.8 359.854L67.5 358.955L80.1 358.055L89.1 348.16L99 340.964L111.6 334.667L126 331.069Z" fill="#3D2298"/>
<path d="M834.3 510.975H838.8V512.775L860.4 520.87L892.8 531.665L916.2 538.861L949.5 547.856L959.4 550.555H967.5L969.3 546.957L972 559.55L976.5 567.646L981 573.043L982.8 573.943V575.742L987.3 577.541L993.6 581.139L998.1 582.938L1007.1 584.737V611.723H992.7L973.8 610.823L967.5 602.728L957.6 596.431L950.4 594.632H940.5L927.9 597.33L919.8 600.029L916.2 592.833L911.7 589.235H905.4L897.3 592.833H894.6L891 585.636L886.5 582.038L883.8 581.139H873L867.6 584.737L864 589.235L862.2 595.531L850.5 596.431L841.5 600.929L837 606.326H804.6L786.6 605.426L772.2 598.23L745.2 585.636L722.7 575.742L716.4 573.043L710.1 573.943L702.9 575.742L700.2 576.641L649.8 582.038L640.8 582.938L597.6 584.737H586.8L580.5 585.636V583.837L576 584.737L571.5 583.837V585.636H562.5L553.5 586.536L543.6 587.436H532.8L527.4 585.636L519.3 584.737L491.4 583.837V564.947L499.5 562.249L508.5 557.751L516.6 551.454L522 545.158L526.5 535.263L528.3 530.765L529.2 516.373V514.574H534.6L575.1 525.368L599.4 531.665L624.6 539.76L663.3 552.354L680.4 558.651L686.7 559.55L704.7 552.354L729.9 543.359L782.1 526.267L834.3 510.975Z" fill="#805EE2"/>
<path d="M234.9 466.899L266.4 469.597L320.4 475.894L352.8 480.391L382.5 484.889L415.8 490.286L431.1 492.985L450 496.583L451.8 500.181L447.3 511.875L446.4 516.373V528.067L449.1 537.961L452.7 545.158L457.2 551.454L461.7 554.153V555.952H464.4V557.751L469.8 559.55L482.4 564.048L483.3 564.947V581.139L470.7 580.239L421.2 573.943L411.3 572.144L407.7 575.742L401.4 576.641L403.2 572.144L407.7 561.349L409.5 555.952V542.459L405.9 531.665L397.8 519.971L387.9 513.674L379.8 510.076L370.8 508.277L359.1 509.176L347.4 513.674L338.4 520.87L332.1 529.866L327.6 540.66L326.7 553.253V559.55L293.4 555.053L283.5 554.153H236.7L204.3 556.852L201.6 558.651L195.3 557.751L196.2 548.756L198 540.66L198.9 479.492H212.4L221.4 476.793L229.5 472.296L234 468.698L234.9 466.899Z" fill="#7153DC"/>
<path d="M1439.1 501.081H1440V677.389H1367.1V558.651L1381.5 555.053L1396.8 548.756L1405.8 541.56L1413 533.464L1419.3 521.77L1423.8 508.277L1436.4 501.98L1439.1 501.081Z" fill="#805EE2"/>
<path d="M1042.2 569.445L1064.7 572.144L1106.1 579.34L1136.7 583.837L1160.1 586.536L1211.4 591.034L1247.4 592.833L1251.9 591.933L1258.2 595.531L1274.4 600.929L1275.3 601.828V634.211L1259.1 633.312L1200.6 627.015L1118.7 619.819L1055.7 615.321L1014.3 612.622V601.828L1015.2 584.737L1024.2 582.038L1035.9 575.742L1042.2 569.445Z" fill="#805EE2"/>
<path d="M529.2 514.574H534.6L575.1 525.368L599.4 531.665L624.6 539.761L663.3 552.354L680.4 558.651L687.6 561.349L703.8 567.646L714.6 571.244L712.8 573.043L702.9 575.742L700.2 576.641L649.8 582.039L640.8 582.938L597.6 584.737H586.8L580.5 585.637V583.838L576 584.737L571.5 583.838V585.637H562.5L553.5 586.536L543.6 587.436H532.8L527.4 585.637L519.3 584.737L491.4 583.838V564.948L499.5 562.249L508.5 557.751L516.6 551.455L522 545.158L526.5 535.263L528.3 530.765L529.2 516.373V514.574Z" fill="#7052DB"/>
<path d="M236.7 377.845H259.2L274.5 381.443L285.3 385.941L297 392.238L306 399.434L313.2 406.63L320.4 419.223L324 428.219L325.8 445.31V465.999L324.9 473.195L321.3 475.894H313.2L248.4 468.698L235.8 467.798L237.6 463.3L241.2 455.205L242.1 451.607V436.315L237.6 425.52L229.5 416.525L221.4 412.027L215.1 410.228L198.9 409.329V394.936L210.6 386.84L219.6 382.343L232.2 378.745L236.7 377.845Z" fill="#BEC1D2"/>
<path d="M977.4 110.684H991.8L999.9 114.283L1007.1 120.579L1009.8 125.976L1010.7 130.474V140.369L1008.9 147.565L1025.1 143.067L1030.5 142.168H1049.4L1059.3 145.766L1069.2 152.063L1078.2 161.058L1081.8 167.355L1080.9 168.254H875.7L881.1 161.058L890.1 152.962L900.9 146.666L913.5 143.067H923.4L936 147.565L943.2 134.972L949.5 126.876L957.6 119.68L968.4 113.383L977.4 110.684Z" fill="#BFC2D2"/>
<path d="M484.2 480.391H491.4L503.1 483.09L513.9 489.387L520.2 495.683L525.6 504.679L530.1 516.373L529.2 530.765L524.7 541.56L519.3 549.655L511.2 556.852L502.2 562.249L492.3 564.947L490.5 612.622H483.3L482.4 564.947L469.8 560.45L464.4 557.751V555.952H461.7L454.5 548.756L449.1 540.66L446.4 532.564L445.5 528.067V516.373L449.1 504.679L450.9 499.282L449.1 497.483H453.6L459.9 490.286L469.8 483.99L477.9 481.291L484.2 480.391Z" fill="#3E2399"/>
<path d="M364.5 507.377L376.2 508.277L386.1 511.875L395.1 517.272L399.6 520.87L406.8 531.665L410.4 542.459V555.952L405 570.345L399.6 577.541L392.4 583.838L379.8 590.134L372.6 591.034L371.7 618.919L370.8 619.819H364.5L363.6 591.933L353.7 589.235L342 582.038L335.7 576.641L330.3 567.646L325.8 553.253L326.7 540.66L331.2 529.866L337.5 520.87L344.7 514.574L353.7 510.076L364.5 507.377Z" fill="#3E2399"/>
<path d="M1002.6 501.98H1017L1028.7 505.578L1038.6 511.875L1044.9 519.071L1050.3 529.866L1052.1 535.263V550.555L1048.5 562.249L1045.8 566.746H1044L1042.2 570.344L1035.9 576.641L1024.2 582.938L1019.7 584.737H1015.2V601.828L1014.3 612.622H1007.1V584.737L998.1 583.837L987.3 578.44L982.8 575.742V573.943L979.2 572.144L973.8 564.947L970.2 556.852L968.4 546.957V537.961L972 526.267L977.4 517.272L984.6 510.076L991.8 505.578L1002.6 501.98Z" fill="#3E2399"/>
<path d="M167.4 792.529H180L190.8 796.127L199.8 802.424L207 810.519L212.4 823.113V839.304L209.7 847.4L204.3 856.395L198 862.692L189 868.089L180.9 870.788H166.5L157.5 868.089L148.5 861.793L141.3 854.596L136.8 845.601L134.1 837.505V826.711L137.7 815.017L144 805.122L151.2 798.825L162.9 793.428L167.4 792.529Z" fill="#AA8CDF"/>
<path d="M49.5 373.347L50.4 376.946V386.84L53.1 394.936L57.6 400.333L63.9 404.831L68.4 406.63V456.104L0 455.205V385.941L22.5 381.443L39.6 378.745H48.6L49.5 373.347Z" fill="#B29FDB"/>
<path d="M0 455.205H53.1L68.4 456.104L67.5 514.574L34.2 523.569L1.8 531.665L0 535.263V455.205Z" fill="#7153DC"/>
<path d="M198 391.338H198.9V409.329H215.1L225 412.927L232.2 418.324L238.5 425.52L243 436.315V451.607L239.4 461.501L233.1 470.497L225 475.894L216.9 479.492L212.4 480.392H200.7L198.9 479.492V540.66H198V479.492H196.2V477.693L192.6 476.793L181.8 470.497L174.6 460.602L171.9 454.305V437.214L175.5 427.319L181.8 419.223L189.9 412.927L195.3 410.228H198V391.338Z" fill="#5439BA"/>
<path d="M1439.1 501.081H1440V589.235L1414.8 591.034L1370.7 593.733L1368 592.833V558.651L1381.5 555.053L1396.8 548.756L1405.8 541.56L1413 533.464L1419.3 521.77L1423.8 508.277L1436.4 501.98L1439.1 501.081Z" fill="#8E70EE"/>
<path d="M0.89978 591.933H8.09978L18.8998 594.632L27.8998 599.129L34.1998 606.326L38.6998 614.421L39.5998 619.819L44.0998 618.02H53.9998L61.1998 623.417L67.4998 631.513V634.211H70.1998V632.412L85.4998 627.015H93.5998L101.7 630.613L108.9 636.91L111.6 641.407V644.106L89.0998 646.805L54.8998 651.302L5.39978 658.498H0.89978V591.933Z" fill="#3E2399"/>
<path d="M369 758.346L373.5 761.045L374.4 765.543L377.1 762.844H378.9V761.045L383.4 761.944L384.3 768.241L387.9 766.442H393.3L394.2 770.94L392.4 772.739L396.9 773.638L399.6 774.538V779.935H397.8L396 784.433L403.2 786.232L404.1 789.83L399.6 792.529L397.8 794.328L403.2 797.926L402.3 802.423H393.3L396.9 807.821L396 812.318L390.6 811.419L387 810.519L387.9 816.816L387 819.514L383.4 818.615V816.816L378 814.117L377.1 820.414L372.6 822.213L369.9 817.715V815.916L366.3 817.715L364.5 820.414H360.9L360 814.117L360.9 812.318L356.4 814.117H353.7V815.916H350.1V809.62L351 806.021L343.8 806.921L342.9 803.323L348.3 797.026L340.2 794.328L339.3 790.729L342.9 788.031L345.6 786.232L340.2 782.634L341.1 779.036L350.1 778.136L346.5 771.839L348.3 768.241L354.6 769.141L356.4 770.04L354.6 764.643L356.4 761.944L360.9 762.844L363.6 765.543H366.3L368.1 759.246L369 758.346Z" fill="#6730C4"/>
<path d="M194.4 478.593L198 479.492V543.359L194.4 558.651L188.1 570.345L180.9 579.34L170.1 588.335L155.7 595.532L148.5 597.331L147.6 595.532L152.1 592.833H153.9L154.8 590.134L157.5 587.436L159.3 582.938L155.7 584.737L154.8 577.541L155.7 574.842L159.3 573.043L160.2 571.244L165.6 568.546H167.4V563.148H169.2L170.1 558.651L171 555.053L170.1 554.153V549.656L168.3 543.359L166.5 532.564L167.4 528.966H169.2L171 521.77L172.8 520.871L174.6 510.076L177.3 499.282L181.8 495.684H183.6L184.5 491.186V488.487V487.588L189 486.688L190.8 481.291H192.6V479.492L194.4 478.593Z" fill="#281470"/>
<path d="M235.8 596.431L244.8 598.23L250.2 601.828L255.6 609.924V612.622L268.2 606.326L270.9 605.426H278.1L285.3 609.024L292.5 614.421L297.9 613.522L306.9 609.924L315 608.125H324L332.1 610.823L339.3 617.12L340.2 619.819H333.9L334.8 621.618L300.6 624.316L254.7 628.814L197.1 634.211L195.3 633.312L199.8 626.115L205.2 621.618L207.9 620.718H216.9L218.7 610.823L222.3 603.627L228.6 598.23L235.8 596.431Z" fill="#3E2399"/>
<path d="M1228.5 511.875L1251.9 513.674L1275.3 514.574V579.34L1269 578.44L1256.4 571.244L1246.5 563.148L1241.1 555.952L1233.9 542.459L1230.3 528.966L1228.5 518.172V511.875Z" fill="#8E70EE"/>
<path d="M873 580.239H883.8L889.2 582.938L893.7 588.335L894.6 592.833L905.4 588.335H911.7L917.1 592.833L919.8 599.13L934.2 594.632L940.5 593.732H950.4L959.4 596.431L969.3 603.627L974.7 611.723L966.6 609.924L961.2 610.823L953.1 609.924L945.9 609.024L895.5 608.125L882 607.225H853.2L837.9 606.326L839.7 601.828L847.8 596.431L855.9 594.632L862.2 595.531L863.1 589.235L869.4 582.039L873 580.239Z" fill="#3E239A"/>
<path d="M74.7 821.313L78.3 822.213L85.5 828.51H87.3L90.9 822.213L93.6 823.113L97.2 831.208L99 834.806L99.9 840.204V848.299L96.3 856.395L90 863.591L81 868.989L70.2 871.687L60.3 870.788L53.1 867.19L47.7 861.792V859.094H45.9L41.4 850.098L40.5 843.802L41.4 842.902H46.8L53.1 845.601L54 836.605L55.8 830.309L60.3 832.108L69.3 836.605L72.9 837.505L73.8 823.113L74.7 821.313Z" fill="#662DC3"/>
<path d="M80.1 358.055L81 359.854L86.4 361.653L93.6 367.95L97.2 372.448L99 376.945V386.84L95.4 395.836L90 402.132L83.7 405.73L78.3 407.529H70.2L63 404.831L54.9 398.534L50.4 391.338L49.5 386.84V376.945L53.1 369.749L57.6 364.352L64.8 359.854L67.5 358.955L80.1 358.055Z" fill="#5439BB"/>
<path d="M1367.1 646.805L1413 653.101L1440 657.599V677.389H1367.1V646.805Z" fill="#5338B9"/>
<path d="M124.2 598.23L126.9 599.13H142.2L143.1 682.786L142.2 683.685H125.1L124.2 679.188V598.23Z" fill="#27136F"/>
<path d="M171 811.419L180 812.318L187.2 816.816L191.7 822.213L193.5 827.61V835.706L189 844.702L183.6 849.199L179.1 850.998H168.3L162 848.3L155.7 841.103L153.9 836.606V824.912L158.4 817.716L165.6 812.318L171 811.419Z" fill="#5439BB"/>
<path d="M368.1 775.438H376.2L382.5 779.036L387 786.232V794.328L384.3 799.725L379.8 804.223L377.1 805.122H367.2L361.8 801.524L358.2 797.026L357.3 795.227V786.232L360.9 779.935L365.4 776.337L368.1 775.438Z" fill="#AA8CDF"/>
<path d="M315.9 801.524L324.9 804.223L330.3 808.72L334.8 815.017L335.7 821.314L339.3 818.615L337.5 823.113L332.1 832.108V834.807L338.4 831.208H351.9L352.8 833.008L349.2 840.204L342 846.501L340.2 847.4H326.7L324.9 851.898H324L324.9 844.701L329.4 832.108L332.1 826.711L326.7 824.912L319.5 818.615L316.8 812.318L315.9 801.524Z" fill="#170744"/>
<path d="M75.6 887.879H84.6L93.6 891.477H96.3L100.8 901.372L103.5 910.367V913.066L106.2 910.367L111.6 904.071L116.1 901.372L120.6 900.472H128.7V905.87L124.2 913.066H122.4V914.865L115.2 918.463H108.9L105.3 917.563L104.4 921.162L98.1 900.472L97.2 898.673L92.7 899.573L88.2 901.372H76.5L71.1 897.774L67.5 894.176V891.477L75.6 887.879Z" fill="#170744"/>
<path d="M1368 514.574H1399.5L1397.7 519.071L1392.3 526.268L1385.1 531.665L1374.3 536.163L1367.1 537.062V515.473L1368 514.574Z" fill="#8C6EED"/>
<path d="M180.9 922.961L182.7 923.86L181.8 937.353L178.2 942.75L172.8 947.248L168.3 949.047H165.6L170.1 962.54L180 985.028L179.1 986.827L173.7 977.832L163.8 951.746L162 944.549L162.9 940.951H163.8L166.5 932.855L173.7 925.659L176.4 923.86L180.9 922.961Z" fill="#170744"/>
<path d="M151.2 334.668L159.3 336.467L168.3 340.964L180 349.96L187.2 358.955L194.4 373.348L198 386.84V410.228H195.3L194.4 392.238L192.6 381.443L189 371.548L185.4 366.151L180.9 361.654L180 358.955H178.2L171 349.96L167.4 347.261V344.563L162.9 343.663L160.2 340.964L157.5 340.065V338.266L153 336.467L151.2 334.668Z" fill="#2A1674"/>
<path d="M157.5 909.468H158.4L161.1 931.956V938.253L160.2 936.454L155.7 938.253L150.3 940.951H140.4L133.2 937.353L129.6 932.855L133.2 929.257L137.7 927.458H148.5L159.3 932.855L157.5 918.463V909.468Z" fill="#170744"/>
<path d="M108.9 857.295H109.8V872.587L103.5 880.683L94.5002 884.281L92.7002 886.979L84.6002 872.587L85.5002 870.788L90.9002 878.883H91.8002L92.7002 870.788L99.0002 863.591L108.9 857.295Z" fill="#170744"/>
<path d="M301.5 849.199L308.7 850.099L314.1 853.697L318.6 859.094L320.4 862.692L323.1 851.898H324L323.1 860.893L322.2 866.29H308.7L299.7 861.792L295.2 856.395L294.3 851.898L297 850.099L301.5 849.199Z" fill="#170744"/>
<path d="M484.2 564.048H490.5V612.623H484.2V564.048Z" fill="#27136F"/>
<path d="M174.6 879.783H183.6L182.7 885.18L177.3 892.376L172.8 895.975L168.3 897.774L157.5 896.874V895.075H159.3L160.2 889.678L166.5 881.582L174.6 879.783Z" fill="#170744"/>
<path d="M370.8 591.034H371.7V618.919L370.8 619.819H364.5V592.833L370.8 591.034Z" fill="#27136F"/>
<path d="M158.4 793.428L161.1 794.328L150.3 800.625L144.9 805.122L138.6 815.017L134.1 829.41L131.4 832.108H128.7L129.6 825.811L131.4 816.816L135.9 808.72L139.5 803.323L144.9 798.825L153 796.127L158.4 793.428Z" fill="#3F249B"/>
<path d="M1007.1 584.737L1014.3 585.637V612.623H1007.1V584.737Z" fill="#27136F"/>
<path d="M183.6 405.731H185.4V408.429L189.9 410.228V413.826L181.8 420.123L175.5 429.118L172.8 431.817L171 422.822L173.7 420.123L176.4 413.826L180.9 410.228H183.6V405.731Z" fill="#281471"/>
<path d="M113.4 678.288H122.4L125.1 679.188V682.786H143.1L144 685.484L135.9 689.083V689.982H129.6L128.7 689.083H126L123.3 687.284L119.7 685.484L117.9 686.384L116.1 680.987L113.4 678.288Z" fill="#3E2399"/>
<path d="M999 844.701H1008L1012.5 846.5L1013.4 850.099L1008.9 852.797H997.2L994.5 850.099L995.4 846.5L999 844.701Z" fill="#AE9ADB"/>
<path d="M1130.4 800.624H1141.2L1144.8 803.323L1143.9 806.921L1140.3 808.72H1129.5L1125.9 806.022L1126.8 802.423L1130.4 800.624Z" fill="#A797D8"/>
<path d="M1001.7 818.615L1009.8 819.515L1014.3 822.213L1012.5 825.811L1008.9 826.711H999L993.6 824.012L994.5 821.314L1001.7 818.615Z" fill="#6733C5"/>
<path d="M408.6 545.158H409.5V557.751L405 570.345L399.6 577.541L392.4 583.838L383.4 588.335L381.6 587.436L384.3 586.536L385.2 583.838L393.3 579.34L399.6 573.043L405.9 560.45L408.6 545.158Z" fill="#291472"/>
<path d="M1014.3 868.989H1026L1029.6 870.788L1030.5 873.486L1026 876.185H1015.2L1010.7 874.386L1011.6 870.788L1014.3 868.989Z" fill="#662DC2"/>
<path d="M839.7 958.042H855L856.8 959.841L855.9 963.439L851.4 965.238H841.5L837.9 962.54V959.841H839.7V958.042Z" fill="#B3ABD6"/>
<path d="M1051.2 823.113H1061.1L1064.7 824.912L1065.6 827.61L1064.7 829.409L1059.3 831.208H1053L1046.7 828.51L1048.5 824.912L1051.2 823.113Z" fill="#672DC3"/>
<path d="M853.2 922.961H860.4L864.9 924.76L865.8 928.358L864 930.157L859.5 931.056H853.2L847.8 929.257L848.7 924.76L853.2 922.961Z" fill="#662DC2"/>
<path d="M966.6 778.136H978.3L982.8 779.935V783.533L977.4 785.332H969.3L964.8 783.533L963.9 780.835L966.6 778.136Z" fill="#6936C8"/>
<path d="M917.1 815.017L927 815.916L929.7 817.716L928.8 821.314L927.9 822.213H914.4L910.8 819.515L911.7 816.816L917.1 815.017Z" fill="#6731C4"/>
<path d="M1017 801.524H1030.5L1033.2 803.323L1032.3 806.921L1025.1 808.72L1017 807.821L1014.3 805.122L1015.2 802.424L1017 801.524Z" fill="#5439BB"/>
<path d="M1090.8 838.405L1098.9 841.103V844.701L1093.5 846.501H1086.3L1081.8 843.802L1083.6 840.204L1090.8 838.405Z" fill="#5439BB"/>
<path d="M1122.3 773.638L1131.3 774.538L1133.1 775.438L1132.2 779.935L1123.2 781.734L1116 779.036V775.438L1122.3 773.638Z" fill="#5439BB"/>
<path d="M770.4 935.554H781.2L785.7 937.353V940.951L780.3 941.851H772.2L767.7 940.052L768.6 936.454L770.4 935.554Z" fill="#662DC2"/>
<path d="M892.8 901.372H900L903.6 903.171V906.769L901.8 907.669H888.3L886.5 905.87L887.4 902.271L892.8 901.372Z" fill="#5439BB"/>
<path d="M1048.5 555.053L1049.4 558.651L1047.6 563.148L1045.8 566.747H1044L1042.2 570.345L1035.9 576.641L1024.2 582.938L1016.1 583.838L1028.7 577.541L1039.5 570.345L1044 563.148L1044.9 560.45H1046.7L1048.5 555.053Z" fill="#2A1574"/>
<path d="M527.4 524.468H528.3V531.665L524.7 541.56L519.3 549.655L511.2 556.852L506.7 559.55L504 558.651L515.7 549.655L519.3 545.158L525.6 532.564L527.4 524.468Z" fill="#2A1574"/>
<path d="M493.2 367.95L497.7 368.85L502.2 372.448L504.9 376.046L508.5 374.247L514.8 370.649H521.1L518.4 372.448L509.4 376.945L505.8 382.343H504L501.3 376.046L496.8 371.548L493.2 367.95Z" fill="#BFC2D2"/>
<path d="M506.7 486.688L511.2 487.588L520.2 495.684L525.6 504.679L527.4 508.277V514.574L525.6 513.674L522 503.779L515.7 493.885L506.7 487.588V486.688Z" fill="#2E197B"/>
<path d="M347.4 794.328L352.8 795.227V798.825L351 799.725V805.122L347.4 806.921L342.9 806.021L343.8 801.524L349.2 795.227L347.4 794.328Z" fill="#704CD7"/>
<path d="M42.3001 849.199L44.1001 850.099L46.8001 854.596V857.295L50.4001 858.194L52.2001 861.792L56.7001 863.592L57.6001 868.089L53.1001 867.19L47.7001 861.792V859.094H45.9001L42.3001 852.797V849.199Z" fill="#7C57DD"/>
<path d="M170.1 446.209H171L173.7 457.004L179.1 465.999L182.7 471.396L178.2 469.597V467.798H176.4L171.9 459.702V457.903L169.2 458.803V448.009L170.1 446.209Z" fill="#281470"/>
<path d="M999 844.701H1008L1011.6 846.5L1008 847.4L1008.9 849.199H1007.1V850.998L999 850.099L998.1 847.4L995.4 846.5L999 844.701Z" fill="#A385DF"/>
<path d="M1023.3 869.888L1029.6 870.788L1030.5 873.486L1026 876.185H1015.2L1010.7 874.386V871.687L1014.3 872.587L1018.8 873.486H1023.3L1025.1 871.687L1023.3 869.888Z" fill="#7851D9"/>
<path d="M839.7 958.042H849.6L850.5 959.841L842.4 961.64L850.5 963.439L848.7 965.238H841.5L837.9 962.54V959.841H839.7V958.042Z" fill="#B5AFD4"/>
<path d="M858.6 924.76H864.9L865.8 928.358L864 930.157L859.5 931.056H853.2L847.8 929.257V926.559L854.1 928.358H859.5L858.6 924.76Z" fill="#7751D9"/>
<path d="M1061.1 824.912H1064.7L1065.6 827.61L1064.7 829.41L1059.3 831.209H1053L1046.7 828.51L1047.6 825.811L1051.2 826.711V828.51H1058.4L1061.1 824.912Z" fill="#7850D8"/>
<path d="M376.2 812.318H377.1V820.414L372.6 822.213L370.8 820.414V815.916L376.2 812.318Z" fill="#7A56DD"/>
<path d="M156.6 679.188H159.3L158.4 680.987L157.5 681.886L161.1 682.786H159.3V685.485H157.5L158.4 688.183L153.9 687.284L151.2 684.585V682.786H153V680.987L156.6 679.188Z" fill="#3F249A"/>
<path d="M352.8 806.921L356.4 809.62V811.419L358.2 812.318L356.4 814.118H353.7V815.917H350.1V809.62H351.9L352.8 806.921Z" fill="#704ED6"/>
<path d="M780.3 937.353H785.7V940.951L780.3 941.851H772.2L767.7 940.052V938.253L779.4 940.052L780.3 937.353Z" fill="#7C59DE"/>
<path d="M92.6999 583.837L97.1999 585.637L112.5 593.732L117 595.531L114.3 596.431L103.5 591.933L93.5999 585.637L92.6999 583.837Z" fill="#281470"/>
<path d="M361.8 813.218L366.3 814.117V817.715L364.5 820.414H360.9L360 814.117L361.8 813.218Z" fill="#7B55DD"/>
<path d="M1050.3 537.961H1052.1V550.555L1050.3 553.253L1049.4 552.354V539.76L1050.3 537.961Z" fill="#2D1879"/>
<path d="M140.4 652.202H141.3V680.987H143.1V682.786H139.5V670.193L140.4 652.202Z" fill="#170745"/>
<path d="M459.9 552.354L464.4 554.153L477.9 561.349L475.2 562.249L466.2 558.651L464.4 557.751V555.952H461.7L459.9 552.354Z" fill="#311B81"/>
<path d="M1035.9 511.875L1039.5 512.775L1046.7 521.77L1048.5 525.368L1047.6 528.966L1041.3 518.172L1037.7 514.574V512.775L1035.9 511.875Z" fill="#351F87"/>
<path d="M90.8998 822.213L93.5998 823.113L97.1998 831.208L98.0998 839.304L96.2998 838.405L94.4998 833.907V830.309V828.51L91.7998 827.61L92.6998 824.012H90.8998V822.213Z" fill="#7455DD"/>
<path d="M392.4 806.022L396.9 807.821L396 812.318L390.6 811.419L389.7 808.72L392.4 806.022Z" fill="#7953DA"/>
<path d="M497.7 327.471L501.3 330.17V331.969L507.6 331.069L508.5 332.868L504 334.668L499.5 335.567L498.6 331.069L497.7 327.471Z" fill="#BFC2D2"/>
<path d="M981.9 573.043L986.4 574.842L993.6 579.34L999.9 582.039L997.2 582.938L988.2 579.34L982.8 575.742L981.9 573.043Z" fill="#321C82"/>
<path d="M1023.3 869.888L1029.6 870.788L1030.5 873.486L1026 876.185L1022.4 875.286L1025.1 871.687L1023.3 869.888Z" fill="#764FD7"/>
<path d="M241.2 449.808H242.1L241.2 457.903L236.7 465.999H234.9L236.7 461.501L238.5 458.803L240.3 451.607L241.2 449.808Z" fill="#40269B"/>
<path d="M977.4 779.935H982.8V783.533L980.1 784.433H972.9L976.5 782.634L977.4 779.935Z" fill="#7A55DB"/>
<path d="M76.5 564.048L79.2 565.847V567.646H81L85.5 575.742L84.6 577.541L78.3 569.445L76.5 564.048Z" fill="#2A1574"/>
<path d="M346.5 800.624L347.4 803.323L349.2 802.423V804.223L351 805.122L347.4 806.921L342.9 806.022V803.323L346.5 800.624Z" fill="#7B54DC"/>
<path d="M338.4 577.541L345.6 581.139L350.1 584.737L352.8 587.436L347.4 585.637L338.4 579.34V577.541Z" fill="#281470"/>
<path d="M845.1 959.841H850.5L852.3 962.54L848.7 963.44L842.4 962.54L841.5 960.741L845.1 959.841Z" fill="#B29DDB"/>
<path d="M922.5 816.816H928.8L929.7 820.414L923.4 821.314L922.5 816.816Z" fill="#7A58DD"/>
<path d="M1426.5 656.7H1436.4L1440 657.599V660.298L1429.2 658.499L1426.5 656.7Z" fill="#4328A2"/>
<path d="M1367.1 646.805L1375.2 647.704V649.503L1368.9 651.302L1367.1 650.403V646.805Z" fill="#4328A1"/>
<path d="M353.7 762.844H355.5L356.4 770.04L351 768.241L353.7 762.844Z" fill="#3E2399"/>
<path d="M575.1 320.275L578.7 321.175L572.4 325.672L569.7 324.773L573.3 321.175L575.1 320.275Z" fill="#BFC2D2"/>
</g>
<path d="M1145 82C1145 36.7127 1181.71 0 1227 0H1359C1404.29 0 1441 36.7127 1441 82H1145Z" fill="#422D95"/>
<defs>
<clipPath id="clip0_62_2">
<rect width="1440" height="958" fill="white" transform="translate(0 81)"/>
</clipPath>
</defs>
</svg>
