<svg width="994" height="596" viewBox="0 0 994 596" fill="none" xmlns="http://www.w3.org/2000/svg">
<path d="M590 234.375H601.25L616.875 236.25L635 240L656.25 246.25L677.5 254.375L695 262.5L707.5 268.75L722.5 277.5L736.25 285L746.875 290L760.625 295L778.125 299.375L791.25 301.25L799.375 301.875H806.875L815 301.25L825 296.25L838.125 291.875L851.25 289.375L863.125 288.125L871.875 283.125L878.125 278.125L884.375 272.5L890 265L894.375 256.25L896.25 248.125L897.5 241.25L900.625 240L901.875 239.375L905 244.375L908.125 245.625L911.25 245L912.5 242.5L913.125 237.5L918.125 243.75L922.5 245.625H926.875L930 243.75L931.875 241.25L933.125 236.25L935.625 237.5L941.875 242.5L947.5 245.625H950L950.625 244.375L950 236.875L949.375 234.375H950.625L955 239.375L958.75 240.625L962.5 235L968.125 245.625L976.875 265.625L982.5 280.625L987.5 298.125L990.625 311.875L993.125 328.75L993.75 337.5V352.5L992.5 365.625L989.375 381.875L983.75 398.75L978.125 410.625L971.25 421.875L965 430L958.125 437.5L949.375 446.25L941.25 452.5L931.875 458.75L920.625 465L909.375 470L913.125 474.375L920.625 481.25L941.875 502.5L945 503.125L950 501.25L955 497.5L960 490.625L964.375 483.125L968.125 473.75L970.625 465L971.875 456.875L974.375 459.375L976.25 463.125L979.375 452.5L980.625 448.75L981.875 451.25L983.125 459.375L983.75 476.875L985.625 480L988.125 481.875L990 482.5V486.875L986.25 499.375L981.25 509.375L976.25 516.875L969.375 524.375L963.75 529.375L955 534.375L948.125 536.875H942.5L935 521.875L928.75 513.75L921.875 507.5L911.25 500L900 493.75L888.125 488.125L870.625 481.25L855.625 483.125L843.125 484.375L828.125 485H811.25L795 484.375L790 493.125L783.125 503.125L775 513.75L767.5 522.5L761.25 529.375L756.875 534.375L748.125 543.75L743.75 549.375L744.375 553.75L748.125 559.375L754.375 564.375L761.875 568.75L773.75 573.125L786.25 575.625L791.25 576.25L788.75 578.75L786.25 580H784.375V581.25L791.25 582.5L800 584.375L798.125 585.625L789.375 587.5L776.25 588.125L770.625 589.375L767.5 592.5L766.25 595.625L758.75 595L748.125 591.875L740.625 588.75L731.875 583.75L725 578.125L718.125 571.25L712.5 562.5L710 555.625L709.375 551.25L711.25 549.375L721.25 544.375L727.5 540L731.25 536.875L736.875 530L741.875 523.125L748.125 511.875L753.125 501.25L758.75 486.25L761.25 478.75V476.25L746.25 470.625L730.625 463.125L719.375 456.875L706.25 448.125L695.625 440L688.75 434.375L680.625 426.875L675.625 422.5L666.25 413.125L661.875 408.125L656.25 401.875L650.625 395L643.75 386.25L635.625 375L624.375 358.125L616.875 345.625L610.625 334.375L603.125 320L596.875 307.5L589.375 296.875L583.125 290L577.5 285.625L580 283.125L584.375 282.5L590.625 284.375L586.875 279.375L578.75 273.125L567.5 266.875L553.75 260.625V258.75L562.5 253.75L570.625 250.625L580 248.75H596.875L606.25 250.625L610 251.875L605 245L596.875 238.75L590 235V234.375Z" fill="#706456"/>
<path d="M901.25 239.375L903.75 242.5L906.25 245L908.75 246.25V251.875L906.875 263.75L903.125 274.375L898.75 281.875L893.125 288.125L890 291.875L893.75 292.5L903.125 297.5L909.375 302.5L915.625 309.375L920.625 317.5L924.375 325.625L927.5 336.25L928.75 343.75L929.375 355L928.125 367.5L925.625 378.125L920.625 390.625L915 400L910.625 405.625L903.125 413.75L895 420.625L885.625 426.25L875.625 431.25L862.5 435.625L849.375 438.75L833.125 441.25H801.25L785 438.75L771.25 435L757.5 430L742.5 422.5L730.625 415L724.375 410.625V409.375L721.875 408.125L715 402.5L705.625 393.75L697.5 385L690.625 376.25L683.125 365.625L676.25 353.75L670 340.625L665.625 327.5L665 323.125V311.875L666.25 306.25L670 301.875H674.375L679.375 304.375L688.125 313.125L695 322.5L696.25 323.75L693.75 317.5L693.125 313.75V306.25L695 301.875L696.25 300.625H703.125L710.625 303.75L720 308.75L731.875 316.875L738.75 321.875L737.5 316.875L736.875 312.5V305L738.75 301.875H743.125L755.625 306.875L772.5 315L784.375 320L789.375 321.25L798.75 311.875L808.125 305L813.125 301.875L825 296.25L838.125 291.875L851.25 289.375L863.125 288.125L871.875 283.125L878.125 278.125L884.375 272.5L890 265L894.375 256.25L896.25 248.125L897.5 241.25L900.625 240L901.25 239.375Z" fill="#493A33"/>
<path d="M891.25 0H904.375L917.5 1.875L930.625 5.625L940.625 10L950.625 16.25L958.75 23.125L963.125 27.5L969.375 35.625L975.625 47.5L978.75 57.5L980 63.75V81.875L977.5 93.125L974.375 101.25V103.125L976.875 105.625L977.5 109.375L974.375 115.625L968.75 120.625L961.875 125L960.625 125.625L959.375 138.125L956.25 145.625L952.5 150L946.875 153.125L943.75 153.75H939.375L932.5 151.875L936.25 168.75L941.25 185.625L945.625 196.875L945 199.375L939.375 206.25L936.25 208.125H930L924.375 207.5L923.125 208.75H918.125L912.5 206.875L911.875 208.75H906.25L900 207.5L897.5 208.75H895L891.25 195L886.25 181.25L880 167.5L871.875 153.125L868.125 147.5L858.75 144.375L846.875 138.75L839.375 133.75L832.5 128.125L826.25 121.875L820 113.125L815 103.75L811.875 94.375L810 83.75V70.625L812.5 58.125L816.25 48.125L821.875 38.125L826.875 31.875L832.5 25.625L839.375 19.375L848.75 13.125L858.125 8.125L870 3.75L880.625 1.25L891.25 0Z" fill="#027F79"/>
<path d="M142.5 318.125H151.875L160.625 319.375L171.25 322.5L181.875 328.125L190 335L195.625 342.5L199.375 350L201.25 358.125V368.125L199.375 375.625L200 378.125L202.5 381.25L208.125 385L217.5 386.875L219.375 388.125L218.75 391.875L212.5 395.625L203.125 398.75L192.5 400.625L175.625 401.25L166.25 405L161.25 405.625L162.5 421.875V452.5L160.625 473.125L157.5 491.875L153.75 505L148.75 516.25L144.375 523.75L138.75 531.25L133.125 537.5L128.75 541.25L131.25 545.625L135.625 551.875L143.75 565.625L145 568.75L151.25 567.5L157.5 561.875L161.875 555.625L164.375 550.625L166.25 553.125L169.375 548.125L170 550.625L168.125 559.375V563.125L170 565.625L165.625 573.125L159.375 579.375L153.125 583.125L146.875 585H141.875L140.625 584.375L139.375 576.875L135.625 569.375L130 562.5L122.5 555.625L116.25 551.25L112.5 551.875L103.125 555.625L93.125 558.125L81.875 559.375H75.625L63.125 558.75L48.75 565.625L41.25 568.75H40V573.125L43.125 579.375L47.5 584.375L53.75 588.75L55.625 590.625H52.5L57.5 595.625L52.5 595L46.25 592.5H42.5L40 593.75L34.375 589.375L30 585L26.25 578.75L24.375 573.125V563.75L25 563.125L34.375 561.875L41.875 558.75L48.125 554.375L38.75 550L29.375 545L21.875 540L15 534.375L8.75 528.75L2.5 522.5V521.875L11.875 520.625L16.875 518.125L17.5 517.5L9.375 515.625L3.125 511.875L0 508.125V507.5L8.125 506.875L17.5 504.375L30 499.375L40 494.375L51.25 488.125L64.375 479.375L75 471.25L81.875 465.625L90 458.125L99.375 448.75L105 441.875L111.875 431.875L117.5 421.25L120.625 411.25L121.25 402.5L112.5 397.5L105.625 391.875L100.625 386.25L96.25 378.75L93.75 371.25L93.125 367.5V358.125L95 350L99.375 341.25L105.625 333.75L113.75 327.5L123.125 322.5L133.125 319.375L142.5 318.125Z" fill="#F3AA36"/>
<path d="M417.5 445L421.25 446.25L428.125 448.75L436.875 450H450.625L461.875 449.375H486.25L499.375 451.25L512.5 455L523.125 460L532.5 466.25L539.375 471.875L545.625 478.125L552.5 487.5L560 499.375L561.25 500L562.5 497.5L568.125 491.875L577.5 486.25L586.875 483.125L593.75 481.875H608.75L620 484.375L628.125 487.5L636.25 491.875L641.875 496.25L648.125 501.875L653.125 508.75L658.125 518.75L660 526.875V536.25L658.75 542.5L655.625 550.625L652.5 555L653.125 558.125L656.25 563.75L661.25 568.125L667.5 571.25L668.125 574.375L664.375 576.875L661.875 577.5H643.75L631.875 575L624.375 572.5H603.75L593.125 570L585 566.875L575 561.25L571.875 558.75L560 556.25H543.75L518.125 560H513.75L516.875 574.375L518.125 580L523.125 580.625L530 578.125L536.875 573.75L539.375 572.5L540.625 570L541.875 569.375V572.5L546.875 568.125L547.5 569.375L544.375 575.625L541.25 580.625L541.875 585L535.625 590.625L527.5 594.375L523.125 595.625H513.125L508.75 593.75L509.375 583.75L508.125 576.25L503.75 565.625L500.625 560.625L486.25 558.75L473.125 555.625L461.25 551.25L457.5 550.625L451.25 556.25L440 564.375L429.375 571.25V575.625L433.75 581.25L440.625 586.25L446.25 588.75L447.5 590L445 591.25L450.625 594.375V595L442.5 594.375L440 593.75H435.625L433.75 595.625L429.375 594.375L423.125 590L417.5 584.375L413.75 577.5L412.5 573.75V568.125L415.625 566.875L421.875 565L428.125 561.25L435 555L441.25 546.875L443.75 543.125V541.25L437.5 536.25L428.75 527.5L421.875 517.5L416.875 507.5L413.125 496.875L410.625 485.625L410 480.625V470.625L416.25 471.25L423.75 472.5L417.5 446.25V445Z" fill="#D38B23"/>
<path d="M333.125 365.625H339.375L351.25 367.5L360.625 371.25L367.5 375.625L374.375 382.5L378.75 390L381.25 398.125L382.5 405L390.625 408.125H396.875L400.625 406.875H405L406.25 408.125L405.625 411.875L400.625 418.125L393.125 424.375L383.75 430L372.5 435L369.375 436.875L365.625 441.25L363.75 442.5L364.375 443.75L358.75 447.5L355 452.5L353.125 458.125V462.5L355.625 470.625L359.375 479.375L361.875 489.375L362.5 494.375V504.375L360.625 513.75L356.875 523.125L351.25 531.25L346.875 536.25L341.875 540.625L333.75 546.25L339.375 558.125L341.875 563.125L346.875 562.5L352.5 558.75L358.125 553.125L361.875 546.875L363.75 548.75L366.875 544.375L367.5 546.875L365 555V560L366.25 561.875L362.5 567.5L356.875 573.125L350.625 576.875L345.625 578.75L338.75 579.375L335.625 578.125L334.375 569.375L331.25 561.875L325.625 554.375L323.75 552.5L320.625 553.125L308.75 556.875L298.75 558.75L292.5 559.375H283.125L272.5 558.125L266.875 557.5L257.5 567.5L252.5 573.75L254.375 578.125L261.25 582.5L268.125 585L275 586.25L273.125 588.125L278.75 590L278.125 591.25L275 591.875L266.25 592.5L263.125 595.625L256.875 595L249.375 591.875L242.5 586.875L238.125 581.875L236.25 578.125L235.625 574.375L240.625 571.25L245.625 567.5L250 562.5L255 553.75L255.625 552.5L251.875 551.25L241.875 545.625L231.875 537.5L225 530.625L218.75 522.5L213.75 513.75L210.625 506.875L207.5 496.875L205.625 486.875L205 481.25V458.125L206.875 444.375L208.125 442.5L214.375 450.625L221.25 458.125L228.125 463.75L236.25 470L244.375 475L251.25 478.125L263.125 481.25L267.5 481.875H280L288.75 480L297.5 475.625L300.625 473.125L305 466.25L307.5 456.25L301.875 455L292.5 450L285 443.125L280.625 436.875L277.5 429.375L276.25 423.125V413.75L278.75 403.75L283.75 393.75L288.75 386.875L295 380.625L303.125 375L313.125 370L323.75 366.875L333.125 365.625Z" fill="#F3AA36"/>
<path d="M619.375 321.25L622.5 324.375L627.5 330.625L635.625 343.125L642.5 355L649.375 363.75L651.25 365.625V366.875H652.5V368.125L655 369.375L659.375 373.75L668.125 380L680 386.25L677.5 387.5L675.625 388.75L676.25 392.5L678.75 396.25L686.875 404.375L696.25 411.25L708.75 418.75L726.25 426.875L748.125 435L766.25 440.625L767.5 441.875L766.875 445.625L771.25 449.375L779.375 453.125L791.875 456.875L802.5 458.75H824.375L835.625 456.875L838.125 457.5L833.125 461.875V465L837.5 466.875L845.625 467.5L855 466.25L871.875 461.875L891.25 455L898.75 451.875L900.625 452.5L890 458.75L884.375 463.125L883.125 464.375L882.5 466.875H894.375L905.625 464.375L915 461.25L926.25 456.25L939.375 449.375L952.5 441.25H954.375L949.375 446.25L941.25 452.5L931.875 458.75L920.625 465L909.375 470L913.125 474.375L920.625 481.25L941.875 502.5L945 503.125L950 501.25L955 497.5L960 490.625L964.375 483.125L968.125 473.75L970.625 465L971.875 456.875L974.375 459.375L976.25 463.125L979.375 452.5L980.625 448.75L981.875 451.25L983.125 459.375L983.75 476.875L985.625 480L988.125 481.875L990 482.5V486.875L986.25 499.375L981.25 509.375L976.25 516.875L969.375 524.375L963.75 529.375L955 534.375L948.125 536.875H942.5L935 521.875L928.75 513.75L921.875 507.5L911.25 500L900 493.75L888.125 488.125L870.625 481.25L855.625 483.125L843.125 484.375L828.125 485H811.25L795 484.375L790 493.125L783.125 503.125L775 513.75L767.5 522.5L761.25 529.375L756.875 534.375L748.125 543.75L743.75 549.375L744.375 553.75L748.125 559.375L754.375 564.375L761.875 568.75L773.75 573.125L786.25 575.625L791.25 576.25L788.75 578.75L786.25 580H784.375V581.25L791.25 582.5L800 584.375L798.125 585.625L789.375 587.5L776.25 588.125L770.625 589.375L767.5 592.5L766.25 595.625L758.75 595L748.125 591.875L740.625 588.75L731.875 583.75L725 578.125L718.125 571.25L712.5 562.5L710 555.625L709.375 551.25L711.25 549.375L721.25 544.375L727.5 540L731.25 536.875L736.875 530L741.875 523.125L748.125 511.875L753.125 501.25L758.75 486.25L761.25 478.75V476.25L746.25 470.625L730.625 463.125L719.375 456.875L706.25 448.125L695.625 440L688.75 434.375L680.625 426.875L675.625 422.5L666.25 413.125L661.875 408.125L656.25 401.875L650.625 395L643.75 386.25L635.625 375L624.375 358.125L621.25 343.125L620 333.75L619.375 321.25Z" fill="#594F45"/>
<path d="M901.25 239.375L903.75 242.5L906.25 245L908.75 246.25V251.875L906.875 263.75L903.125 274.375L898.75 281.875L893.125 288.125L890 291.875L893.75 292.5L903.125 297.5L909.375 302.5L915.625 309.375L920.625 317.5L924.375 325.625L927.5 336.25L928.75 343.75L929.375 355L928.125 367.5L925.625 378.125L920.625 390.625L915 400L910.625 405.625L903.125 413.75L895 420.625L885.625 426.25L875.625 431.25L862.5 435.625L849.375 438.75L833.125 441.25H806.875L794.375 437.5L781.875 432.5L767.5 425L756.875 417.5L756.25 416.25L762.5 418.125L777.5 422.5L790.625 425L801.25 426.25L810.625 426.875H822.5L839.375 425.625L847.5 424.375L835.625 419.375L830 414.375L828.75 411.25V406.25L831.25 401.25L836.875 395L838.125 393.125L832.5 391.25L825.625 386.875L820.625 381.25L819.375 377.5L820 370.625L823.75 363.75L834.375 353.125L825 349.375L818.75 345L815 340.625L813.125 336.25L812.5 330.625L815 323.125L820.625 314.375L825.625 308.125L836.875 295.625L840.625 291.25L851.25 289.375L863.125 288.125L871.875 283.125L878.125 278.125L884.375 272.5L890 265L894.375 256.25L896.25 248.125L897.5 241.25L900.625 240L901.25 239.375Z" fill="#493A33"/>
<path d="M417.5 445L421.25 446.25L428.125 448.75L436.875 450H450.625L461.875 449.375H486.25L499.375 451.25L512.5 455L523.125 460L532.5 466.25L539.375 471.875L545.625 478.125L552.5 487.5L560 499.375V501.25L556.25 508.75L554.375 515L553.75 519.375V525L554.375 530.625L548.75 534.375L534.375 541.25L519.375 546.25L503.75 549.375L498.125 550H482.5L473.125 548.125L465.625 545.625L455.625 540.625L447.5 535L441.25 529.375L438.125 526.875L433.75 521.875L427.5 513.75L421.875 504.375L417.5 495L414.375 485.625L413.125 480.625V476.875L423.125 479.375L431.25 481.875L426.25 471.25L420.625 456.875L419.375 454.375L417.5 445Z" fill="#F3AA36"/>
<path d="M333.125 365.625H339.375L351.25 367.5L360.625 371.25L367.5 375.625L374.375 382.5L378.75 390L381.25 398.125L382.5 405L390.625 408.125H396.875L400.625 406.875H405L406.25 408.125L405.625 411.875L400.625 418.125L393.125 424.375L383.75 430L372.5 435L369.375 436.875L365.625 441.25L363.75 442.5L364.375 443.75L358.75 447.5L355 452.5L353.125 458.125V462.5L355.625 470.625L356.25 473.125H346.875L338.125 470.625L330 466.25L321.875 460L320.625 458.75L316.875 458.125L316.25 464.375L312.5 471.875L306.875 478.125L300 482.5L294.375 485L289.375 486.25H271.25L256.875 483.125L244.375 478.75L240 476.875L245 486.875L249.375 493.75L256.25 501.25L261.875 505.625L266.875 508.125L270.625 509.375L275 510H288.75L298.75 508.125L306.25 505L307.5 505.625L300.625 510.625L293.125 513.75L286.875 515H273.75L265 513.125L257.5 510L251.875 506.25L254.375 515.625L258.125 522.5L262.5 526.25L267.5 528.75L278.125 531.25L290 531.875L300 530.625L306.875 528.75L308.75 529.375L300 533.125L289.375 535.625L280.625 536.875H269.375L261.875 534.375L255 529.375L250.625 525L244.375 516.25L238.125 503.125L235 493.75L233.125 484.375L232.5 478.75V473.125L233.125 468.75L236.25 470L244.375 475L251.25 478.125L263.125 481.25L267.5 481.875H280L288.75 480L297.5 475.625L300.625 473.125L305 466.25L307.5 456.25L301.875 455L292.5 450L285 443.125L280.625 436.875L277.5 429.375L276.25 423.125V413.75L278.75 403.75L283.75 393.75L288.75 386.875L295 380.625L303.125 375L313.125 370L323.75 366.875L333.125 365.625Z" fill="#F3AA36"/>
<path d="M142.5 318.125H151.875L160.625 319.375L171.25 322.5L181.875 328.125L190 335L195.625 342.5L199.375 350L201.25 358.125V368.125L199.375 375.625L200 378.125L202.5 381.25L208.125 385L217.5 386.875L219.375 388.125L218.75 391.875L212.5 395.625L203.125 398.75L192.5 400.625L175.625 401.25L166.25 405L161.25 405.625L161.875 411.875V427.5L155 423.125L144.375 417.5L129.375 412.5L127.5 418.75L120.625 433.125L113.75 443.125L106.25 451.875L98.75 458.75L90 465L80.625 470L75.625 471.875V470.625L81.875 465.625L90 458.125L99.375 448.75L105 441.875L111.875 431.875L117.5 421.25L120.625 411.25L121.25 402.5L112.5 397.5L105.625 391.875L100.625 386.25L96.25 378.75L93.75 371.25L93.125 367.5V358.125L95 350L99.375 341.25L105.625 333.75L113.75 327.5L123.125 322.5L133.125 319.375L142.5 318.125Z" fill="#F3AA36"/>
<path d="M847.5 13.75L849.375 14.375L843.125 20.625L837.5 28.125L831.875 38.125L828.125 49.375L826.875 57.5V70.625L828.75 80L832.5 90L838.125 99.375L843.75 106.25L851.25 113.125L860 118.75L868.75 123.125L877.5 126.25L885 128.125L891.25 128.75L895.625 132.5L905 138.125L925.625 147.5L931.875 150.625L933.125 155L936.875 170.625L941.25 185.625L945.625 196.875L945 199.375L939.375 206.25L936.25 208.125H930L924.375 207.5L923.125 208.75H918.125L912.5 206.875L911.875 208.75H906.25L900 207.5L897.5 208.75H895L891.25 195L886.25 181.25L880 167.5L871.875 153.125L868.125 147.5L858.75 144.375L846.875 138.75L839.375 133.75L832.5 128.125L826.25 121.875L820 113.125L815 103.75L811.875 94.375L810 83.75V70.625L812.5 58.125L816.25 48.125L821.875 38.125L826.875 31.875L832.5 25.625L839.375 19.375L847.5 13.75Z" fill="#057068"/>
<path d="M593.75 481.875H608.75L620 484.375L628.125 487.5L636.25 491.875L641.875 496.25L648.125 501.875L653.125 508.75L658.125 518.75L660 526.875V536.25L658.75 542.5L656.25 547.5L653.125 550L650 549.375L645 547.5H640.625L623.125 551.875H615L604.375 548.125H600L598.75 550V554.375L601.25 558.125L607.5 563.75L615.625 568.125L613.75 568.75L603.125 566.25L593.75 562.5L586.25 558.125L579.375 552.5L573.125 545.625L568.125 536.875L565.625 530L564.375 523.125V516.875L566.25 508.125L570.625 499.375L576.25 493.125L581.25 488.75L590.625 483.75L593.75 482.5V481.875Z" fill="#F3AA36"/>
<path d="M590 234.375H601.25L616.875 236.25L635 240L656.25 246.25L677.5 254.375L695 262.5L707.5 268.75L708.125 270L702.5 268.125L687.5 262.5L671.875 258.125L661.25 256.25H655L663.75 260L670.625 265L676.875 271.25L679.375 275.625L668.125 275H641.875L635 276.25L644.375 281.25L651.25 286.875L651.875 288.75H620L625 298.125L630 310.625L632.5 320L633.125 324.375L628.75 320.625L621.875 315.625L619.375 314.375L620.625 333.75L623.125 350L624.375 356.875L621.875 354.375L611.875 336.875L602.5 318.75L595.625 305.625L589.375 296.875L583.125 290L577.5 285.625L580 283.125L584.375 282.5L590.625 284.375L586.875 279.375L578.75 273.125L567.5 266.875L553.75 260.625V258.75L562.5 253.75L570.625 250.625L580 248.75H596.875L606.25 250.625L610 251.875L605 245L596.875 238.75L590 235V234.375Z" fill="#02807A"/>
<path d="M290 385.625L291.25 386.25L286.25 396.25L284.375 403.125V416.875L286.875 425L291.25 432.5L298.125 439.375L306.875 444.375L316.875 447.5L321.875 448.125H333.75L343.75 446.25L353.75 442.5L360.625 438.75L351.875 440H346.25L340.625 438.75L337.5 435.625L336.875 431.875L339.375 429.375L350 425.625L356.25 421.25L364.375 409.375L370 403.125L374.375 401.25L378.125 401.875L383.75 405.625L390.625 408.125H396.875L400.625 406.875H405L406.25 408.125L405.625 411.875L400.625 418.125L393.125 424.375L383.75 430L372.5 435L369.375 436.875L365.625 441.25L363.75 442.5L364.375 443.75L358.75 447.5L355 452.5L353.125 458.125V462.5L355.625 470.625L356.25 473.125H346.875L338.125 470.625L330 466.25L321.875 460L320.625 458.75L316.875 458.125L316.25 464.375L312.5 471.875L306.875 478.125L300 482.5L294.375 485L289.375 486.25H271.25L256.875 483.125L244.375 478.75L240 476.875L245 486.875L249.375 493.75L256.25 501.25L261.875 505.625L266.875 508.125L270.625 509.375L275 510H288.75L298.75 508.125L306.25 505L307.5 505.625L300.625 510.625L293.125 513.75L286.875 515H273.75L265 513.125L257.5 510L251.875 506.25L254.375 515.625L258.125 522.5L262.5 526.25L267.5 528.75L278.125 531.25L290 531.875L300 530.625L306.875 528.75L308.75 529.375L300 533.125L289.375 535.625L280.625 536.875H269.375L261.875 534.375L255 529.375L250.625 525L244.375 516.25L238.125 503.125L235 493.75L233.125 484.375L232.5 478.75V473.125L233.125 468.75L236.25 470L244.375 475L251.25 478.125L263.125 481.25L267.5 481.875H280L288.75 480L297.5 475.625L300.625 473.125L305 466.25L307.5 456.25L301.875 455L292.5 450L285 443.125L280.625 436.875L277.5 429.375L276.25 423.125V413.75L278.75 403.75L283.75 393.75L288.75 386.875L290 385.625Z" fill="#D38B23"/>
<path d="M948.75 81.875L953.125 82.5L961.875 100L965 101.875L972.5 102.5L975.625 104.375L977.5 107.5L976.875 111.25L973.125 116.875L966.25 122.5L960.625 125.625L959.375 138.125L956.25 145.625L952.5 150L946.875 153.125L943.75 153.75H939.375L932.5 151.875L926.875 148.75L916.25 143.75L903.75 138.125L893.75 131.875L888.125 126.875L883.75 120.625L880 113.125L878.75 107.5L883.75 105.625L898.75 103.125L903.125 99.375L909.375 90L911.875 86.875L917.5 83.125L922.5 82.5L931.25 85.625L936.875 87.5L941.25 86.875L946.875 83.125L948.75 81.875Z" fill="#FD7300"/>
<path d="M761.875 476.25L781.875 481.25L793.75 483.125L795 484.375L790 493.125L783.125 503.125L775 513.75L767.5 522.5L761.25 529.375L756.875 534.375L748.125 543.75L743.75 549.375L744.375 553.75L748.125 559.375L754.375 564.375L761.875 568.75L773.75 573.125L786.25 575.625L791.25 576.25L788.75 578.75L786.25 580H784.375V581.25L791.25 582.5L800 584.375L798.125 585.625L789.375 587.5L776.25 588.125L770.625 589.375L767.5 592.5L766.25 595.625L758.75 595L748.125 591.875L740.625 588.75L731.875 583.75L725 578.125L718.125 571.25L712.5 562.5L710 555.625L709.375 551.25L711.25 549.375L721.25 544.375L727.5 540L731.25 536.875L736.875 530L741.875 523.125L748.125 511.875L753.125 501.25L758.75 486.25L761.875 476.25Z" fill="#FD7501"/>
<path d="M980.625 448.75L981.875 451.25L983.125 459.375L983.75 476.875L985.625 480L988.125 481.875L990 482.5V486.875L986.25 499.375L981.25 509.375L976.25 516.875L969.375 524.375L963.75 529.375L955 534.375L948.125 536.875H942.5L935 521.875L928.75 513.75L921.875 507.5L911.25 500L900 493.75L888.125 488.125L870.625 481.25L873.125 480L889.375 476.25L908.75 470L914.375 475.625L919.375 480L941.875 502.5L945 503.125L950 501.25L955 497.5L960 490.625L964.375 483.125L968.125 473.75L970.625 465L971.875 456.875L974.375 459.375L976.25 463.125L979.375 452.5L980.625 448.75Z" fill="#B64B01"/>
<path d="M920.625 145.625L924.375 146.875L931.875 150.625L933.125 155L936.875 170.625L941.25 185.625L945.625 196.875L945 199.375L939.375 206.25L936.25 208.125H930L924.375 207.5L923.125 208.75H918.125L912.5 206.875L911.875 208.75H906.25L900 207.5L897.5 208.75H895L891.25 195L886.25 181.25L880 167.5L871.875 153.125L868.75 148.125L870.625 147.5L881.25 149.375L888.125 150H895L908.125 148.75L916.875 146.875L920.625 145.625Z" fill="#01645F"/>
<path d="M151.875 505.625L152.5 508.125L146.875 520L139.375 530.625L132.5 538.125L128.75 541.25L131.25 545.625L135.625 551.875L143.75 565.625L145 568.75L151.25 567.5L157.5 561.875L161.875 555.625L164.375 550.625L166.25 553.125L169.375 548.125L170 550.625L168.125 559.375V563.125L170 565.625L165.625 573.125L159.375 579.375L153.125 583.125L146.875 585H141.875L140.625 584.375L139.375 576.875L135.625 569.375L130 562.5L122.5 555.625L116.25 551.25L112.5 551.875L103.125 555.625L93.125 558.125L81.875 559.375H75.625L63.125 558.75L48.75 565.625L41.25 568.75H40V573.125L43.125 579.375L47.5 584.375L53.75 588.75L55.625 590.625H52.5L57.5 595.625L52.5 595L46.25 592.5H42.5L40 593.75L34.375 589.375L30 585L26.25 578.75L24.375 573.125V563.75L25 563.125L34.375 561.875L41.875 558.75L48.125 554.375L38.75 550L29.375 545L21.875 540L15 534.375L8.75 528.75L2.5 522.5V521.875L11.875 520.625L16.875 518.125L17.5 517.5L9.375 515.625L3.125 511.875L1.875 509.375L5 510.625L13.125 513.75L24.375 516.25L33.125 517.5L30 520.625L21.25 525L12.5 527.5L23.75 535L38.125 541.875L49.375 545.625L62.5 548.125L68.125 548.75H82.5L94.375 546.875L105.625 543.125L116.25 538.125L125.625 531.875L131.875 526.875L138.125 521.25L145.625 513.75L151.875 505.625Z" fill="#D48C23"/>
<path d="M838.125 291.875L840.625 292.5L833.125 300L828.75 305L822.5 312.5L816.25 321.875L813.75 328.125L813.125 333.75L815 339.375L817.5 343.125L821.875 346.875L830.625 351.25L835.625 353.125L833.125 355.625L828.125 360L823.125 365.625L820.625 370.625L820 377.5L822.5 383.125L828.125 388.125L838.125 393.125L836.875 395.625L831.25 401.875L829.375 406.25V411.25L831.25 415L835.625 418.75L844.375 422.5L848.75 423.75L847.5 425L833.125 426.875L818.125 427.5L812.5 424.375L805.625 417.5L803.75 413.125V405.625L805.625 401.875L810.625 397.5L816.875 395L806.875 390L801.875 385.625L798.125 379.375L796.875 375V368.125L799.375 363.75L805 360L810.625 357.5L805.625 354.375L801.25 350L798.75 345L796.875 337.5V329.375L799.375 322.5L803.125 316.25L808.75 309.375L818.125 300L820.625 298.125L835.625 292.5L838.125 291.875Z" fill="#5B4A42"/>
<path d="M207.5 442.5L208.75 443.125L210.625 448.75L214.375 456.25L220 463.75L223.125 467.5L220 466.875L213.75 462.5L211.875 461.25V470L213.125 482.5L215.625 493.125L220 505L226.25 516.875L233.75 526.875L240.625 534.375L246.875 540L256.25 546.25L265 550.625L273.75 553.125L278.125 553.75H291.875L304.375 551.875L316.25 548.75L326.25 545L339.375 538.125L346.25 533.125L351.875 528.125L352.5 529.375L346.875 536.25L341.875 540.625L333.75 546.25L339.375 558.125L341.875 563.125L346.875 562.5L352.5 558.75L358.125 553.125L361.875 546.875L363.75 548.75L366.875 544.375L367.5 546.875L365 555V560L366.25 561.875L362.5 567.5L356.875 573.125L350.625 576.875L345.625 578.75L338.75 579.375L335.625 578.125L334.375 569.375L331.25 561.875L325.625 554.375L323.75 552.5L320.625 553.125L308.75 556.875L298.75 558.75L292.5 559.375H283.125L272.5 558.125L266.875 557.5L257.5 567.5L252.5 573.75L254.375 578.125L261.25 582.5L268.125 585L275 586.25L273.125 588.125L278.75 590L278.125 591.25L275 591.875L266.25 592.5L263.125 595.625L256.875 595L249.375 591.875L242.5 586.875L238.125 581.875L236.25 578.125L235.625 574.375L240.625 571.25L245.625 567.5L250 562.5L255 553.75L255.625 552.5L251.875 551.25L241.875 545.625L231.875 537.5L225 530.625L218.75 522.5L213.75 513.75L210.625 506.875L207.5 496.875L205.625 486.875L205 481.25V458.125L206.875 444.375L207.5 442.5Z" fill="#D48C23"/>
<path d="M760 309.375L784.375 320V320.625H767.5L763.125 322.5L761.875 324.375L762.5 330.625L768.125 342.5L770 345.625L763.75 343.75L758.75 342.5H747.5L742.5 344.375L741.25 345.625L741.875 351.25L747.5 359.375L758.75 370.625L765 375.625L763.125 376.25L753.125 373.75L748.75 373.125H740.625L735.625 375L733.125 377.5L732.5 382.5L735 390.625L740 399.375L745 405.625L748.125 408.75V410H749.375V411.25L751.875 412.5L753.125 414.375L747.5 412.5L735.625 406.25L725 398.75L718.75 393.75L711.25 386.875L705 380.625L700.625 375L699.375 370.625V364.375L701.25 359.375L703.75 356.25L708.75 353.75H716.875L726.25 356.25L721.875 348.75L720.625 345V337.5L724.375 331.875L728.75 329.375L731.875 328.75H737.5L748.125 331.25L755 334.375L750 324.375L749.375 319.375L751.25 315L755 311.875L760 309.375Z" fill="#5A4A42"/>
<path d="M121.875 323.125L123.125 323.75L117.5 328.125L111.875 333.75L107.5 340.625L104.375 349.375L103.75 353.125V362.5L105.625 370L110 378.75L116.25 386.25L125 392.5L132.5 396.25L140 398.75L146.875 400L156.875 400.625L168.75 399.375L178.75 396.25L186.875 392.5L189.375 390H190.625L191.875 387.5L196.25 380.625L198.125 377.5L200.625 378.75L203.75 381.875L208.125 385L217.5 386.875L219.375 388.125L218.75 391.875L212.5 395.625L203.125 398.75L192.5 400.625L175.625 401.25L166.25 405L161.25 405.625L161.875 411.875V427.5L155 423.125L144.375 417.5L129.375 412.5L127.5 418.75L120.625 433.125L113.75 443.125L106.25 451.875L98.75 458.75L90 465L80.625 470L75.625 471.875V470.625L81.875 465.625L90 458.125L99.375 448.75L105 441.875L111.875 431.875L117.5 421.25L120.625 411.25L121.25 402.5L112.5 397.5L105.625 391.875L100.625 386.25L96.25 378.75L93.75 371.25L93.125 367.5V358.125L95 350L99.375 341.25L105.625 333.75L113.75 327.5L121.875 323.125Z" fill="#D38B23"/>
<path d="M696.25 300.625H703.125L710.625 303.75L720 308.75L731.875 316.875L738.75 321.875L737.5 316.875L736.875 312.5V305L738.75 301.875H743.125L755.625 306.875L760 309.375L757.5 311.25L752.5 314.375L750.625 316.875L750 320.625L751.25 326.25L755 333.125V334.375L749.375 332.5L741.25 330L737.5 329.375H731.875L726.25 331.25L723.125 334.375L721.25 337.5V345L724.375 352.5L726.875 356.875L716.875 354.375H708.75L703.75 356.875L700.625 361.875L700 364.375V370.625L700.625 374.375L697.5 371.25L691.25 362.5L685 351.875L678.75 338.75L674.375 325.625L672.5 316.25V311.25L673.75 309.375H676.875L683.75 315.625L688.125 320.625L693.75 326.875L702.5 336.25L708.75 341.875L716.875 348.125L718.125 348.75L710.625 336.875L703.125 323.75L698.125 312.5L695 301.875L696.25 300.625Z" fill="#493A33"/>
<path d="M945.625 197.5L946.875 200L955 218.125L962.5 233.75V235.625L959.375 240.625L957.5 241.25L953.75 238.75L950.625 235.625V236.875L951.25 244.375L950 246.25L946.25 245.625L939.375 241.25L933.125 236.25L932.5 241.25L928.75 245.625L926.875 246.25H922.5L917.5 243.75L913.75 238.75L912.5 243.75L910 246.25L906.25 245.625L903.125 242.5L901.25 240L900 241.25H897.5L896.875 243.75V224.375L895.625 213.75L895 208.75L901.25 206.875L906.25 208.125H911.875L912.5 206.875L918.125 208.125H923.125L924.375 206.875L930 207.5H936.25L939.375 205.625L945.625 197.5Z" fill="#D1C5B3"/>
<path d="M885 155.625L891.875 160L901.25 166.25L912.5 172.5L925.625 178.125L935 180.625L940 181.875L945.625 196.875L945 199.375L939.375 206.25L936.25 208.125H930L924.375 207.5L923.125 208.75H918.125L912.5 206.875L911.875 208.75H906.25L903.75 208.125L899.375 192.5L895 180L888.75 165L885 156.875V155.625Z" fill="#02807A"/>
<path d="M553.75 260H566.875L576.875 261.875L588.75 266.25L598.75 272.5L605.625 278.75V280H606.875L612.5 287.5L617.5 296.25L619.375 301.25L616.25 300L608.125 296.25L597.5 293.125L591.875 292.5L599.375 299.375L605.625 305L611.25 310.625L615.625 315.625L619.375 320L621.25 338.75L623.75 353.125L624.375 356.875L621.875 354.375L611.875 336.875L602.5 318.75L595.625 305.625L589.375 296.875L583.125 290L577.5 285.625L580 283.125L584.375 282.5L590.625 284.375L586.875 279.375L578.75 273.125L567.5 266.875L553.75 260.625V260Z" fill="#01645F"/>
<path d="M948.125 83.75H951.25L953.75 86.875L957.5 98.125L960.625 102.5L965 104.375H971.875L973.125 105L973.75 108.75L971.875 112.5L966.25 117.5L956.25 122.5L946.25 126.25L938.75 128.125L933.75 128.75H923.125L912.5 126.875L901.875 123.125L893.125 118.125L892.5 116.875L903.125 119.375L913.125 121.25L918.75 121.875H933.75L942.5 120.625L945 119.375L945.625 116.875L943.75 115L936.25 112.5L928.125 108.125L920 100.625L915 95.625L912.5 91.875L913.75 88.75L915.625 86.875L917.5 86.25H923.75L929.375 88.125L935.625 93.75L943.125 100L949.375 103.125L951.25 103.75L948.75 92.5L946.875 88.75L945.625 87.5L946.25 85L948.125 83.75Z" fill="#FF9000"/>
<path d="M640.625 546.875H645L651.25 549.375L654.375 548.75L656.875 546.875L655.625 550.625L652.5 555L653.125 558.125L656.25 563.75L661.25 568.125L667.5 571.25L668.125 574.375L664.375 576.875L661.875 577.5H643.75L631.875 575L624.375 572.5L616.875 569.375L607.5 564.375L600 557.5L598.125 554.375V550L600 547.5H604.375L615 551.25H623.125L640.625 546.875Z" fill="#FE9000"/>
<path d="M670 301.875H674.375L679.375 304.375L688.125 313.125L695 322.5L696.25 323.75L693.75 317.5L693.125 313.75V306.25L694.375 302.5H695.625L700 315.625L705 326.25L713.125 340L718.125 347.5V348.75L715 347.5L706.875 340.625L697.5 331.875L683.75 316.875L680 312.5L676.875 310H673.75L673.125 311.25V316.25L675.625 327.5L679.375 338.75L686.875 354.375L693.125 364.375L702.5 376.875L706.875 385.625L713.125 394.375L720 403.125L724.375 408.75H722.5L714.375 401.875L706.25 394.375L697.5 385L690.625 376.25L683.125 365.625L676.25 353.75L670 340.625L665.625 327.5L665 323.125V311.875L666.25 306.25L670 301.875Z" fill="#382D29"/>
<path d="M374.375 401.25L378.125 401.875L383.75 405.625L390.625 408.125H396.875L400.625 406.875H405L406.25 408.125L405.625 411.875L400.625 418.125L393.125 424.375L383.75 430L372.5 435L360 438.75L351.875 440H346.25L340.625 438.75L337.5 435.625L336.875 431.875L339.375 429.375L350 425.625L356.25 421.25L364.375 409.375L370 403.125L374.375 401.25Z" fill="#FE9000"/>
<path d="M140 448.125L141.875 450.625L144.375 460L145 463.125V480.625L142.5 490.625L139.375 498.125L135 505.625L129.375 512.5L123.75 517.5L116.25 521.25L107.5 523.125L98.75 522.5L89.375 519.375L81.875 515L75.625 509.375L70 503.125L68.75 500.625L69.375 498.125L81.25 491.875L95.625 483.125L108.125 473.75L106.875 476.875L100.625 486.25L95 493.125L90 498.125L84.375 501.875H82.5V503.125L93.75 503.75H101.25L113.125 501.875L120.625 498.75L126.25 495.625L125 498.75L120.625 503.75L115 508.75L108.125 511.875L103.125 513.125L104.375 513.75H114.375L121.875 511.25L128.125 506.875L131.875 501.875L136.875 492.5L140 481.875L140.625 478.75V460L140 453.75V448.125Z" fill="#D38B23"/>
<path d="M465 467.5H470.625L470 468.75L460.625 471.875L451.25 476.875L442.5 483.125L436.25 488.75L441.875 491.25L448.125 492.5H458.125L464.375 491.875L461.25 494.375L451.875 498.75L442.5 501.25H431.875L436.875 507.5L443.75 513.75L453.125 519.375L463.125 523.125L471.25 525L476.25 525.625H489.375L501.875 523.75L513.75 520.625L516.875 520L513.75 523.125L505.625 528.125L496.25 531.875L484.375 534.375H467.5L456.875 531.875L448.75 528.75L440.625 524.375L434.375 519.375L430 515L425.625 506.875L425 504.375V495.625L426.875 492.5L434.375 484.375L440.625 478.75L446.875 474.375L456.875 469.375L465 467.5Z" fill="#D38B23"/>
<path d="M879.375 110.625L881.875 111.875L888.75 117.5L898.75 123.125L909.375 128.125L920 131.25L927.5 132.5H939.375L948.125 130.625L958.125 126.25H959.375V138.125L956.25 145.625L952.5 150L946.875 153.125L943.75 153.75H939.375L932.5 151.875L926.875 148.75L916.25 143.75L903.75 138.125L893.75 131.875L888.125 126.875L883.75 120.625L880 113.125L879.375 110.625Z" fill="#B44800"/>
<path d="M445 541.875L453.75 546.875L457.5 548.75L456.875 551.25L451.25 556.25L440 564.375L429.375 571.25V575.625L433.75 581.25L440.625 586.25L446.25 588.75L447.5 590L445 591.25L450.625 594.375V595L442.5 594.375L440 593.75H435.625L433.75 595.625L429.375 594.375L423.125 590L417.5 584.375L413.75 577.5L412.5 573.75V568.125L415.625 566.875L421.875 565L428.125 561.25L435 555L441.25 546.875L445 541.875Z" fill="#FD7804"/>
<path d="M127.5 541.875H128.75L134.375 550L143.75 565.625L145 568.75L151.25 567.5L157.5 561.875L161.875 555.625L164.375 550.625L166.25 553.125L169.375 548.125L170 550.625L168.125 559.375V563.125L170 565.625L165.625 573.125L159.375 579.375L153.125 583.125L146.875 585H141.875L140.625 584.375L139.375 576.875L135.625 569.375L130 562.5L122.5 555.625L116.25 551.25V549.375L125 543.75L127.5 541.875Z" fill="#FD7703"/>
<path d="M901.25 239.375L903.75 242.5L906.25 245L908.75 246.25V251.875L906.875 263.75L903.125 274.375L898.75 281.875L893.125 288.125L890 291.875L880 290L863.125 288.75L865.625 286.875L874.375 281.25L882.5 274.375L887.5 268.75L892.5 260.625L895 254.375L897.5 241.25L900.625 240L901.25 239.375Z" fill="#594F45"/>
<path d="M756.25 416.25L762.5 418.125L777.5 422.5L790.625 425L801.25 426.25L818.75 427.5L827.5 431.25L837.5 433.75L845.625 435L858.125 435.625V436.875L845 439.375L833.125 441.25H806.875L794.375 437.5L781.875 432.5L767.5 425L756.875 417.5L756.25 416.25Z" fill="#382D29"/>
<path d="M765.625 517.5V519.375L756.25 529.375L750.625 535L743.75 543.75L741.25 549.375V556.25L745 561.875L750 566.25L759.375 572.5L775 580L773.125 580.625L759.375 575L745.625 568.75L741.25 568.125L741.875 571.25L747.5 577.5L751.875 581.875L758.75 587.5L756.875 588.125L745 581.875L736.25 575.625L729.375 569.375L723.125 561.25L721.875 558.125H726.25V556.875L723.75 556.25L721.875 553.75V550L725 546.25L734.375 540L748.125 533.125L755 526.875L760 522.5L765.625 517.5Z" fill="#FF9000"/>
<path d="M761.875 476.25L781.875 481.25L793.75 483.125L795 484.375L790 493.125L783.125 503.125L776.875 511.25L773.125 510L765.625 505L760 500L756.25 495.625L756.875 491.875L761.875 476.25Z" fill="#B54900"/>
<path d="M975 473.125L975.625 475L966.875 493.125L961.875 503.75L961.25 506.875L966.25 505L973.75 498.125L983.125 488.75L981.875 492.5L975.625 503.125L970 510L964.375 516.25L955.625 523.125L951.875 525L950.625 524.375V521.25L946.25 525L941.875 524.375L938.125 520L934.375 513.75L929.375 503.125L926.25 496.875L920.625 490L913.125 481.25L912.5 479.375L915 480.625L921.875 487.5L926.25 492.5L933.75 500L940 504.375L943.125 505.625H950L954.375 503.125L958.75 499.375L965 491.25L971.875 479.375L975 473.125Z" fill="#FE7300"/>
<path d="M501.25 560H513.125L514.375 561.875L518.125 580L523.125 580.625L530 578.125L536.875 573.75L539.375 572.5L540.625 570L541.875 569.375V572.5L546.875 568.125L547.5 569.375L544.375 575.625L541.25 580.625L541.875 585L535.625 590.625L527.5 594.375L523.125 595.625H513.125L508.75 593.75L509.375 583.75L508.125 576.25L503.75 565.625L501.25 561.25V560Z" fill="#B74C02"/>
<path d="M955 41.875L956.875 42.5L956.25 47.5L951.25 55L957.5 50.625L959.375 46.875H960.625L960 50.625L957.5 53.75L952.5 56.875L953.125 65L951.25 71.25L946.875 76.25L944.375 77.5H938.125L934.375 75.625L931.25 73.125L927.5 65.625L926.875 63.125V57.5L928.75 51.875L931.875 47.5L935.625 45.625H942.5L948.125 49.375L950.625 51.875L954.375 46.25L955 41.875Z" fill="#242020"/>
<path d="M874.375 61.25H881.25L886.875 65L890 69.375L891.875 75.625V81.25L890 86.875L887.5 90.625L883.125 93.125H876.875L873.125 91.25L870 88.125L866.875 83.125L865.625 78.75L857.5 78.125L854.375 76.25V74.375L857.5 75.625L865.625 76.875L865 75.625L858.125 73.125L855 70V68.125H856.25L859.375 71.25L865.625 73.125L868.125 66.25L873.125 61.875L874.375 61.25Z" fill="#242020"/>
<path d="M255.625 553.125L261.25 554.375L266.875 556.25L265.625 558.75L258.125 566.875L252.5 573.75L254.375 578.125L261.25 582.5L268.125 585L275 586.25L273.125 588.125L278.75 590L278.125 591.25L275 591.875L266.25 592.5L263.125 595.625L256.875 595L249.375 591.875L242.5 586.875L238.125 581.875L236.25 578.125L235.625 574.375L240.625 571.25L245.625 567.5L250 562.5L255.625 553.125Z" fill="#FD7704"/>
<path d="M48.125 554.375L53.125 555L63.125 557.5V558.75L48.75 565.625L41.25 568.75H40V573.125L43.125 579.375L47.5 584.375L53.75 588.75L55.625 590.625H52.5L57.5 595.625L52.5 595L46.25 592.5H42.5L40 593.75L34.375 589.375L30 585L26.25 578.75L24.375 573.125V563.75L25 563.125L34.375 561.875L41.875 558.75L48.125 554.375Z" fill="#B74C02"/>
<path d="M366.875 544.375L367.5 546.875L365 555V560L366.25 561.875L362.5 567.5L356.875 573.125L350.625 576.875L345.625 578.75L338.75 579.375L335.625 578.125L334.375 569.375L331.25 561.875L325.625 554.375L323.75 552.5L324.375 550.625L333.125 546.25L339.375 558.125L341.875 563.125L346.875 562.5L352.5 558.75L358.125 553.125L361.875 546.875L363.75 548.75L366.875 544.375Z" fill="#B74D02"/>
<path d="M405 407.5L406.25 408.125L405.625 411.875L400.625 418.125L393.125 424.375L383.75 430L372.5 435L360 438.75L351.875 440H346.25L340.625 438.75L337.5 435.625L336.875 431.875L339.375 429.375L350 425.625L356.25 421.25L362.5 412.5L365.625 413.125L371.875 416.875L374.375 420L373.75 422.5L368.75 425L356.875 428.125H355.625L356.25 430L357.5 430.625H364.375L374.375 428.75L382.5 425.625L392.5 420L399.375 414.375L404.375 408.75L405 407.5Z" fill="#FD7501"/>
<path d="M600 547.5H604.375L615 551.25H623.125L630.625 549.375L633.125 550L635.625 555.625L636.25 558.125V562.5L635.625 563.75L630 563.125L618.125 557.5H616.25L616.875 561.25L619.375 562.5L628.125 568.125L638.125 571.875L646.875 573.75L659.375 574.375L667.5 573.125L666.875 575.625L661.875 577.5H643.75L631.875 575L624.375 572.5L616.875 569.375L607.5 564.375L600 557.5L598.125 554.375V550L600 547.5Z" fill="#FD7501"/>
<path d="M198.125 377.5L200.625 378.75L203.75 381.875L208.125 385L217.5 386.875L219.375 388.125L218.75 391.875L212.5 395.625L203.125 398.75L192.5 400.625H177.5V399.375L184.375 395L189.375 390H190.625L191.875 387.5L196.25 380.625L198.125 377.5Z" fill="#FE9001"/>
<path d="M342.5 399.375H346.875L350.625 401.25L354.375 405.625L355 406.875V413.75L351.875 418.75L346.875 421.25H341.25L337.5 419.375L334.375 415.625L333.125 412.5V408.125L335.625 403.125L338.75 400.625L342.5 399.375Z" fill="#292424"/>
<path d="M615.625 525H623.125L628.125 528.75L630 531.875L630.625 536.875L628.75 541.875L625 545.625L621.25 546.875L615.625 546.25L611.875 543.75L609.375 540.625L608.75 538.75V531.875L611.25 528.125L614.375 525.625L615.625 525Z" fill="#272222"/>
<path d="M900 206.875L906.25 208.125L904.375 208.75L907.5 223.75L908.75 235V245.625L910 246.25L906.25 245.625L903.125 242.5L901.25 240L900 241.25H897.5L896.875 243.75V224.375L895.625 213.75L895 208.75L900 206.875Z" fill="#A3B4C2"/>
<path d="M853.75 93.75H859.375L865.625 96.25L868.75 100V105.625L866.25 108.75L860.625 111.25H851.875L846.875 108.75L843.75 105V100.625L846.25 96.875L851.25 94.375L853.75 93.75Z" fill="#FE7300"/>
<path d="M966.25 65H972.5L976.25 67.5L976.875 68.75V75.625L974.375 79.375L969.375 83.75L963.75 85.625L958.125 85L955 82.5L954.375 81.25V75.625L957.5 70.625L961.875 66.875L966.25 65Z" fill="#FE7300"/>
<path d="M445 541.875L453.75 546.875L457.5 548.75L456.875 551.25L451.25 556.25L440 564.375L429.375 571.25H428.125L429.375 568.75L436.25 563.75L438.75 561.875L431.875 565L423.75 566.875L421.875 566.25V565L428.125 561.25L435 555L441.25 546.875L445 541.875Z" fill="#FD7703"/>
<path d="M908.75 404.375H910.625L909.375 406.875L903.75 413.125L896.875 418.75L881.25 423.125L870.625 425L859.375 425.625L853.125 425L851.875 423.75L868.125 420L884.375 415L900 408.75L908.75 404.375Z" fill="#382D29"/>
<path d="M193.75 349.375L197.5 350L200.625 354.375L201.25 358.125V365.625L199.375 370L198.125 371.25L193.75 370.625L190.625 365L190 361.875V356.25L191.875 351.25L193.75 349.375Z" fill="#322D2B"/>
<path d="M367.5 380.625L371.875 381.25L374.375 382.5L378.75 390L379.375 391.875V399.375L378.125 400.625H374.375L370.625 398.125L366.875 392.5L365.625 388.75V383.125L367.5 380.625Z" fill="#322D2B"/>
<path d="M655 528.125L658.125 529.375L659.375 531.25L660 536.25L658.75 542.5L656.25 547.5L653.125 550L650 549.375L648.125 545.625V537.5L650.625 531.875L653.125 528.75L655 528.125Z" fill="#312C2B"/>
<path d="M438.75 561.25L440 561.875L432.5 566.875L428.75 570V574.375L428.125 575.625L430 580L434.375 585H432.5L426.875 580.625L425 580L428.125 586.25L430.625 590.625L428.125 589.375L423.125 584.375L418.75 577.5L417.5 573.125L418.75 572.5L418.125 569.375L421.875 566.875L433.75 563.75L438.75 561.25Z" fill="#FE8F00"/>
<path d="M135.625 556.875L137.5 558.75L142.5 566.875L145 569.375H150L154.375 567.5L159.375 563.125L162.5 560.625L161.25 563.125L155.625 569.375L153.75 572.5L160 570L163.125 568.125L164.375 568.75L161.25 571.875L156.875 575.625L149.375 579.375L146.25 580L146.875 578.125L143.75 579.375L141.25 576.875L139.375 570L138.125 563.75L135.625 558.125V556.875Z" fill="#FE8F00"/>
<path d="M259.375 561.25V563.125L254.375 568.125L251.875 571.875V576.875L254.375 580.625L261.25 585L263.75 586.875L260.625 586.25L253.75 583.125L251.25 582.5L253.125 585.625L258.125 590.625L256.875 591.25L251.25 588.125L245 582.5L241.875 578.75L242.5 576.875L241.875 573.125L247.5 568.75L255 565L259.375 561.25Z" fill="#FE8F00"/>
<path d="M742.5 549.375L746.875 558.125L752.5 563.125L761.875 568.75L773.75 573.125L786.25 575.625L791.25 576.25L788.75 578.75L783.75 580.625L778.125 579.375L766.875 574.375L755.625 568.125L748.125 562.5L742.5 557.5L741.875 556.25V550.625L742.5 549.375Z" fill="#B95004"/>
<path d="M445 541.875L453.75 546.875L457.5 548.75L456.875 551.25L451.25 556.25L448.125 557.5L443.75 553.125L441.25 548.75L441.875 545.625L445 541.875Z" fill="#B64B01"/>
<path d="M218.75 388.75L219.375 390.625L216.25 393.75L209.375 396.875L197.5 400L192.5 400.625H177.5V399.375L182.5 396.25H193.125L205 394.375L214.375 391.25L218.75 388.75Z" fill="#FD7703"/>
<path d="M979.375 73.125H980V81.875L977.5 93.125L974.375 101.25L972.5 103.125L965 102.5L966.25 100L971.875 91.875L975.625 84.375L978.75 76.25L979.375 73.125Z" fill="#057068"/>
<path d="M127.5 541.875H128.75L132.5 547.5L131.25 550L125 554.375L121.25 555L116.25 551.25V549.375L125 543.75L127.5 541.875Z" fill="#B64A01"/>
<path d="M593.75 535.625H598.75L602.5 538.125L603.75 540L603.125 543.125L600.625 545L595 544.375L591.25 541.25L591.875 536.875L593.75 535.625Z" fill="#FE7300"/>
<path d="M330 423.125H333.75L336.25 425V428.75L333.125 431.875L328.125 433.125L324.375 431.25V427.5L326.875 424.375L330 423.125Z" fill="#FE7300"/>
<path d="M187.5 371.875H191.875L195 373.75L195.625 378.125L192.5 380.625H186.25L183.125 378.125L183.75 373.75L187.5 371.875Z" fill="#FE7300"/>
<path d="M870.625 66.25L874.375 66.875L876.875 70V75L874.375 77.5H870.625L868.125 74.375L867.5 70.625L869.375 66.875L870.625 66.25Z" fill="#F4F4F5"/>
<path d="M932.125 52L935.875 52.625L938.375 55.75V60.75L935.875 63.25H932.125L929.625 60.125L929 56.375L930.875 52.625L932.125 52Z" fill="#F4F4F5"/>
<path d="M614.375 527.5H617.5L619.375 529.375L618.75 533.75L617.5 534.375H613.75L612.5 532.5V529.375L614.375 527.5Z" fill="#F2F3F4"/>
<path d="M336.875 405.625L341.25 406.25L341.875 410.625L340 412.5H336.875L335 410.625V407.5L336.875 405.625Z" fill="#F3F4F4"/>
<path d="M164.375 550.625H165V556.25L157.5 564.375L150 570H146.25L148.75 568.75L154.375 565L158.75 560.625L163.75 551.875L164.375 550.625Z" fill="#BE5809"/>
<path d="M910 100.625L913.75 101.25L916.25 103.75L915.625 105.625H911.25L908.125 103.75L908.75 101.25L910 100.625Z" fill="#B54800"/>
<path d="M379.375 393.125L380.625 395L381.875 401.875V405L375.625 401.25L378.125 400L378.75 399.375L379.375 393.125Z" fill="#E6A135"/>
<path d="M656.25 546.875L656.875 548.125L651.875 556.25H651.25L650 549.375L654.375 548.75L656.25 546.875Z" fill="#F0A734"/>
<path d="M191.875 353.75L194.375 354.375L195 355.625V359.375L194.375 360.625L191.875 360L191.25 358.75V355L191.875 353.75Z" fill="#E6E7E7"/>
<path d="M366.875 385.625L369.375 386.25L371.25 388.75V391.875L368.125 391.25L366.875 389.375V385.625Z" fill="#EDEFF1"/>
<path d="M651.875 531.875H653.75L654.375 535.625L652.5 538.75L650.625 538.125V533.75L651.875 531.875Z" fill="#E8EBED"/>
<path d="M878.125 74.375L880.625 75.625V78.75L877.5 79.375L876.875 78.75V75.625L878.125 74.375Z" fill="#EFEFEF"/>
<path d="M939.625 60.125L942.125 61.375V64.5L939 65.125L938.375 64.5V61.375L939.625 60.125Z" fill="#EFEFEF"/>
<path d="M615.625 525L618.125 525.625L616.25 526.25L613.125 529.375L610 530.625L611.25 528.125L614.375 525.625L615.625 525Z" fill="#3F3732"/>
<path d="M617.5 535.625L620.625 536.25V538.75L618.125 539.375L616.875 536.875L617.5 535.625Z" fill="#E5E7E8"/>
<path d="M343.75 410L346.25 410.625V413.125L343.75 413.75L343.125 410.625L343.75 410Z" fill="#DFE5EA"/>
<path d="M938.75 90.625L941.25 92.5V95.625H939.375L938.125 93.125L938.75 90.625Z" fill="#B54800"/>
</svg>
