<svg width="98" height="124" viewBox="0 0 98 124" fill="none" xmlns="http://www.w3.org/2000/svg">
<path d="M19.1875 0.25H23.5625L28.5625 2.125L32.3125 5.25L36.0625 12.75L38.5625 22.75L40.4375 29.625L43.5625 34.625L47.3125 39L51.6875 45.875L57.9375 54L63.5625 58.375L66.0625 61.5L68.5625 64L69.1875 66.5H70.4375L72.9375 70.875L76.6875 76.5L77.9375 77.75L77.3125 80.25L73.5625 76.5V79.625L70.4375 77.125V75.875H66.6875L66.0625 73.375V72.125L64.1875 70.25L64.8125 67.125L63.5625 62.75L61.0625 66.5H59.8125L65.4375 78.375L67.3125 84V85.875L69.8125 85.25V86.5L72.3125 85.875V83.375L71.0625 80.875L75.4375 84.625L79.8125 87.75L84.1875 88.375L92.3125 89.625L94.8125 87.125L95.4375 84L96.6875 84.625V89L95.4375 91.5L96.6875 92.125L96.0625 95.25L97.3125 95.875L94.8125 99.625L91.0625 100.875V102.125L84.1875 102.75L75.4375 108.375L69.8125 109L63.5625 107.125L62.9375 110.875V118.375L64.8125 119.625V120.875L59.1875 122.75L57.3125 124H48.5625L42.9375 122.75L43.5625 120.25L48.5625 117.125H51.6875L54.1875 118.375H56.6875L57.3125 117.125V104.625L49.8125 97.125L42.9375 85.875L37.9375 77.75L31.6875 64L29.1875 57.125L28.5625 54L27.9375 27.125L26.0625 19V17.125L22.9375 15.875L21.0625 14L15.4375 14.625L4.1875 20.25H1.0625L0.4375 17.75L4.1875 13.375L9.1875 8.375L9.8125 6.5L16.0625 1.5L19.1875 0.25Z" fill="#CAA775"/>
<path d="M41.0625 82.125L44.8125 83.375L49.8125 87.75L54.8125 94.625L59.1875 97.75L62.9375 99L68.5625 99.625V92.75L73.5625 89.625L76.0625 90.875L77.9375 92.75L81.0625 94V99L89.1875 94.625H91.0625L89.1875 89.625L93.5625 89L94.8125 87.125L95.4375 84L96.6875 84.625V89L95.4375 91.5L96.6875 92.125L96.0625 95.25L97.3125 95.875L94.8125 99.625L91.0625 100.875V102.125L84.1875 102.75L75.4375 108.375L69.8125 109L63.5625 107.125L62.9375 110.875V118.375L64.8125 119.625V120.875L59.1875 122.75L57.3125 124H48.5625L42.9375 122.75L43.5625 120.25L48.5625 117.125H51.6875L54.1875 118.375H56.6875L57.3125 117.125V104.625L49.8125 97.125L42.9375 85.875L41.0625 82.125Z" fill="#E4E3DC"/>
<path d="M19.1875 0.25H23.5625L28.5625 2.125L32.3125 5.25L36.0625 12.75L38.5625 22.75L40.4375 29.625L42.3125 34L40.4375 35.875L34.8125 36.5L30.4375 37.75L28.5625 37.125L27.9375 27.125L26.0625 19V17.125L22.9375 15.875L21.0625 14L15.4375 14.625L4.1875 20.25H1.0625L0.4375 17.75L4.1875 13.375L9.1875 8.375L9.8125 6.5L16.0625 1.5L19.1875 0.25Z" fill="#E3E2DC"/>
<path d="M57.3125 77.75H60.4375V79H61.6875L63.5625 83.375H64.1875L64.8125 78.375L66.0625 80.875L67.3125 84V85.875L69.8125 85.25V86.5L72.3125 85.875V83.375L71.0625 80.875L75.4375 84.625L79.8125 87.75L84.1875 88.375L87.3125 89L89.8125 90.25L91.0625 92.75V94.625L80.4375 99.625V94L77.3125 92.75L74.8125 90.25L71.0625 91.5L69.1875 93.375V98.375L68.5625 99.625H62.9375L57.3125 97.125L54.1875 94.625L48.5625 87.125L44.8125 84V82.125L49.1875 80.25L54.1875 79.625L57.3125 77.75Z" fill="#B2B1AB"/>
<path d="M52.3125 47.75L55.4375 50.875L57.9375 54L63.5625 58.375L66.0625 61.5L68.5625 64L69.1875 66.5H70.4375L72.9375 70.875L76.6875 76.5L77.9375 77.75L77.3125 80.25L73.5625 76.5V79.625L70.4375 77.125V75.875H66.6875L66.0625 73.375V72.125L64.1875 70.25L64.8125 67.125L63.5625 62.75L61.0625 66.5L58.5625 65.25V64H57.3125V62.75H56.0625L55.4375 64L48.5625 67.75L46.0625 69L42.3125 68.375L36.0625 62.125L35.4375 59.625L40.4375 55.25L44.8125 53.375L50.4375 54L53.5625 55.25L52.3125 47.75Z" fill="#B2B0AA"/>
<path d="M62.9375 62.125L64.1875 62.75L65.4375 67.125L64.8125 70.875L67.3125 72.75L66.6875 75.875H70.4375L72.9375 79V75.875L77.3125 79.625L78.5625 78.375L86.0625 86.5L87.3125 89H81.6875L76.0625 85.875L71.6875 81.5L73.5625 84L72.3125 86.5L71.0625 87.125L69.1875 85.875H67.3125L65.4375 80.25L62.3125 72.75L59.1875 66.5L59.8125 65.25L61.0625 65.875L62.9375 62.125Z" fill="#E0DFD8"/>
<path d="M60.4375 104H62.3125L62.9375 118.375L64.8125 119.625V120.875L59.1875 122.75L57.3125 124H48.5625L42.9375 122.75L43.5625 120.25L48.5625 117.125H51.6875L54.1875 118.375H56.6875L57.3125 117.125L57.9375 105.875L58.5625 104.625L60.4375 104Z" fill="#D39C65"/>
<path d="M19.1875 0.25H23.5625L28.5625 2.125L29.8125 4.625L29.1875 7.75L26.0625 4.625H24.1875L26.6875 6.5L28.5625 10.25V13.375L26.0625 14L21.0625 11.5L16.0625 9.625L15.4375 5.875L13.5625 5.25L14.1875 2.75L19.1875 0.25Z" fill="#2E2D2A"/>
<path d="M71.0625 80.875L75.4375 84.625L79.8125 87.75L84.1875 88.375L87.3125 89L89.8125 90.25L91.0625 92.75V94.625L80.4375 99.625V94L77.3125 92.75L74.1875 89L72.9375 85.25L71.6875 82.75L71.0625 80.875Z" fill="#3C3B39"/>
<path d="M95.4375 84L96.6875 84.625V89L95.4375 91.5L96.6875 92.125L96.0625 95.25L97.3125 95.875L94.8125 99.625L91.0625 101.5H82.9375L80.4375 102.125L79.8125 100.25L84.8125 97.125L89.1875 94.625H91.0625L89.1875 89.625L93.5625 89L94.8125 87.125L95.4375 84Z" fill="#B1B0AB"/>
<path d="M13.5625 5.875L14.8125 6.5V10.875L16.6875 11.5L17.3125 14L8.5625 17.75L6.0625 19.625L1.0625 20.25L0.4375 17.75L4.1875 13.375L10.4375 7.125L13.5625 5.875Z" fill="#D59552"/>
<path d="M12.9375 4L13.5625 5.25L16.0625 5.875V9.625L22.9375 11.5L26.0625 13.375L27.9375 17.125V22.125L26.6875 20.25L26.0625 17.125L22.9375 15.875L21.0625 14H17.3125L16.0625 11.5L14.8125 10.875L14.1875 6.5L9.8125 7.75V6.5L12.9375 4Z" fill="#C8C7C1"/>
<path d="M69.1875 69.625L71.0625 70.25L71.6875 71.5L74.1875 72.75L77.9375 77.75L77.3125 80.25L73.5625 76.5V79.625L70.4375 77.125V75.875H66.6875L66.0625 73.375L67.9375 72.75L69.1875 69.625Z" fill="#B5B0A8"/>
<path d="M66.6875 62.125L68.5625 64L69.1875 66.5H70.4375L72.9375 70.875L71.6875 72.125L69.1875 69.625L68.5625 72.75H66.6875L64.8125 70.875L67.3125 69L66.0625 65.25L66.6875 62.125Z" fill="#CAC3B7"/>
<path d="M62.9375 62.125L64.1875 62.75L65.4375 67.125L64.8125 70.25L63.5625 71.5H61.6875L59.1875 66.5L59.8125 65.25L61.0625 65.875L62.9375 62.125Z" fill="#E0DCD2"/>
<path d="M44.1875 120.875L44.8125 122.125L54.8125 121.5L53.5625 122.125V123.375L54.8125 124H48.5625L42.9375 122.75V121.5L44.1875 120.875Z" fill="#C7A794"/>
<path d="M69.1875 69.625L71.0625 70.25L72.3125 73.375L70.4375 75.25H66.6875L66.0625 73.375L67.9375 72.75L69.1875 69.625Z" fill="#4B3325"/>
<path d="M48.5625 117.125H51.6875L54.1875 119V120.875L49.1875 120.25L46.6875 119.625L47.3125 117.75L48.5625 117.125Z" fill="#C8A48E"/>
<path d="M45.4375 119L51.0625 120.25L51.6875 121.5L50.4375 122.125H44.8125L43.5625 121.5V120.25L45.4375 119Z" fill="#D8934D"/>
<path d="M13.5625 5.875L14.8125 6.5V10.875L16.6875 11.5L17.3125 14L15.4375 13.375V12.125L14.1875 11.5V7.75L10.4375 9L7.3125 11.5L8.5625 9L10.4375 7.125L13.5625 5.875Z" fill="#CCAF84"/>
<path d="M64.8125 63.375L67.3125 65.875L67.9375 69L66.0625 70.875L64.1875 70.25L64.8125 67.125V63.375Z" fill="#4D3224"/>
<path d="M12.9375 4L13.5625 5.25H15.4375V10.875H14.8125L14.1875 6.5L9.8125 7.75V6.5L12.9375 4Z" fill="#E3DFD4"/>
<path d="M62.9375 62.125L64.1875 62.75L64.8125 67.125L63.5625 68.375L61.6875 66.5L62.3125 64L62.9375 62.125Z" fill="#CDC9BD"/>
</svg>
