<svg width="147" height="109" viewBox="0 0 147 109" fill="none" xmlns="http://www.w3.org/2000/svg">
<path d="M15.0625 0.625L20.0625 1.25L29.4375 6.25L33.8125 10.625L36.9375 15V43.125L46.9375 41.875H59.4375L70.0625 42.5L95.6875 46.875L101.312 47.5L107.562 50L112.562 54.375L114.438 57.5L117.562 60L123.812 62.5L126.312 63.125H132.562V65H136.938L138.812 67.5L145.688 70.625V71.875H144.438V73.125L146.312 73.75V74.375L138.812 75L133.188 76.25L114.438 75.625L100.062 71.875L97.5625 70.625L95.0625 63.75L94.4375 63.125L93.1875 66.25L91.9375 68.125L95.0625 69.375L96.9375 71.875V73.125H100.062V75L96.9375 77.5L95.6875 79.375L88.8125 81.25L80.6875 85.625L72.5625 88.125L67.5625 90L59.4375 92.5L58.1875 95.625V100L58.8125 105L56.9375 104.375L55.0625 106.25L48.8125 106.875L40.0625 108.75H35.6875L37.5625 106.875L41.9375 104.375L45.6875 102.5L50.6875 101.875L52.5625 93.125L45.6875 92.5L32.5625 89.375L25.6875 85.625L18.8125 80L13.8125 73.75L10.0625 65L8.1875 58.125L7.5625 50L11.3125 40.625L17.5625 28.75L18.1875 23.75L10.0625 25L1.9375 28.125L0.0625 27.5L0.6875 24.375L5.6875 20V16.25L8.1875 15L8.8125 10.625V6.25L12.5625 1.875L15.0625 0.625Z" fill="#E4E3DD"/>
<path d="M100.062 56.875H113.812L117.562 60L123.812 62.5L126.312 63.125H132.562V65H136.938L138.812 67.5L145.688 70.625V71.875H144.438V73.125L146.312 73.75V74.375L138.812 75L133.188 76.25L114.438 75.625L100.062 71.875L97.5625 70.625L95.0625 63.75L94.4375 63.125L93.1875 66.25L91.9375 68.125L95.0625 69.375L96.9375 71.875V73.125H100.062V75L96.9375 77.5L95.6875 79.375L88.8125 81.25L77.5625 83.125L71.3125 84.375L70.6875 82.5L67.5625 81.875L68.1875 76.25V75L65.6875 73.75L61.3125 70.625L63.1875 70H73.8125L79.4375 68.75L83.1875 66.25L88.1875 65V63.125H86.9375L87.5625 60.625L93.1875 58.125L100.062 56.875Z" fill="#2D2E2A"/>
<path d="M46.9375 41.875H59.4375L70.0625 42.5L99.4375 47.5L100.688 48.75L81.9375 48.125L83.8125 53.75L82.5625 56.25L79.4375 57.5H73.1875L69.4375 58.75L62.5625 58.125L60.6875 59.375L55.6875 60.625L51.9375 63.125L48.1875 61.875L45.0625 59.375L38.1875 57.5L35.0625 59.375H33.8125L33.1875 58.125L30.0625 58.75L28.1875 56.875L25.6875 51.875L26.9375 48.75L36.3125 43.125L46.9375 41.875Z" fill="#3B3C3A"/>
<path d="M87.5625 60.625L91.9375 61.25L93.1875 61.875L93.8125 65.625L91.9375 68.125L95.0625 69.375L96.9375 71.875V73.125H100.062V75L96.9375 77.5L95.6875 79.375L88.8125 81.25L77.5625 83.125L71.3125 84.375L70.6875 82.5L67.5625 81.875L68.1875 76.25V75L65.6875 73.75L61.3125 70.625L63.1875 70H73.8125L79.4375 68.75L83.1875 66.25L88.1875 65V63.125H86.9375L87.5625 60.625Z" fill="#181C1A"/>
<path d="M131.938 63.125L132.562 65H136.938L138.812 67.5L145.688 70.625V71.875H144.438V73.125L146.312 73.75V74.375L138.812 75L133.188 76.25L114.438 75.625L100.062 71.875L97.5625 70.625L98.8125 68.75L105.688 69.375L108.812 70L119.438 68.75L123.812 66.25L129.438 65.625H131.312L131.938 63.125Z" fill="#3A3B39"/>
<path d="M16.9375 8.125L21.9375 8.75L23.1875 11.25L20.6875 16.25L19.4375 18.125V21.25L25.0625 20L23.8125 23.125L19.4375 26.875L18.1875 24.375H11.9375L1.9375 28.125L0.0625 27.5L0.6875 24.375L5.6875 20V16.25L8.1875 15L8.8125 13.125L13.8125 11.25L16.9375 8.125Z" fill="#B29282"/>
<path d="M57.5625 66.25H65.6875L76.3125 68.125L78.1875 70L73.8125 70.625H62.5625L68.1875 75L68.8125 76.25V80L68.1875 81.25L71.3125 82.5V84.375L80.0625 81.875L88.1875 81.25L85.6875 83.125L80.6875 85.625L72.5625 88.125L69.4375 87.5L66.3125 85.625L65.0625 83.125L63.8125 76.25L56.9375 68.125L57.5625 66.25Z" fill="#B4B3AE"/>
<path d="M55.0625 92.5H58.8125L58.1875 95.625V100L58.8125 105L56.9375 104.375L55.0625 106.25L48.8125 106.875L40.0625 108.75H35.6875L37.5625 106.875L41.9375 104.375L45.6875 102.5L50.6875 101.875L52.5625 94.375L53.1875 93.125L55.0625 92.5Z" fill="#C9AA7E"/>
<path d="M120.062 61.875L126.312 63.125L131.312 63.75V65.625L123.812 66.875L119.438 69.375L116.938 68.75L116.312 63.75H117.562V62.5L120.062 61.875Z" fill="#172C1D"/>
<path d="M93.8125 62.5L96.3125 65L98.1875 70.625L105.688 73.125L103.188 75.625L100.062 77.5H98.8125V78.75L95.6875 79.375L97.5625 76.25L100.062 73.75L96.9375 73.125L94.4375 69.375L91.9375 68.125L93.8125 62.5Z" fill="#D1D0CA"/>
<path d="M6.3125 18.125H10.0625L9.4375 21.25L10.6875 21.875V23.125H9.4375L10.0625 25L1.9375 28.125L0.0625 27.5L0.6875 24.375L5.6875 20L6.3125 18.125Z" fill="#C5A99A"/>
<path d="M110.688 60.625H113.188L115.062 63.75V68.125L114.438 70H108.812L110.062 67.5L108.812 66.875L109.438 66.25V62.5H110.688V60.625Z" fill="#172D1D"/>
<path d="M83.8125 81.25H88.1875L85.6875 83.125L80.6875 85.625L78.1875 85V83.75L74.4375 84.375L75.0625 83.125L83.8125 81.25Z" fill="#CECDC8"/>
<path d="M122.562 62.5L131.312 63.75V65.625L123.812 66.875L121.938 67.5L121.312 64.375H123.188L122.562 62.5Z" fill="#262C25"/>
<path d="M23.1875 20H25.0625L23.8125 23.125L19.4375 26.875L17.5625 23.125L19.4375 21.25L23.1875 20Z" fill="#B1B0AB"/>
<path d="M101.938 72.5L105.688 73.125L103.188 75.625L100.062 77.5H98.8125V78.75L95.6875 79.375L97.5625 76.25L100.062 73.75L101.938 72.5Z" fill="#B9B8B3"/>
<path d="M17.5625 9.375L20.6875 10V12.5L19.4375 13.75H13.8125L15.6875 11.875H16.9375L17.5625 9.375Z" fill="#5C4133"/>
<path d="M104.438 62.5L106.312 63.125L106.938 66.875L102.562 66.25L103.188 63.125L104.438 62.5Z" fill="#172D1D"/>
<path d="M93.8125 62.5L96.3125 65L95.6875 68.75L93.8125 67.5L91.9375 68.125L93.8125 62.5Z" fill="#C1C0BB"/>
<path d="M77.5625 82.5H80.6875V84.375L81.9375 85L78.8125 85.625L78.1875 83.75L74.4375 84.375L75.0625 83.125L77.5625 82.5Z" fill="#D7D6D0"/>
<path d="M2.5625 22.5L3.1875 25V26.25L4.4375 27.5L0.6875 28.125L0.0625 25.625L2.5625 22.5Z" fill="#D2D0C9"/>
<path d="M128.188 63.75H131.312V65.625L126.938 66.25H124.438L125.062 65L126.312 65.625V64.375L128.188 63.75Z" fill="#292E28"/>
<path d="M46.9375 102.5H49.4375V104.375L44.4375 105.625L42.5625 105L46.9375 102.5Z" fill="#D79048"/>
</svg>
