<svg width="107" height="124" viewBox="0 0 107 124" fill="none" xmlns="http://www.w3.org/2000/svg">
<path d="M19.6875 0.625H24.6875L30.9375 3.75L34.6875 9.375L37.8125 16.25L39.0625 20L40.3125 26.25L44.0625 36.875L47.8125 41.875L49.0625 44.375L53.4375 49.375L55.9375 50.625L65.9375 53.125L72.1875 56.875L74.6875 58.75L78.4375 60V61.875L81.5625 63.125L90.9375 68.125L93.4375 68.75L94.6875 66.25H98.4375L99.0625 66.875V70.625L102.188 67.5L104.062 64.375H105.312L104.688 68.75L106.562 69.375L105.938 76.25L102.188 83.125L98.4375 88.75L97.1875 93.125L94.0625 96.25L91.5625 98.125L76.5625 103.125L70.9375 105.625L69.0625 111.25L67.8125 118.75L66.5625 122.5L63.4375 123.75H59.0625L57.1875 122.5L47.8125 121.875L50.3125 116.875L51.5625 116.25L60.9375 115.625L62.8125 114.375L64.0625 110L64.6875 104.375L60.3125 103.75L50.9375 99.375H47.8125V111.875L49.0625 113.75L48.4375 116.25H35.3125L30.9375 115L27.1875 113.125L27.8125 111.875L41.5625 110L43.4375 101.875V95.625L37.8125 91.875L28.4375 83.75L22.8125 78.125L20.3125 73.125L19.6875 71.25V60.625L24.0625 37.5L24.6875 32.5L22.8125 26.25L20.3125 22.5V21.25H15.3125L9.0625 25H1.5625L0.9375 21.875L1.5625 20.625L5.9375 18.125L7.8125 16.25H9.0625L10.9375 10.625L14.6875 3.75L17.8125 1.25L19.6875 0.625Z" fill="#E4E3DD"/>
<path d="M65.9375 100.625H69.0625L70.9375 102.5L70.3125 105L68.4375 110.625L67.1875 118.125L65.3125 123.125L63.4375 123.75H59.0625L57.1875 122.5L47.8125 121.875L50.3125 116.875L51.5625 116.25L60.9375 115.625L62.8125 114.375L64.6875 110.625L65.3125 101.25L65.9375 100.625Z" fill="#D69755"/>
<path d="M44.6875 95.625L49.0625 97.5V99.375H47.8125V111.875L49.0625 113.75L48.4375 116.25H35.3125L30.9375 115L27.1875 113.125L27.8125 111.875L41.5625 110L43.4375 101.875L44.0625 96.25L44.6875 95.625Z" fill="#D69551"/>
<path d="M12.1875 8.75L12.8125 10.625L15.3125 8.75H17.1875V15L19.0625 15.625V18.75L17.8125 20L13.4375 21.25L9.0625 25H1.5625L0.9375 21.875L1.5625 20.625L5.9375 18.125L7.8125 16.25H9.0625L10.9375 10.625L12.1875 8.75Z" fill="#CFAB79"/>
</svg>
