<svg width="129" height="105" viewBox="0 0 129 105" fill="none" xmlns="http://www.w3.org/2000/svg">
<path d="M22.0625 0.625H30.8125L35.8125 3.125L40.1875 6.875L42.6875 12.5L43.3125 24.375L42.6875 32.5L41.4375 35.625V37.5L57.0625 33.125L60.1875 32.5H65.1875L82.6875 35.625L92.0625 38.125L98.3125 40.625L101.438 41.25H118.312L117.688 39.375L116.438 38.125L119.562 38.75L120.188 39.375V42.5L121.438 41.875L122.688 39.375L123.938 41.25L123.312 44.375L123.938 46.25L118.312 48.75L112.688 58.75L110.188 60V61.25L116.438 60L118.938 59.375L117.688 65L115.188 71.25L109.562 77.5L103.938 81.25L93.9375 85L85.1875 89.375L82.6875 90L70.8125 90.625L69.5625 91.25L67.0625 100.625L64.5625 101.25L60.1875 101.875L57.0625 103.75L48.3125 104.375L45.1875 103.75L45.8125 101.25L43.3125 99.375L43.9375 97.5L48.3125 96.875L60.1875 96.25L62.6875 91.875L58.3125 93.125H48.9375L38.3125 90.625L28.3125 85.625L25.1875 82.5L21.4375 76.875L19.5625 70L20.1875 57.5L22.0625 45L27.6875 44.375H33.9375L37.0625 41.875L37.6875 40L34.5625 40.625H27.0625L23.3125 39.375L24.5625 27.5L23.9375 21.875L22.6875 19.375L17.0625 16.875L16.4375 15L14.5625 13.75L13.9375 11.875V6.875L18.3125 1.875L22.0625 0.625Z" fill="#B0AFAA"/>
<path d="M22.0625 0.625H30.8125L35.8125 3.125L40.1875 6.875L42.6875 12.5L43.3125 24.375L42.6875 32.5L41.4375 35.625V37.5L57.0625 33.125L60.1875 32.5H65.1875L82.6875 35.625L92.0625 38.125L98.3125 40.625L101.438 41.25H118.312L117.688 39.375L116.438 38.125L119.562 38.75L120.188 39.375V42.5L121.438 41.875L122.688 39.375L123.938 41.25L123.312 44.375L123.938 46.25L118.312 48.75L112.688 58.75L110.188 60V61.25L116.438 60L118.938 59.375L118.312 62.5L110.188 63.125L103.938 61.25L97.0625 57.5L99.5625 55.625L106.438 51.25L108.938 48.125L100.812 46.25L88.9375 40L84.5625 38.75L70.8125 36.875L62.6875 37.5L55.8125 38.75L52.0625 41.875L45.8125 53.75H44.5625V55L40.8125 57.5L41.4375 62.5L42.0625 66.875L44.5625 71.25V76.25L40.1875 83.75L38.3125 90L32.6875 88.125L25.8125 83.75L21.4375 76.875L19.5625 70L20.1875 57.5L22.0625 45L27.6875 44.375H33.9375L37.0625 41.875L37.6875 40L34.5625 40.625H27.0625L23.3125 39.375L24.5625 27.5L23.9375 21.875L22.6875 19.375L17.0625 16.875L16.4375 15L14.5625 13.75L13.9375 11.875V6.875L18.3125 1.875L22.0625 0.625Z" fill="#2F2E2A"/>
<path d="M60.1875 32.5H65.1875L82.6875 35.625L92.0625 38.125L98.3125 40.625L101.438 41.25H118.312L117.688 39.375L116.438 38.125L119.562 38.75L120.188 39.375V42.5L121.438 41.875L122.688 39.375L123.938 41.25L123.312 44.375L123.938 46.25L118.312 48.75L112.688 58.75L110.188 60V61.25L116.438 60L118.938 59.375L118.312 62.5L110.188 63.125L103.938 61.25L97.0625 57.5L99.5625 55.625L106.438 51.25L108.938 48.125L100.812 46.25L88.9375 40L84.5625 38.75L70.8125 36.875L62.6875 37.5L55.8125 38.75L52.0625 41.875L45.8125 53.75H44.5625V55L40.8125 57.5L41.4375 66.875L40.1875 67.5L36.4375 64.375L35.8125 59.375L32.6875 60L32.0625 58.125L32.6875 56.875H33.9375L32.6875 52.5L32.0625 51.25L34.5625 47.5L38.9375 45L40.1875 41.25V39.375L41.4375 37.5L57.0625 33.125L60.1875 32.5Z" fill="#4D3224"/>
<path d="M40.1875 36.875L41.4375 41.875L40.1875 43.75L37.0625 46.875L34.5625 48.75L32.6875 51.875L33.9375 53.125V56.875H32.6875V59.375H35.8125L37.6875 65L39.5625 66.25L42.6875 67.5L44.5625 71.25V76.25L40.1875 83.75L38.3125 90L32.6875 88.125L25.8125 83.75L21.4375 76.875L19.5625 70L20.1875 57.5L22.0625 45L27.6875 44.375H33.9375L37.0625 41.875L38.3125 39.375H39.5625L40.1875 36.875Z" fill="#312F2C"/>
<path d="M61.4375 50.625H71.4375L81.4375 51.875L83.9375 53.125L83.3125 54.375L90.8125 55.625L93.3125 56.875L88.3125 63.75L83.3125 66.875L80.8125 66.25L70.8125 60.625L53.9375 58.125L46.4375 55L48.9375 53.125L56.4375 51.25L61.4375 50.625Z" fill="#3C3C3A"/>
<path d="M88.3125 37.5L92.0625 38.125L98.3125 40.625L101.438 41.25H118.312L117.688 39.375L116.438 38.125L119.562 38.75L120.188 39.375V42.5L121.438 41.875L122.688 39.375L123.938 41.25L123.312 44.375L123.938 46.25L118.312 48.75L112.688 58.75L110.188 60V61.25L116.438 60L118.938 59.375L118.312 62.5L110.188 63.125L103.938 61.25L97.0625 57.5L99.5625 55.625L106.438 51.25L108.938 48.125L100.812 46.25L88.9375 40L88.3125 37.5Z" fill="#302F2C"/>
<path d="M22.0625 0.625H30.8125L35.8125 3.125L40.1875 6.875L42.6875 12.5L43.3125 24.375L42.6875 32.5L39.5625 33.125L37.6875 31.875L38.3125 30L38.9375 31.25H40.1875V10L35.8125 6.25L31.4375 4.375L22.0625 3.125L23.9375 6.25L26.4375 9.375L27.0625 15L26.4375 16.25L22.6875 15.625L20.1875 14.375V15.625H18.9375V16.875L23.3125 18.125L23.9375 19.375L17.6875 17.5L16.4375 15L14.5625 13.75L13.9375 11.875V6.875L18.3125 1.875L22.0625 0.625Z" fill="#20211F"/>
<path d="M65.8125 81.875L70.8125 82.5L71.4375 85.625L68.3125 95.625L67.0625 100.625L64.5625 101.25L60.1875 101.875L57.0625 103.75L48.3125 104.375L45.1875 103.75L45.8125 101.25L43.3125 99.375L43.9375 97.5L48.3125 96.875L60.1875 96.25L63.9375 88.75L65.1875 82.5L65.8125 81.875Z" fill="#C0A193"/>
<path d="M22.0625 3.125H28.3125L34.5625 5L39.5625 8.75L40.8125 10V28.75L40.1875 31.25H38.9375L33.9375 20.625L29.5625 11.875L22.0625 5V3.125Z" fill="#304F46"/>
<path d="M123.938 41.25L124.562 43.75H128.312L127.062 50L125.188 53.75L120.812 58.125L118.938 60.625V59.375L115.188 61.25H110.188V60L113.312 56.875L117.688 48.75L122.062 46.25H123.938V45L122.688 44.375L123.938 41.25Z" fill="#B0AFAA"/>
<path d="M82.6875 53.75L93.3125 56.25L90.8125 60.625L87.0625 65L83.3125 66.875L80.8125 66.25L73.9375 62.5L75.1875 61.875L76.4375 59.375L78.9375 58.125V56.875L82.6875 53.75Z" fill="#2F4E45"/>
<path d="M25.1875 0.625H30.8125L35.8125 3.125L40.1875 6.875L42.6875 12.5L43.3125 24.375L42.6875 32.5L39.5625 33.125L37.6875 31.875L38.3125 30L38.9375 31.25H40.1875V10L35.8125 6.25L31.4375 4.375L22.6875 3.125L25.1875 0.625Z" fill="#1A201B"/>
<path d="M93.9375 43.75L96.4375 44.375L97.0625 46.875H98.3125V48.125L101.438 47.5L103.938 50L102.062 50.625V51.875L98.3125 53.75L94.5625 55L92.0625 55.625L88.3125 54.375L89.5625 53.75L90.8125 51.25L92.6875 45.625L93.9375 43.75Z" fill="#C4A59B"/>
<path d="M13.3125 8.125H13.9375L15.1875 13.75L17.0625 15L17.6875 17.5L7.0625 20.625L5.1875 21.25H0.8125V19.375L6.4375 15.625L11.4375 11.875L13.3125 8.125Z" fill="#CAA472"/>
<path d="M22.0625 6.25L24.5625 6.875L26.4375 9.375L27.0625 15L26.4375 16.25L22.6875 15.625L18.9375 13.75L17.0625 9.375L21.4375 7.5L23.3125 8.125V6.875L22.0625 6.25Z" fill="#172C1D"/>
<path d="M25.1875 40H37.6875L37.0625 42.5L33.9375 45H27.6875L24.5625 43.75H22.6875V40.625L25.1875 40Z" fill="#E1E0DB"/>
<path d="M41.4375 11.25L42.6875 12.5L43.3125 24.375L42.6875 32.5L39.5625 33.125L37.6875 31.875L38.3125 30L38.9375 31.25H40.1875L41.4375 11.25Z" fill="#191E1B"/>
<path d="M22.0625 1.875L22.6875 3.125L23.3125 8.125L18.9375 8.75L17.6875 10L18.9375 13.125L17.6875 14.375V12.5L15.8125 13.125L15.1875 11.875L15.8125 8.125L15.1875 6.875L15.8125 5.625H17.0625L18.3125 3.125L22.0625 1.875Z" fill="#2D2D2A"/>
<path d="M23.9375 20H25.1875L25.8125 22.5V36.25V38.125L29.5625 38.75V40L32.0625 40.625H27.0625L23.3125 39.375L24.5625 27.5L23.9375 20Z" fill="#1B211E"/>
<path d="M80.1875 55L81.4375 55.625L78.9375 56.875V58.125L75.8125 60.625L75.1875 61.875L72.0625 61.25L72.6875 59.375L80.1875 55Z" fill="#1A1E1A"/>
<path d="M15.1875 15L15.8125 16.25H14.5625V18.125L7.0625 19.375H5.1875L7.6875 17.5L15.1875 15Z" fill="#D49755"/>
<path d="M23.9375 20H25.1875L25.8125 22.5V31.25L24.5625 35.625H23.9375L24.5625 24.375L23.9375 20Z" fill="#202321"/>
<path d="M17.0625 12.5L18.9375 13.125V14.375H20.1875V15.625H18.9375V16.875L23.3125 18.125L23.9375 19.375L17.6875 17.5L16.4375 15L15.1875 13.75L17.0625 12.5Z" fill="#22211D"/>
<path d="M37.0625 5.625L39.5625 6.25L42.0625 10.625L41.4375 19.375H40.8125L40.1875 10L36.4375 6.875L37.0625 5.625Z" fill="#192A1F"/>
<path d="M90.8125 59.375H92.0625L90.8125 62.5L87.6875 66.25L83.9375 66.875L85.8125 65L88.9375 62.5L90.8125 59.375Z" fill="#E4E4E0"/>
</svg>
