<svg width="105" height="131" viewBox="0 0 105 131" fill="none" xmlns="http://www.w3.org/2000/svg">
<path d="M26.5625 40.875L32.1875 41.5L41.5625 43.375L45.3125 45.25V58.375L49.0625 62.75L58.4375 67.75L70.9375 72.75L80.3125 75.875L91.5625 77.75V79.625L94.0625 79V74.625L96.5625 75.25V77.125L99.0625 75.25L99.6875 77.125L97.8125 79L94.6875 87.125L97.1875 87.75L94.0625 92.125L91.5625 98.375L87.8125 105.875L82.8125 109L70.3125 114L61.5625 116.5L59.0625 122.75L56.5625 125.875L49.0625 129.625L43.4375 130.875L42.1875 130.25L41.5625 127.75L36.5625 125.25L37.1875 123.375L45.9375 119L53.4375 119.625L55.3125 115.875L49.6875 114.625L45.9375 111.5L43.4375 107.75L40.3125 105.25L31.5625 100.875L27.1875 99L25.9375 98.375V97.125L23.4375 96.5V95.25L19.0625 94L16.5625 90.875L12.8125 79.625V69.625L17.8125 59.625L24.0625 47.75L26.5625 40.875Z" fill="#EBE4D0"/>
<path d="M26.5625 40.875L32.1875 41.5L41.5625 43.375L45.3125 45.25V58.375L48.4375 62.125L47.8125 64.625L56.5625 69.625L61.5625 72.125L67.1875 78.375L70.9375 81.5L72.1875 84.625L69.0625 84L65.3125 82.75L59.0625 81.5L54.6875 77.75L52.1875 76.5H47.1875L46.5625 80.875L42.8125 87.125L40.3125 89.625L29.6875 92.125H21.5625L17.1875 90.25L14.0625 84L12.8125 79.625V69.625L17.8125 59.625L24.0625 47.75L26.5625 40.875Z" fill="#573B2B"/>
<path d="M21.5625 0.25H29.0625L35.3125 3.375L40.3125 9L44.0625 16.5L45.3125 26.5V39.625L41.5625 38.375H34.6875L27.8125 39V27.75L25.3125 21.5L20.3125 17.125L17.8125 15.875L8.4375 19L4.0625 20.875H0.3125L2.1875 17.125H4.0625V15.875L9.6875 11.5L12.1875 8.375L13.4375 5.875H14.6875L15.9375 3.375L19.6875 0.875L21.5625 0.25Z" fill="#3D3B38"/>
<path d="M16.5625 89.625L21.5625 91.5H32.8125L33.4375 94L36.5625 97.125V98.375L40.3125 99.625L43.4375 102.125L50.3125 105.875L56.5625 108.375L60.9375 109.625V97.75L62.8125 92.125L65.9375 92.75L68.4375 94.625V95.875H69.6875L70.9375 97.75L71.5625 108.375L76.5625 109V110.25L74.0625 110.875L70.9375 112.75L65.3125 114.625H62.1875L60.3125 120.25L57.8125 124.625L52.1875 128.375L45.3125 130.875L42.1875 130.25L41.5625 127.75L36.5625 125.25L37.1875 123.375L45.9375 119L53.4375 119.625L55.3125 115.875L49.6875 114.625L45.9375 111.5L43.4375 107.75L40.3125 105.25L31.5625 100.875L27.1875 99L25.9375 98.375V97.125L23.4375 96.5V95.25L19.0625 94L16.5625 90.875V89.625Z" fill="#D1BE9E"/>
<path d="M48.4375 62.75L60.3125 68.375L69.0625 72.125L80.3125 75.875L91.5625 77.75V79.625L94.0625 79V74.625L96.5625 75.25V77.125L99.0625 75.25L99.6875 77.125L97.8125 79L94.6875 87.125L97.1875 87.75L93.4375 93.375L91.5625 91.5L89.6875 90.875L89.0625 92.75L80.9375 91.5L79.0625 90.25L74.6875 90.875L69.0625 93.375L65.3125 92.125H60.9375L58.4375 89.625L61.5625 87.125L52.1875 82.125L47.1875 78.375L46.5625 75.875H52.1875L57.8125 79.625L60.3125 81.5L67.1875 82.75L71.5625 84L69.0625 80.25L62.8125 74.625L59.6875 71.5L49.6875 66.5L47.1875 64L48.4375 62.75Z" fill="#B2AFA7"/>
<path d="M75.9375 89.625H79.0625L83.4375 91.5L89.0625 92.125L89.6875 90.875L92.1875 91.5L93.4375 94.625L90.9375 99L88.4375 105.25L85.3125 107.75L76.5625 111.5L66.5625 115.25L60.9375 116.5L61.5625 113.375L62.1875 114.625L72.8125 111.5L75.3125 109.625L76.5625 110.25V109H72.8125L70.9375 107.125L70.3125 97.75L69.6875 95.875H68.4375V94.625L65.9375 93.375L62.8125 92.125L65.3125 91.5L69.0625 92.75L74.6875 90.25L75.9375 89.625Z" fill="#EBE4D1"/>
<path d="M56.5625 112.125L59.6875 112.75L60.3125 120.25L57.8125 124.625L52.1875 128.375L45.3125 130.875L42.1875 130.25L41.5625 127.75L36.5625 125.25L37.1875 123.375L45.9375 119L53.4375 119.625L54.6875 117.75L56.5625 112.125Z" fill="#D69453"/>
<path d="M24.6875 55.25H27.8125L29.0625 57.125L25.3125 56.5V57.75L30.9375 58.375V59L25.3125 59.625V60.875L29.0625 60.25V61.5L30.3125 60.875L34.0625 61.5L32.8125 63.375L34.6875 62.75V64.625L28.4375 65.25L35.3125 65.875L35.9375 64L37.1875 65.875L36.5625 66.5H32.1875V67.75L35.3125 67.125L34.6875 68.375L35.9375 67.75H38.4375L37.1875 70.25H34.0625V71.5L38.4375 70.875L39.0625 69.625V71.5L33.4375 73.375H24.6875V71.5L30.3125 70.25L31.5625 70.875L30.9375 69.625H27.1875L27.8125 68.375L30.9375 67.75H27.1875L24.0625 69.625L19.0625 69V67.75L23.4375 67.125L25.9375 67.75L25.3125 65.25L23.4375 66.5L19.0625 67.125L18.4375 64.625L20.3125 64V62.75H19.0625L20.3125 59.625L20.9375 58.375L24.0625 57.75L22.8125 56.5L24.6875 55.25Z" fill="#44291F"/>
<path d="M42.8125 73.375L44.6875 74L45.3125 77.75L41.5625 86.5L40.3125 87.75L34.6875 87.125L30.9375 85.25L27.8125 82.75V81.5L34.6875 77.75L37.1875 75.875H41.5625V74.625H42.8125V73.375Z" fill="#3F251A"/>
<path d="M13.4375 5.875L15.9375 7.125L17.1875 10.25L18.4375 12.125V15.25L14.0625 17.125L5.3125 20.25L4.0625 20.875H0.3125L2.1875 17.125H4.0625V15.875L9.6875 11.5L12.1875 8.375L13.4375 5.875Z" fill="#D4914E"/>
<path d="M94.0625 74.625L96.5625 75.25V77.125L99.0625 75.25L99.6875 77.125L97.8125 79L94.6875 87.125L97.1875 87.75L93.4375 93.375L91.5625 91.5L89.6875 90.875L89.0625 92.75L81.5625 91.5V90.875L87.1875 89.625L86.5625 87.125L85.9375 84L86.5625 82.75L94.0625 83.375L92.8125 79.625L94.0625 79V74.625Z" fill="#3E3D3A"/>
<path d="M44.0625 17.125L45.3125 18.375L45.9375 23.375V40.25L45.3125 45.25L39.0625 43.375L29.0625 41.5L27.1875 40.875V37.125L27.8125 39L34.6875 37.75H41.5625L44.6875 39V26.5L44.0625 17.125Z" fill="#DDD9D0"/>
<path d="M35.3125 64L37.1875 65.875L36.5625 66.5H32.1875V67.75L35.3125 67.125L34.6875 68.375L35.9375 67.75H38.4375L37.1875 70.25H34.0625V71.5L38.4375 70.875L39.0625 69.625V71.5L33.4375 73.375H24.6875V71.5L30.3125 70.25L31.5625 70.875L30.9375 69.625H27.1875L27.8125 68.375L30.9375 67.75H27.1875L24.0625 69.625L19.0625 69V67.75L23.4375 67.125L25.9375 67.75L25.3125 65.875H35.3125V64Z" fill="#43281D"/>
<path d="M99.0625 74.625L102.188 77.75L104.062 78.375L103.438 80.875H102.188L100.938 83.375L97.8125 87.75L94.6875 87.125L95.3125 83.375L98.4375 77.125L99.0625 74.625Z" fill="#CAB99D"/>
<path d="M46.5625 124.625H52.1875L50.9375 127.125L50.3125 129L45.3125 130.875L42.1875 130.25L41.5625 127.75L39.6875 126.5V125.25H44.0625L46.5625 124.625Z" fill="#C8A48F"/>
<path d="M19.6875 94L22.1875 94.625L23.4375 95.25V96.5L25.9375 97.125V98.375L31.5625 100.25L40.9375 105.25L44.6875 108.375L48.4375 113.375L55.3125 115.875L54.6875 117.75V116.5L49.6875 115.875L44.6875 111.5L40.3125 106.5L25.9375 99.625L19.6875 95.25V94Z" fill="#ECE5D2"/>
<path d="M35.3125 64L37.1875 65.875L36.5625 66.5H32.1875L32.8125 69.625H27.1875L27.8125 68.375L30.9375 67.75H27.1875L24.0625 69.625L19.0625 69V67.75L23.4375 67.125L25.9375 67.75L25.3125 65.875H35.3125V64Z" fill="#3D2319"/>
<path d="M60.3125 87.75L63.4375 88.375V89.625L67.8125 90.875V92.125H69.0625V90.875H72.8125V92.125L67.8125 93.375L65.3125 92.125H60.9375L58.4375 89.625L60.3125 87.75Z" fill="#C6AB82"/>
<path d="M45.3125 75.875L47.1875 76.5L46.5625 80.875L42.8125 87.125L41.5625 85.25L45.3125 75.875Z" fill="#4C3022"/>
<path d="M23.4375 2.75L27.1875 4.625V6.5L27.8125 5.25L30.3125 6.5L29.0625 7.125H24.0625L20.3125 5.875L21.5625 4L23.4375 2.75Z" fill="#422E23"/>
<path d="M89.6875 90.875L92.1875 91.5L93.4375 94H92.1875L90.3125 97.75L88.4375 97.125V92.75L89.6875 90.875Z" fill="#D2C0A3"/>
<path d="M44.6875 119.625L47.8125 122.75L46.5625 123.375L38.4375 124V122.75L44.6875 119.625Z" fill="#C8A695"/>
<path d="M27.1875 67.125H30.9375L31.5625 68.375L29.6875 69L31.5625 69.625V70.875L24.6875 71.5L22.8125 70.25L25.9375 69L27.1875 67.125Z" fill="#624636"/>
<path d="M72.8125 111.5L73.4375 112.75L64.6875 115.875L60.9375 116.5L61.5625 113.375L62.1875 114.625L72.8125 111.5Z" fill="#ECE5D2"/>
<path d="M27.1875 37.125L27.8125 39L34.0625 38.375L31.5625 40.25L33.4375 40.875V42.125L27.1875 40.875V37.125Z" fill="#D3CBBC"/>
<path d="M29.6875 61.5H34.0625L32.8125 63.375L34.6875 62.75V64.625H28.4375L29.6875 61.5Z" fill="#3A2218"/>
<path d="M85.9375 101.5H87.8125L87.1875 105.25L84.6875 107.125L82.1875 106.5L84.0625 105.875L85.3125 102.125L85.9375 101.5Z" fill="#D1BE9E"/>
<path d="M62.1875 90.875H67.8125V92.125H69.0625V90.875H72.8125V92.125L67.8125 93.375L62.1875 91.5V90.875Z" fill="#C7AE88"/>
<path d="M26.5625 59H30.3125V60.25L33.4375 60.875V61.5H29.6875H27.8125L28.4375 60.875H25.3125V59.625L26.5625 59Z" fill="#624537"/>
<path d="M28.4375 70.25L30.9375 70.875L29.0625 72.75L24.6875 73.375V71.5L28.4375 70.25Z" fill="#40261B"/>
<path d="M19.0625 64L24.0625 64.625L23.4375 66.5L19.0625 67.125L18.4375 64.625L19.0625 64Z" fill="#3E241A"/>
</svg>
