<svg width="42" height="42" viewBox="0 0 42 42" fill="none" xmlns="http://www.w3.org/2000/svg">
<path d="M21 3.5C30.6653 3.5 38.5 11.3347 38.5 21C38.5 30.6652 30.6653 38.5 21 38.5C18.0215 38.5042 15.0915 37.7451 12.4898 36.295L11.956 35.9835L6.65001 37.5445C6.36127 37.6296 6.05558 37.6395 5.76192 37.5734C5.46826 37.5072 5.19636 37.3671 4.972 37.1664C4.74765 36.9657 4.57827 36.7111 4.47991 36.4266C4.38156 36.1421 4.3575 35.8372 4.41001 35.5407L4.45551 35.35L6.01651 30.044C4.36636 27.3162 3.49595 24.1881 3.50001 21C3.50001 11.3347 11.3348 3.5 21 3.5ZM21 7C18.4934 6.99955 16.0326 7.6721 13.8746 8.94743C11.7166 10.2228 9.94064 12.0541 8.7321 14.2501C7.52356 16.4462 6.9268 18.9265 7.00414 21.4319C7.08148 23.9374 7.83008 26.3761 9.17176 28.4935C9.51826 29.0395 9.66701 29.7115 9.54976 30.3782L9.48151 30.6635L8.70976 33.2902L11.3365 32.5185C12.0943 32.2945 12.8818 32.431 13.5065 32.8282C15.3411 33.9899 17.4207 34.7088 19.581 34.9283C21.7413 35.1478 23.923 34.8617 25.9538 34.0928C27.9845 33.3238 29.8085 32.093 31.2816 30.4977C32.7547 28.9024 33.8365 26.9863 34.4416 24.9009C35.0466 22.8155 35.1582 20.6179 34.7677 18.4819C34.3771 16.3459 33.4951 14.3301 32.1912 12.5937C30.8874 10.8573 29.1976 9.44796 27.2552 8.47714C25.3129 7.50633 23.1714 7.00062 21 7ZM15.9285 12.572C16.1224 12.489 16.3345 12.4574 16.5443 12.4804C16.754 12.5034 16.9542 12.5802 17.1255 12.7032C18.0075 13.3472 18.7075 14.2117 19.3095 15.0552L19.8818 15.8847L20.1495 16.2785C20.3046 16.5042 20.3807 16.7748 20.3662 17.0482C20.3516 17.3216 20.2472 17.5826 20.069 17.7905L19.9378 17.9235L18.3208 19.124C18.2438 19.181 18.1897 19.2637 18.1683 19.357C18.1468 19.4504 18.1593 19.5483 18.2035 19.6332C18.571 20.2982 19.2203 21.2905 19.9658 22.036C20.713 22.7815 21.7508 23.4745 22.4613 23.8822C22.6153 23.9697 22.8008 23.9417 22.9268 23.828L22.9933 23.7492L24.045 22.148C24.2378 21.8904 24.523 21.7177 24.8406 21.6661C25.1582 21.6145 25.4834 21.6882 25.7478 21.8715L26.698 22.5347C27.643 23.2085 28.5513 23.933 29.2705 24.8517C29.4036 25.0244 29.4882 25.2294 29.5156 25.4457C29.5429 25.662 29.5121 25.8816 29.4263 26.082C28.7333 27.699 26.978 29.0762 25.1545 29.0097L24.8763 28.9922L24.542 28.9607L24.353 28.9362L23.9365 28.8662C22.3195 28.5618 19.7278 27.6447 17.0415 24.9602C14.357 22.274 13.44 19.6822 13.1355 18.0652L13.0655 17.6487L13.0218 17.2847L12.999 16.9785L12.992 16.8472C12.9255 15.0202 14.3098 13.265 15.9285 12.572Z" fill="white"/>
</svg>
